<svg width="1438" height="240" viewBox="0 0 1438 240" fill="none" xmlns="http://www.w3.org/2000/svg">
<rect width="1438" height="240" fill="#FBBF24"/>
<path d="M907.065 145.753C902 147.759 896.979 149.819 892 151.932C922.488 178.671 949.16 208.207 971.332 240H1438V133.863C1362.67 108.321 1278.1 94 1188.74 94C1086.31 94 990.189 112.806 907.065 145.753Z" fill="#AD800C"/>
<path d="M463.938 1C278.023 1 111.605 64.9906 0 165.836V240H995C972.492 209.179 945.566 180.518 914.879 154.524C912.212 152.281 909.546 150.071 906.88 147.893C795.954 57.4099 638.525 1 463.938 1Z" fill="#AD800C"/>
</svg>
