<svg width="1438" height="239" viewBox="0 0 1438 239" fill="none" xmlns="http://www.w3.org/2000/svg">
<path d="M530.935 94.2472C536 92.2408 541.021 90.1812 546 88.0684C515.512 61.3293 488.84 31.7935 466.668 0L0 0V106.137C75.3265 131.679 159.896 146 249.26 146C351.687 146 447.811 127.194 530.935 94.2472Z" fill="#AD800C"/>
<path d="M974.062 239C1159.98 239 1326.39 175.009 1438 74.1642V0L443 0C465.508 30.8206 492.434 59.4815 523.121 85.4759C525.788 87.7191 528.454 89.9293 531.12 92.1065C642.046 182.59 799.475 239 974.062 239Z" fill="#AD800C"/>
</svg>
