<svg width="1000" height="1400" viewBox="0 0 1000 1400" fill="none" xmlns="http://www.w3.org/2000/svg">
<g clip-path="url(#clip0_3_962)">
<rect width="1400" height="1000" transform="translate(0 1400) rotate(-90)" fill="url(#paint0_linear_3_962)"/>
<path d="M0 0L0 1400H1000L1000 0H0Z" fill="#2D477B"/>
<path opacity="0.87" d="M1000 1400L1000 364C908.8 391.7 819.9 479.1 760.8 622.2C646.8 898.2 577.8 772.2 274.8 799.2C131.9 811.9 48.4 916.1 0 1022.6L0 1400H1000Z" fill="#182F54"/>
<path opacity="0.21" d="M235.8 565.2C565.8 547.2 696.6 460 573.6 130C558.3 88.9001 523.7 31.1 499.1 0.100037H0L0 742.8C30.7 652.6 97.4 572.7 235.8 565.2Z" fill="#4570B5"/>
<path opacity="0.21" d="M759.1 1400H1000V812.7C972.7 826 944 838.5 913.9 850.2C589.5 975.7 717.3 1058.2 759.1 1400Z" fill="#4570B5"/>
<path d="M826.9 1117.2C757.1 1154.8 790.9 1293.9 829.5 1400H1000V990.2C936.5 1043 871.4 1093.2 826.9 1117.2Z" fill="#2D477B"/>
<path opacity="0.47" d="M403 44.9999C394.4 28.5999 384.5 13.9999 375.2 -0.00012207H0L0 570.9C66.6 339.9 645.6 509.4 403 44.9999Z" fill="#182F54"/>
<path opacity="0.47" d="M523.8 964.2C356.3 820.3 142.3 1015.8 0 1191.7L0 1400H583.2C596 1230.1 594.7 1025.1 523.8 964.2Z" fill="#2D477B"/>
<path opacity="0.21" d="M375.5 1400C383.5 1275.2 372.1 1160.5 307.8 1141.2C194.6 1107.3 98.5001 1302.3 58.1001 1400H375.5Z" fill="#4570B5"/>
<path opacity="0.87" d="M496.5 -6.10352e-05C591.1 111.1 732.9 318 617 455C452 650 304 570 283 627C262 684 523.8 871.2 655.8 667.2C776.3 481.1 831.8 310 1000 306.4V-6.10352e-05H496.5Z" fill="#182F54"/>
<path opacity="0.17" d="M213.5 1400H527.1C521.6 1251.2 500.5 1089.7 436.8 1060.2C369.4 1029 280.2 1220.6 213.5 1400Z" fill="#7DACEF"/>
<path opacity="0.17" d="M504.8 119.2C522.2 81.4 539.3 40.9 556.8 0L0 0L0 422.1C191.5 410.3 413.3 318 504.8 119.2Z" fill="#7DACEF"/>
<path opacity="0.17" d="M868.5 778.2C771.4 874.3 832.5 1172.8 898.3 1400H1000V593.8C960.3 665 915.6 731.5 868.5 778.2Z" fill="#7DACEF"/>
<path opacity="0.87" d="M0 0L0 339C138.3 321.9 403.3 255.8 384.1 0H0Z" fill="#182F54"/>
<path opacity="0.05" d="M628.224 825.5C725.007 825.5 803.5 903.942 803.5 1000.78C803.5 1059.94 774.175 1112.27 729.203 1144.03C722.002 1149.11 714.437 1153.67 706.51 1157.61C693.35 1164.19 679.258 1169.16 664.44 1172.27C652.782 1174.76 640.659 1176 628.224 1176C531.442 1176 453 1097.56 453 1000.78C453 990.103 453.933 979.689 455.746 969.586C458.388 954.975 462.792 941.038 468.802 927.93C473.776 917.05 479.838 906.739 486.884 897.154C505.795 871.404 531.545 851.043 561.44 838.66C577.968 831.873 595.687 827.469 614.287 826.018C618.95 825.707 623.561 825.5 628.224 825.5Z" fill="#AACEF9"/>
<path opacity="0.1" d="M628.224 844.204C714.696 844.204 784.796 914.304 784.796 1000.78C784.796 1053.67 758.58 1100.41 718.427 1128.75C712.002 1133.26 705.215 1137.35 698.169 1140.87C686.408 1146.73 673.818 1151.18 660.606 1153.98C650.192 1156.21 639.363 1157.35 628.276 1157.35C541.804 1157.35 471.704 1087.25 471.704 1000.78C471.704 991.243 472.533 981.969 474.191 972.902C476.522 959.845 480.46 947.411 485.848 935.702C490.304 925.961 495.744 916.739 502.013 908.242C518.903 885.238 541.907 867.052 568.642 856.017C583.408 849.955 599.262 846.017 615.841 844.722C619.934 844.359 624.079 844.204 628.224 844.204Z" fill="#AACEF9"/>
<path opacity="0.15" d="M628.224 863.892C703.816 863.892 765.056 925.184 765.056 1000.72C765.056 1046.94 742.156 1087.82 707.028 1112.58C701.433 1116.52 695.475 1120.1 689.309 1123.2C679.051 1128.33 668.015 1132.22 656.461 1134.65C647.342 1136.57 637.913 1137.61 628.172 1137.61C552.58 1137.61 491.34 1076.32 491.34 1000.78C491.34 992.434 492.065 984.3 493.516 976.425C495.537 965.026 499.008 954.146 503.723 943.888C507.609 935.391 512.375 927.308 517.815 919.847C532.581 899.745 552.684 883.839 576.051 874.202C588.952 868.866 602.785 865.498 617.292 864.358C620.971 864.047 624.597 863.892 628.224 863.892Z" fill="#AACEF9"/>
<path opacity="0.17" d="M628.224 886.378C691.433 886.378 742.622 937.567 742.622 1000.78C742.622 1039.43 723.452 1073.57 694.127 1094.29C689.413 1097.61 684.491 1100.56 679.31 1103.15C670.709 1107.45 661.538 1110.72 651.85 1112.74C644.234 1114.35 636.307 1115.17 628.224 1115.17C565.067 1115.17 513.826 1063.99 513.826 1000.78C513.826 993.833 514.448 986.994 515.639 980.414C517.349 970.881 520.25 961.762 524.136 953.214C527.4 946.115 531.338 939.38 535.949 933.111C548.28 916.324 565.119 903.009 584.599 894.926C595.376 890.471 606.982 887.621 619.105 886.688C622.162 886.481 625.219 886.378 628.224 886.378Z" fill="#AACEF9"/>
<path d="M628.224 901.247C683.195 901.247 727.701 945.805 727.701 1000.72C727.701 1034.35 711.018 1064.04 685.527 1082.07C681.434 1084.97 677.133 1087.56 672.626 1089.79C665.165 1093.52 657.134 1096.37 648.741 1098.13C642.109 1099.53 635.219 1100.25 628.172 1100.25C573.253 1100.25 528.696 1055.7 528.696 1000.78C528.696 994.714 529.214 988.808 530.25 983.057C531.752 974.767 534.239 966.84 537.659 959.431C540.508 953.265 543.928 947.411 547.917 941.971C558.642 927.36 573.253 915.806 590.247 908.76C599.625 904.874 609.676 902.439 620.245 901.61C622.939 901.351 625.582 901.247 628.224 901.247Z" fill="#9FC7F7"/>
<path opacity="0.59" d="M620.349 901.558C609.779 902.387 599.728 904.874 590.35 908.708C573.356 915.703 558.746 927.308 548.021 941.919C544.031 947.359 540.612 953.214 537.762 959.379C536.933 961.192 536.156 963.006 535.431 964.871C543.047 958.55 551.648 953.317 560.974 949.483C570.351 945.597 580.403 943.162 590.972 942.333C593.563 942.126 596.205 942.023 598.847 942.023C653.819 942.023 698.324 986.58 698.324 1041.5C698.324 1054.14 695.941 1066.21 691.64 1077.35C713.66 1059.11 727.701 1031.55 727.701 1000.72C727.701 945.753 683.143 901.247 628.224 901.247C625.582 901.247 622.939 901.351 620.349 901.558Z" fill="#629FDD"/>
<path d="M658.015 1001.09C658.015 986.036 645.814 973.834 630.763 973.834C615.712 973.834 603.51 986.036 603.51 1001.09C603.51 1016.14 615.712 1028.34 630.763 1028.34C645.814 1028.34 658.015 1016.14 658.015 1001.09Z" fill="#9FC7F7"/>
<path d="M603.51 1001.09C603.51 1001.71 603.51 1002.28 603.562 1002.85C608.018 997.926 614.494 994.87 621.644 994.87C635.167 994.87 646.099 1005.8 646.099 1019.32C646.099 1020.88 645.943 1022.43 645.684 1023.88C653.145 1019.01 658.067 1010.62 658.067 1001.03C658.067 985.958 645.84 973.783 630.815 973.783C615.789 973.783 603.51 986.01 603.51 1001.09Z" fill="#629FDD"/>
<path d="M631.488 1026.22C616.411 1026.22 604.236 1013.99 604.236 998.963C604.236 996.32 604.598 993.782 605.324 991.398C604.184 994.403 603.562 997.667 603.562 1001.09C603.562 1016.16 615.789 1028.34 630.814 1028.34C643.249 1028.34 653.715 1020.05 656.979 1008.65C653.041 1018.91 643.094 1026.22 631.488 1026.22Z" fill="#C0DDF9"/>
<path d="M593.096 1044.19C593.096 1033.09 584.096 1024.09 572.994 1024.09C561.891 1024.09 552.891 1033.09 552.891 1044.19C552.891 1055.3 561.891 1064.3 572.994 1064.3C584.096 1064.3 593.096 1055.3 593.096 1044.19Z" fill="#9FC7F7"/>
<path d="M552.891 1044.19C552.891 1044.61 552.891 1045.07 552.943 1045.49C556.259 1041.86 560.974 1039.63 566.258 1039.63C576.206 1039.63 584.288 1047.72 584.288 1057.66C584.288 1058.8 584.185 1059.94 583.978 1061.03C589.47 1057.46 593.096 1051.24 593.096 1044.25C593.096 1033.16 584.081 1024.14 572.994 1024.14C561.906 1024.09 552.891 1033.11 552.891 1044.19Z" fill="#629FDD"/>
<path d="M573.512 1062.69C562.424 1062.69 553.409 1053.67 553.409 1042.59C553.409 1040.67 553.668 1038.75 554.186 1036.99C553.357 1039.22 552.891 1041.6 552.891 1044.14C552.891 1055.23 561.906 1064.24 572.994 1064.24C582.164 1064.24 589.884 1058.13 592.267 1049.74C589.366 1057.35 582.061 1062.69 573.512 1062.69Z" fill="#C0DDF9"/>
<path d="M548.021 941.919C558.849 943.784 567.087 953.214 567.087 964.56C567.087 966.788 566.776 968.912 566.155 970.933C566.051 971.244 565.999 971.555 565.896 971.814C565.792 972.125 565.688 972.384 565.585 972.695C565.274 973.575 564.911 974.404 564.445 975.181C564.445 975.181 564.445 975.233 564.393 975.233C564.29 975.441 564.186 975.596 564.082 975.803C563.72 976.477 563.305 977.098 562.891 977.72C562.373 978.446 561.854 979.067 561.285 979.741C561.077 979.948 560.87 980.207 560.663 980.414C560.456 980.622 560.3 980.829 560.041 981.036C559.989 981.088 559.937 981.14 559.886 981.192C559.73 981.347 559.523 981.502 559.368 981.71C558.953 982.124 558.487 982.487 558.02 982.849C557.658 983.109 557.295 983.419 556.881 983.678C556.57 983.886 556.259 984.093 555.948 984.248C555.689 984.404 555.378 984.611 555.119 984.766C554.705 984.974 554.29 985.181 553.876 985.388C553.617 985.544 553.306 985.647 552.995 985.751C552.684 985.906 552.373 986.01 552.062 986.114C552.01 986.165 551.959 986.165 551.907 986.165C551.648 986.269 551.337 986.373 551.078 986.424C550.042 986.787 548.954 987.046 547.814 987.202C547.658 987.253 547.555 987.253 547.399 987.253C547.14 987.305 546.829 987.305 546.57 987.357C545.741 987.461 544.964 987.512 544.135 987.512C543.669 987.512 543.203 987.512 542.736 987.461C542.425 987.461 542.115 987.409 541.804 987.409C541.545 987.409 541.286 987.357 540.975 987.305C540.767 987.305 540.56 987.253 540.353 987.202C540.301 987.202 540.249 987.202 540.198 987.202C539.939 987.15 539.679 987.098 539.369 987.046C539.058 986.994 538.747 986.891 538.436 986.839C538.229 986.787 538.022 986.735 537.814 986.683C537.659 986.632 537.555 986.632 537.452 986.58C537.296 986.528 537.141 986.476 536.985 986.424C536.053 986.114 535.12 985.751 534.188 985.285C534.032 985.233 533.825 985.129 533.669 985.026C533.462 984.922 533.255 984.818 533.048 984.715C532.737 984.559 532.478 984.404 532.167 984.197C531.856 983.989 531.545 983.834 531.234 983.575C530.923 983.368 530.613 983.16 530.354 982.953C530.457 982.28 530.613 981.658 530.716 981.036C533.566 966.685 539.628 953.369 548.021 941.919Z" fill="#9FC7F7"/>
<path d="M548.021 941.919C558.849 943.784 567.087 953.214 567.087 964.56C567.087 972.643 562.942 979.689 556.673 983.834C556.932 982.59 557.036 981.295 557.036 980C557.036 969.068 548.539 960.104 537.762 959.431C540.56 953.214 544.032 947.359 548.021 941.919Z" fill="#629FDD"/>
<path d="M566.155 970.985C566.051 971.296 565.999 971.606 565.896 971.866C565.792 972.176 565.688 972.435 565.585 972.746C565.274 973.627 564.86 974.456 564.445 975.233C564.445 975.233 564.445 975.285 564.393 975.285C564.29 975.492 564.186 975.648 564.082 975.855C563.72 976.529 563.305 977.15 562.891 977.772C562.373 978.497 561.854 979.119 561.285 979.793C561.077 980 560.87 980.259 560.663 980.466C560.456 980.673 560.3 980.881 560.041 981.088C559.989 981.14 559.937 981.191 559.886 981.243C559.73 981.399 559.523 981.554 559.368 981.761C558.953 982.176 558.487 982.539 558.02 982.901C557.658 983.16 557.295 983.471 556.881 983.73C556.57 983.937 556.259 984.145 555.948 984.3C555.689 984.456 555.378 984.663 555.119 984.818C554.705 985.025 554.29 985.233 553.876 985.44C553.617 985.595 553.306 985.699 552.995 985.803C552.684 985.958 552.373 986.062 552.062 986.165C552.01 986.217 551.959 986.217 551.907 986.217C551.648 986.321 551.337 986.424 551.078 986.476C550.042 986.839 548.954 987.098 547.814 987.253C547.658 987.305 547.555 987.305 547.399 987.305C547.14 987.357 546.829 987.357 546.57 987.409C545.741 987.512 544.964 987.564 544.135 987.564C543.669 987.564 543.203 987.564 542.736 987.512C542.425 987.512 542.115 987.461 541.804 987.461C541.545 987.461 541.286 987.409 540.975 987.357C540.767 987.357 540.56 987.305 540.353 987.253C540.301 987.253 540.249 987.253 540.198 987.253C539.939 987.202 539.679 987.15 539.369 987.098C539.058 987.046 538.747 986.942 538.436 986.891C538.229 986.839 538.022 986.787 537.814 986.735C537.659 986.683 537.555 986.683 537.452 986.632C537.296 986.58 537.141 986.528 536.985 986.476C536.053 986.165 535.12 985.803 534.188 985.336C534.032 985.285 533.825 985.181 533.669 985.077C533.462 984.974 533.255 984.87 533.048 984.766C532.737 984.611 532.478 984.456 532.167 984.248C531.856 984.041 531.545 983.886 531.234 983.627C530.923 983.419 530.613 983.212 530.354 983.005C530.457 982.331 530.613 981.71 530.716 981.088C534.602 984.041 539.42 985.803 544.653 985.803C554.497 985.803 562.839 979.637 566.155 970.985Z" fill="#C0DDF9"/>
<path d="M666.771 1069.11C675.372 1069.11 682.677 1074.5 685.527 1082.07C674.698 1089.73 662.212 1095.28 648.741 1098.08C647.394 1095.38 646.669 1092.38 646.669 1089.16C646.721 1078.13 655.684 1069.11 666.771 1069.11Z" fill="#9FC7F7"/>
<path d="M666.771 1069.11C675.372 1069.11 682.677 1074.5 685.527 1082.07C681.434 1084.97 677.133 1087.56 672.626 1089.79C669.362 1086.57 664.906 1084.61 660.036 1084.61C654.751 1084.61 650.036 1086.89 646.721 1090.46C646.669 1090.05 646.669 1089.58 646.669 1089.17C646.721 1078.13 655.684 1069.11 666.771 1069.11Z" fill="#629FDD"/>
<path d="M648.793 1098.13C647.446 1095.43 646.721 1092.43 646.721 1089.22C646.721 1086.73 647.187 1084.29 648.016 1082.07C647.498 1083.83 647.239 1085.69 647.239 1087.66C647.239 1091.39 648.275 1094.86 650.037 1097.87L648.793 1098.13Z" fill="#C0DDF9"/>
<path d="M715.784 981.658C715.784 971.614 707.642 963.472 697.599 963.472C687.555 963.472 679.413 971.614 679.413 981.658C679.413 991.701 687.555 999.843 697.599 999.843C707.642 999.843 715.784 991.701 715.784 981.658Z" fill="#9FC7F7"/>
<path d="M679.413 981.658C679.413 982.072 679.413 982.435 679.465 982.849C682.47 979.585 686.718 977.513 691.537 977.513C700.552 977.513 707.857 984.818 707.857 993.833C707.857 994.87 707.754 995.906 707.546 996.89C712.52 993.626 715.784 988.03 715.784 981.658C715.784 971.606 707.65 963.472 697.599 963.472C687.547 963.472 679.413 971.606 679.413 981.658Z" fill="#629FDD"/>
<path d="M698.065 998.444C688.014 998.444 679.879 990.31 679.879 980.259C679.879 978.497 680.138 976.787 680.605 975.181C679.828 977.202 679.413 979.378 679.413 981.658C679.413 991.709 687.547 999.843 697.599 999.843C705.888 999.843 712.883 994.3 715.059 986.735C712.417 993.574 705.837 998.444 698.065 998.444Z" fill="#C0DDF9"/>
<path d="M620.349 901.558C624.546 905.081 627.188 910.314 627.188 916.221C627.188 926.79 618.587 935.391 608.018 935.391C597.448 935.391 588.848 926.79 588.848 916.221C588.848 913.578 589.366 911.04 590.35 908.76C599.728 904.874 609.779 902.387 620.349 901.558Z" fill="#9FC7F7"/>
<path d="M620.349 901.558C624.494 905.081 627.188 910.314 627.188 916.221C627.188 922.956 623.717 928.862 618.484 932.282C618.691 931.246 618.795 930.158 618.795 929.07C618.795 919.588 611.075 911.869 601.593 911.869C596.568 911.869 592.008 914.045 588.9 917.464C588.848 917.05 588.848 916.635 588.848 916.221C588.848 913.578 589.366 911.04 590.35 908.76C599.728 904.874 609.779 902.387 620.349 901.558Z" fill="#629FDD"/>
<path d="M608.484 933.888C597.915 933.888 589.314 925.288 589.314 914.718C589.314 912.853 589.573 911.091 590.091 909.382C589.262 911.506 588.848 913.786 588.848 916.221C588.848 926.79 597.448 935.391 608.018 935.391C616.774 935.391 624.131 929.536 626.411 921.557C623.665 928.759 616.67 933.888 608.484 933.888Z" fill="#C0DDF9"/>
<path d="M390.1 336C390.1 311.644 370.356 291.9 346 291.9C321.644 291.9 301.9 311.644 301.9 336C301.9 360.356 321.644 380.1 346 380.1C370.356 380.1 390.1 360.356 390.1 336Z" fill="#629FDD"/>
<path d="M302.2 331.4C309.8 325.3 319.4 321.6 329.8 321.6C354.1 321.6 373.9 341.3 373.9 365.7C373.9 367.3 373.8 368.8 373.7 370.3C383.7 362.2 390.1 349.8 390.1 336C390.1 311.7 370.4 291.9 346 291.9C323.2 291.9 304.5 309.2 302.2 331.4Z" fill="#3A88C9"/>
<path opacity="0.05" d="M732.934 276.2C784.782 276.2 826.8 318.218 826.8 370.066C826.8 401.782 811.111 429.793 787.004 446.829C783.166 449.523 779.059 452.014 774.817 454.102C767.746 457.603 760.205 460.297 752.259 461.98C745.997 463.327 739.533 464 732.866 464C681.018 464 639 421.982 639 370.134C639 364.41 639.539 358.821 640.481 353.434C641.895 345.623 644.252 338.149 647.484 331.146C650.178 325.288 653.41 319.766 657.181 314.649C667.281 300.845 681.085 289.937 697.111 283.338C705.932 279.702 715.494 277.345 725.392 276.604C727.883 276.335 730.375 276.2 732.934 276.2Z" fill="#AACEF9"/>
<path opacity="0.1" d="M732.934 286.233C779.261 286.233 816.834 323.807 816.834 370.134C816.834 398.482 802.761 423.531 781.281 438.682C777.847 441.106 774.21 443.26 770.44 445.213C764.177 448.378 757.376 450.735 750.306 452.216C744.717 453.428 738.926 454.034 733.001 454.034C686.674 454.034 649.1 416.461 649.1 370.134C649.1 365.016 649.572 360.033 650.447 355.185C651.726 348.182 653.814 341.516 656.709 335.254C659.066 330.069 662.029 325.086 665.328 320.507C674.351 308.185 686.674 298.421 701.016 292.495C708.895 289.263 717.446 287.176 726.335 286.435C728.422 286.3 730.644 286.233 732.934 286.233Z" fill="#AACEF9"/>
<path opacity="0.15" d="M732.934 296.805C773.403 296.805 806.263 329.665 806.263 370.134C806.263 394.913 794.007 416.798 775.153 430.063C772.123 432.218 768.959 434.103 765.659 435.719C760.138 438.48 754.279 440.567 748.084 441.847C743.236 442.857 738.119 443.395 732.934 443.395C692.465 443.395 659.605 410.535 659.605 370.066C659.605 365.622 660.009 361.245 660.75 357.003C661.827 350.876 663.712 345.085 666.204 339.563C668.291 334.984 670.85 330.675 673.746 326.702C681.624 315.928 692.465 307.377 704.922 302.259C711.858 299.431 719.265 297.613 727.008 297.007C729.028 296.872 730.914 296.805 732.934 296.805Z" fill="#AACEF9"/>
<path opacity="0.17" d="M732.934 308.858C766.804 308.858 794.209 336.264 794.209 370.134C794.209 390.806 783.974 409.121 768.218 420.232C765.726 421.982 763.033 423.598 760.272 425.012C755.693 427.302 750.71 429.053 745.593 430.13C741.485 431.005 737.243 431.477 732.934 431.477C699.064 431.477 671.658 404.071 671.658 370.201C671.658 366.498 671.995 362.861 672.601 359.293C673.543 354.175 675.092 349.327 677.179 344.748C678.93 340.91 681.018 337.341 683.509 333.974C690.108 324.951 699.131 317.881 709.568 313.504C715.359 311.147 721.554 309.599 728.018 309.06C729.634 308.925 731.25 308.858 732.934 308.858Z" fill="#AACEF9"/>
<path d="M776.298 370.134C776.298 346.184 756.883 326.769 732.934 326.769C708.984 326.769 689.569 346.184 689.569 370.134C689.569 394.083 708.984 413.498 732.934 413.498C756.883 413.498 776.298 394.083 776.298 370.134Z" fill="#629FDD"/>
<path d="M689.771 365.555C697.246 359.562 706.673 355.926 716.975 355.926C740.947 355.926 760.34 375.319 760.34 399.29C760.34 400.839 760.272 402.388 760.07 403.869C769.901 395.923 776.231 383.736 776.231 370.066C776.231 346.095 756.838 326.702 732.866 326.702C710.511 326.702 692.061 343.738 689.771 365.555Z" fill="#3A88C9"/>
<path d="M873 1212.1C873 1199.45 862.747 1189.2 850.1 1189.2C837.453 1189.2 827.2 1199.45 827.2 1212.1C827.2 1224.75 837.453 1235 850.1 1235C862.747 1235 873 1224.75 873 1212.1Z" fill="#629FDD"/>
<path d="M827.3 1209.7C831.2 1206.5 836.2 1204.6 841.7 1204.6C854.3 1204.6 864.6 1214.8 864.6 1227.5C864.6 1228.3 864.6 1229.1 864.5 1229.9C869.7 1225.7 873 1219.3 873 1212.1C873 1199.5 862.8 1189.2 850.1 1189.2C838.2 1189.2 828.5 1198.2 827.3 1209.7Z" fill="#3A88C9"/>
<path d="M84.0999 1168.5C84.0999 1153.26 71.743 1140.9 56.4999 1140.9C41.2568 1140.9 28.8999 1153.26 28.8999 1168.5C28.8999 1183.74 41.2568 1196.1 56.4999 1196.1C71.743 1196.1 84.0999 1183.74 84.0999 1168.5Z" fill="#629FDD"/>
<path d="M29.0999 1165.6C33.7999 1161.8 39.7999 1159.5 46.3999 1159.5C61.5999 1159.5 73.9999 1171.9 73.9999 1187.1C73.9999 1188.1 73.8999 1189 73.7999 1190C80.0999 1184.9 84.0999 1177.2 84.0999 1168.5C84.0999 1153.3 71.6999 1140.9 56.4999 1140.9C42.2999 1140.9 30.4999 1151.7 29.0999 1165.6Z" fill="#3A88C9"/>
<path opacity="0.15" d="M30.6 288.7C40.8 285.1 178.3 480.9 181.9 491.1C185.5 501.3 180.2 512.5 170 516.1C159.8 519.7 148.6 514.4 145 504.2C141.4 494 20.4 292.3 30.6 288.7Z" fill="#AACEF9"/>
<path d="M183.1 497.7C183.1 486.875 174.325 478.1 163.5 478.1C152.675 478.1 143.9 486.875 143.9 497.7C143.9 508.525 152.675 517.3 163.5 517.3C174.325 517.3 183.1 508.525 183.1 497.7Z" fill="#7AB9ED"/>
<path d="M156.9 479.2C146.7 482.8 141.4 494 145 504.2C145.2 504.8 145.5 505.4 145.7 505.9C147.3 499.9 151.8 494.7 158.1 492.5C167.7 489.1 178.2 493.6 182.4 502.7C183.4 499 183.3 495 181.9 491.1C178.3 480.9 167.1 475.6 156.9 479.2Z" fill="#629FDD"/>
<path opacity="0.15" d="M759 172.2C768.4 168.9 894.8 348.9 898.1 358.3C901.4 367.7 896.5 378 887.1 381.3C877.7 384.6 867.4 379.7 864.1 370.3C860.8 360.9 749.6 175.5 759 172.2Z" fill="#AACEF9"/>
<path d="M899.1 364.3C899.1 354.359 891.041 346.3 881.1 346.3C871.159 346.3 863.1 354.359 863.1 364.3C863.1 374.241 871.159 382.3 881.1 382.3C891.041 382.3 899.1 374.241 899.1 364.3Z" fill="#7AB9ED"/>
<path d="M875.1 347.3C865.7 350.6 860.8 360.9 864.1 370.3C864.3 370.8 864.5 371.4 864.8 371.9C866.3 366.4 870.4 361.6 876.2 359.6C885 356.5 894.7 360.6 898.6 369C899.5 365.6 899.4 361.9 898.2 358.3C894.8 348.9 884.5 343.9 875.1 347.3Z" fill="#629FDD"/>
<path opacity="0.15" d="M874.5 637C880.3 634.9 958.3 746 960.3 751.8C962.4 757.6 959.3 763.9 953.5 766C947.7 768.1 941.4 765 939.3 759.2C937.3 753.5 868.7 639.1 874.5 637Z" fill="#AACEF9"/>
<path d="M960.9 755.6C960.9 749.47 955.931 744.5 949.8 744.5C943.67 744.5 938.7 749.47 938.7 755.6C938.7 761.73 943.67 766.7 949.8 766.7C955.931 766.7 960.9 761.73 960.9 755.6Z" fill="#7AB9ED"/>
<path d="M946.1 745.1C940.3 747.2 937.3 753.5 939.3 759.3C939.4 759.6 939.6 760 939.7 760.3C940.6 756.9 943.1 754 946.7 752.7C952.2 750.8 958.1 753.3 960.5 758.5C961.1 756.4 961 754.1 960.2 751.9C958.3 746.1 951.9 743 946.1 745.1Z" fill="#629FDD"/>
<path opacity="0.15" d="M260.8 1162.7C273.6 1160.1 405 1417.6 407.6 1430.4C410.2 1443.2 401.9 1455.7 389.1 1458.3C376.3 1460.9 363.8 1452.6 361.2 1439.8C358.6 1427 248 1165.3 260.8 1162.7Z" fill="#AACEF9"/>
<path d="M446 1244C446 1240.13 442.866 1237 439 1237C435.134 1237 432 1240.13 432 1244C432 1247.87 435.134 1251 439 1251C442.866 1251 446 1247.87 446 1244Z" fill="white"/>
<path d="M536 1169C536 1166.79 534.209 1165 532 1165C529.791 1165 528 1166.79 528 1169C528 1171.21 529.791 1173 532 1173C534.209 1173 536 1171.21 536 1169Z" fill="white"/>
<path d="M710 1352C710 1349.24 707.761 1347 705 1347C702.239 1347 700 1349.24 700 1352C700 1354.76 702.239 1357 705 1357C707.761 1357 710 1354.76 710 1352Z" fill="white"/>
<path d="M950 1203C950 1200.79 948.209 1199 946 1199C943.791 1199 942 1200.79 942 1203C942 1205.21 943.791 1207 946 1207C948.209 1207 950 1205.21 950 1203Z" fill="white"/>
<path d="M906 1081C906 1079.9 905.105 1079 904 1079C902.895 1079 902 1079.9 902 1081C902 1082.1 902.895 1083 904 1083C905.105 1083 906 1082.1 906 1081Z" fill="white"/>
<path d="M572 1386C572 1383.24 569.761 1381 567 1381C564.239 1381 562 1383.24 562 1386C562 1388.76 564.239 1391 567 1391C569.761 1391 572 1388.76 572 1386Z" fill="white"/>
<path d="M236 1399C236 1397.9 235.105 1397 234 1397C232.895 1397 232 1397.9 232 1399C232 1400.1 232.895 1401 234 1401C235.105 1401 236 1400.1 236 1399Z" fill="white"/>
<path d="M92 1262C92 1259.24 89.7614 1257 87 1257C84.2386 1257 82 1259.24 82 1262C82 1264.76 84.2386 1267 87 1267C89.7614 1267 92 1264.76 92 1262Z" fill="white"/>
<path d="M156 1280C156 1278.34 154.657 1277 153 1277C151.343 1277 150 1278.34 150 1280C150 1281.66 151.343 1283 153 1283C154.657 1283 156 1281.66 156 1280Z" fill="white"/>
<path d="M668.1 603.9C668.1 599.758 664.742 596.4 660.6 596.4C656.458 596.4 653.1 599.758 653.1 603.9C653.1 608.042 656.458 611.4 660.6 611.4C664.742 611.4 668.1 608.042 668.1 603.9Z" fill="white"/>
<path d="M302.1 728.4C302.1 724.258 298.742 720.9 294.6 720.9C290.458 720.9 287.1 724.258 287.1 728.4C287.1 732.542 290.458 735.9 294.6 735.9C298.742 735.9 302.1 732.542 302.1 728.4Z" fill="white"/>
<path d="M958.5 1008.5C958.5 1006.01 956.485 1004 954 1004C951.515 1004 949.5 1006.01 949.5 1008.5C949.5 1010.99 951.515 1013 954 1013C956.485 1013 958.5 1010.99 958.5 1008.5Z" fill="white"/>
<path d="M612.6 513.9C612.6 511.415 610.585 509.4 608.1 509.4C605.615 509.4 603.6 511.415 603.6 513.9C603.6 516.385 605.615 518.4 608.1 518.4C610.585 518.4 612.6 516.385 612.6 513.9Z" fill="white"/>
<path d="M551.1 609.9C551.1 607.415 549.085 605.4 546.6 605.4C544.115 605.4 542.1 607.415 542.1 609.9C542.1 612.385 544.115 614.4 546.6 614.4C549.085 614.4 551.1 612.385 551.1 609.9Z" fill="white"/>
<path d="M462.5 645.2C462.5 643.156 460.844 641.5 458.8 641.5C456.757 641.5 455.1 643.156 455.1 645.2C455.1 647.243 456.757 648.9 458.8 648.9C460.844 648.9 462.5 647.243 462.5 645.2Z" fill="white"/>
<path d="M774.5 961.7C774.5 960.485 773.515 959.5 772.3 959.5C771.085 959.5 770.1 960.485 770.1 961.7C770.1 962.915 771.085 963.9 772.3 963.9C773.515 963.9 774.5 962.915 774.5 961.7Z" fill="white"/>
<path d="M891.6 927.9C891.6 926.243 890.257 924.9 888.6 924.9C886.943 924.9 885.6 926.243 885.6 927.9C885.6 929.557 886.943 930.9 888.6 930.9C890.257 930.9 891.6 929.557 891.6 927.9Z" fill="white"/>
<path d="M801.7 1038C801.7 1035.96 800.044 1034.3 798 1034.3C795.957 1034.3 794.3 1035.96 794.3 1038C794.3 1040.04 795.957 1041.7 798 1041.7C800.044 1041.7 801.7 1040.04 801.7 1038Z" fill="white"/>
<path d="M865.6 847C865.6 841.146 860.854 836.4 855 836.4C849.146 836.4 844.4 841.146 844.4 847C844.4 852.854 849.146 857.6 855 857.6C860.854 857.6 865.6 852.854 865.6 847Z" fill="white"/>
<path d="M965.1 774.9C965.1 772.415 963.085 770.4 960.6 770.4C958.115 770.4 956.1 772.415 956.1 774.9C956.1 777.385 958.115 779.4 960.6 779.4C963.085 779.4 965.1 777.385 965.1 774.9Z" fill="white"/>
<path d="M789.5 579.2C789.5 577.985 788.515 577 787.3 577C786.085 577 785.1 577.985 785.1 579.2C785.1 580.415 786.085 581.4 787.3 581.4C788.515 581.4 789.5 580.415 789.5 579.2Z" fill="white"/>
<path d="M44.1001 762.9C44.1001 760.415 42.0854 758.4 39.6001 758.4C37.1148 758.4 35.1001 760.415 35.1001 762.9C35.1001 765.385 37.1148 767.4 39.6001 767.4C42.0854 767.4 44.1001 765.385 44.1001 762.9Z" fill="#9FC7F7"/>
<path d="M51.6001 405.9C51.6001 403.415 49.5854 401.4 47.1001 401.4C44.6148 401.4 42.6001 403.415 42.6001 405.9C42.6001 408.385 44.6148 410.4 47.1001 410.4C49.5854 410.4 51.6001 408.385 51.6001 405.9Z" fill="#9FC7F7"/>
<path d="M213.6 661.7C213.6 660.485 212.615 659.5 211.4 659.5C210.185 659.5 209.2 660.485 209.2 661.7C209.2 662.915 210.185 663.9 211.4 663.9C212.615 663.9 213.6 662.915 213.6 661.7Z" fill="#9FC7F7"/>
<path d="M81.6001 480.9C81.6001 480.071 80.9285 479.4 80.1001 479.4C79.2717 479.4 78.6001 480.071 78.6001 480.9C78.6001 481.728 79.2717 482.4 80.1001 482.4C80.9285 482.4 81.6001 481.728 81.6001 480.9Z" fill="#9FC7F7"/>
<path d="M71.1001 339.9C71.1001 339.072 70.4285 338.4 69.6001 338.4C68.7717 338.4 68.1001 339.072 68.1001 339.9C68.1001 340.728 68.7717 341.4 69.6001 341.4C70.4285 341.4 71.1001 340.728 71.1001 339.9Z" fill="#9FC7F7"/>
<path d="M176.1 300.2C176.1 298.985 175.115 298 173.9 298C172.685 298 171.7 298.985 171.7 300.2C171.7 301.415 172.685 302.4 173.9 302.4C175.115 302.4 176.1 301.415 176.1 300.2Z" fill="#9FC7F7"/>
<path d="M243.6 349.7C243.6 348.485 242.615 347.5 241.4 347.5C240.185 347.5 239.2 348.485 239.2 349.7C239.2 350.915 240.185 351.9 241.4 351.9C242.615 351.9 243.6 350.915 243.6 349.7Z" fill="#9FC7F7"/>
<path d="M356.1 440.4C356.1 437.086 353.414 434.4 350.1 434.4C346.786 434.4 344.1 437.086 344.1 440.4C344.1 443.714 346.786 446.4 350.1 446.4C353.414 446.4 356.1 443.714 356.1 440.4Z" fill="#9FC7F7"/>
<path d="M189.6 482.4C189.6 481.571 188.929 480.9 188.1 480.9C187.272 480.9 186.6 481.571 186.6 482.4C186.6 483.228 187.272 483.9 188.1 483.9C188.929 483.9 189.6 483.228 189.6 482.4Z" fill="#9FC7F7"/>
<path d="M234.6 515.4C234.6 512.086 231.914 509.4 228.6 509.4C225.286 509.4 222.6 512.086 222.6 515.4C222.6 518.714 225.286 521.4 228.6 521.4C231.914 521.4 234.6 518.714 234.6 515.4Z" fill="#9FC7F7"/>
<path d="M155.1 678.2C155.1 676.156 153.443 674.5 151.4 674.5C149.356 674.5 147.7 676.156 147.7 678.2C147.7 680.243 149.356 681.9 151.4 681.9C153.443 681.9 155.1 680.243 155.1 678.2Z" fill="#9FC7F7"/>
<path d="M23.2999 939.9C23.2999 938.133 21.8672 936.7 20.0999 936.7C18.3326 936.7 16.8999 938.133 16.8999 939.9C16.8999 941.667 18.3326 943.1 20.0999 943.1C21.8672 943.1 23.2999 941.667 23.2999 939.9Z" fill="#9FC7F7"/>
<path d="M664 405.5C664 403.567 662.433 402 660.5 402C658.567 402 657 403.567 657 405.5C657 407.433 658.567 409 660.5 409C662.433 409 664 407.433 664 405.5Z" fill="white"/>
<path d="M605 173C605 170.791 603.209 169 601 169C598.791 169 597 170.791 597 173C597 175.209 598.791 177 601 177C603.209 177 605 175.209 605 173Z" fill="white"/>
<path d="M481 179.5C481 177.567 479.433 176 477.5 176C475.567 176 474 177.567 474 179.5C474 181.433 475.567 183 477.5 183C479.433 183 481 181.433 481 179.5Z" fill="white"/>
<path d="M392 183.5C392 182.119 390.881 181 389.5 181C388.119 181 387 182.119 387 183.5C387 184.881 388.119 186 389.5 186C390.881 186 392 184.881 392 183.5Z" fill="white"/>
<path d="M254 170.5C254 168.567 252.433 167 250.5 167C248.567 167 247 168.567 247 170.5C247 172.433 248.567 174 250.5 174C252.433 174 254 172.433 254 170.5Z" fill="white"/>
<path d="M114 181C114 178.791 112.209 177 110 177C107.791 177 106 178.791 106 181C106 183.209 107.791 185 110 185C112.209 185 114 183.209 114 181Z" fill="white"/>
<path d="M69 202.5C69 201.119 67.8807 200 66.5 200C65.1193 200 64 201.119 64 202.5C64 203.881 65.1193 205 66.5 205C67.8807 205 69 203.881 69 202.5Z" fill="white"/>
<path d="M934 436C934 431.029 929.971 427 925 427C920.029 427 916 431.029 916 436C916 440.971 920.029 445 925 445C929.971 445 934 440.971 934 436Z" fill="white"/>
<path d="M852 413C852 409.686 849.314 407 846 407C842.686 407 840 409.686 840 413C840 416.314 842.686 419 846 419C849.314 419 852 416.314 852 413Z" fill="white"/>
<path d="M756 468C756 466.343 754.657 465 753 465C751.343 465 750 466.343 750 468C750 469.657 751.343 471 753 471C754.657 471 756 469.657 756 468Z" fill="white"/>
<path d="M948 625C948 623.895 947.105 623 946 623C944.895 623 944 623.895 944 625C944 626.105 944.895 627 946 627C947.105 627 948 626.105 948 625Z" fill="white"/>
<path d="M762 641C762 639.895 761.105 639 760 639C758.895 639 758 639.895 758 641C758 642.105 758.895 643 760 643C761.105 643 762 642.105 762 641Z" fill="white"/>
<path d="M700 268C700 265.239 697.761 263 695 263C692.239 263 690 265.239 690 268C690 270.761 692.239 273 695 273C697.761 273 700 270.761 700 268Z" fill="white"/>
<path d="M890 191C890 188.791 888.209 187 886 187C883.791 187 882 188.791 882 191C882 193.209 883.791 195 886 195C888.209 195 890 193.209 890 191Z" fill="white"/>
<path d="M534 275C534 271.686 531.314 269 528 269C524.686 269 522 271.686 522 275C522 278.314 524.686 281 528 281C531.314 281 534 278.314 534 275Z" fill="white"/>
<path d="M384 252C384 244.82 378.18 239 371 239C363.82 239 358 244.82 358 252C358 259.18 363.82 265 371 265C378.18 265 384 259.18 384 252Z" fill="white"/>
<path d="M522 445C522 441.686 519.314 439 516 439C512.686 439 510 441.686 510 445C510 448.314 512.686 451 516 451C519.314 451 522 448.314 522 445Z" fill="white"/>
<path d="M170 182.5C170 179.462 167.538 177 164.5 177C161.462 177 159 179.462 159 182.5C159 185.538 161.462 188 164.5 188C167.538 188 170 185.538 170 182.5Z" fill="white"/>
<path d="M58 136C58 133.239 55.7614 131 53 131C50.2386 131 48 133.239 48 136C48 138.761 50.2386 141 53 141C55.7614 141 58 138.761 58 136Z" fill="white"/>
<path d="M41 308.5C41 306.015 38.9853 304 36.5 304C34.0147 304 32 306.015 32 308.5C32 310.985 34.0147 313 36.5 313C38.9853 313 41 310.985 41 308.5Z" fill="white"/>
<path d="M30 445.5C30 441.91 27.0899 439 23.5 439C19.9101 439 17 441.91 17 445.5C17 449.09 19.9101 452 23.5 452C27.0899 452 30 449.09 30 445.5Z" fill="white"/>
<path d="M673.1 190.4C673.1 186.81 670.19 183.9 666.6 183.9C663.01 183.9 660.1 186.81 660.1 190.4C660.1 193.99 663.01 196.9 666.6 196.9C670.19 196.9 673.1 193.99 673.1 190.4Z" fill="white"/>
<path d="M49 836C49 834.895 48.1046 834 47 834C45.8954 834 45 834.895 45 836C45 837.105 45.8954 838 47 838C48.1046 838 49 837.105 49 836Z" fill="white"/>
<path d="M48 991.5C48 989.567 46.433 988 44.5 988C42.567 988 41 989.567 41 991.5C41 993.433 42.567 995 44.5 995C46.433 995 48 993.433 48 991.5Z" fill="white"/>
<path d="M59 1059.5C59 1055.91 56.0899 1053 52.5 1053C48.9101 1053 46 1055.91 46 1059.5C46 1063.09 48.9101 1066 52.5 1066C56.0899 1066 59 1063.09 59 1059.5Z" fill="white"/>
<path d="M20 1336C20 1334.34 18.6569 1333 17 1333C15.3431 1333 14 1334.34 14 1336C14 1337.66 15.3431 1339 17 1339C18.6569 1339 20 1337.66 20 1336Z" fill="white"/>
<path d="M57 1332C57 1330.34 55.6569 1329 54 1329C52.3431 1329 51 1330.34 51 1332C51 1333.66 52.3431 1335 54 1335C55.6569 1335 57 1333.66 57 1332Z" fill="white"/>
<path d="M225 1327.5C225 1326.67 224.328 1326 223.5 1326C222.672 1326 222 1326.67 222 1327.5C222 1328.33 222.672 1329 223.5 1329C224.328 1329 225 1328.33 225 1327.5Z" fill="white"/>
<path d="M312 1392.5C312 1390.57 310.433 1389 308.5 1389C306.567 1389 305 1390.57 305 1392.5C305 1394.43 306.567 1396 308.5 1396C310.433 1396 312 1394.43 312 1392.5Z" fill="white"/>
<path d="M556 1353C556 1351.9 555.105 1351 554 1351C552.895 1351 552 1351.9 552 1353C552 1354.1 552.895 1355 554 1355C555.105 1355 556 1354.1 556 1353Z" fill="white"/>
<path d="M364 1191.5C364 1190.67 363.328 1190 362.5 1190C361.672 1190 361 1190.67 361 1191.5C361 1192.33 361.672 1193 362.5 1193C363.328 1193 364 1192.33 364 1191.5Z" fill="white"/>
<path d="M453 1324.5C453 1322.57 451.433 1321 449.5 1321C447.567 1321 446 1322.57 446 1324.5C446 1326.43 447.567 1328 449.5 1328C451.433 1328 453 1326.43 453 1324.5Z" fill="white"/>
<path d="M888 1317.5C888 1315.57 886.433 1314 884.5 1314C882.567 1314 881 1315.57 881 1317.5C881 1319.43 882.567 1321 884.5 1321C886.433 1321 888 1319.43 888 1317.5Z" fill="white"/>
<path d="M736 973C736 971.343 734.657 970 733 970C731.343 970 730 971.343 730 973C730 974.657 731.343 976 733 976C734.657 976 736 974.657 736 973Z" fill="white"/>
<path d="M630 712.5C630 711.672 629.328 711 628.5 711C627.672 711 627 711.672 627 712.5C627 713.328 627.672 714 628.5 714C629.328 714 630 713.328 630 712.5Z" fill="white"/>
<path d="M753 166.5C753 165.119 751.881 164 750.5 164C749.119 164 748 165.119 748 166.5C748 167.881 749.119 169 750.5 169C751.881 169 753 167.881 753 166.5Z" fill="white"/>
<path d="M951 220C951 217.791 949.209 216 947 216C944.791 216 943 217.791 943 220C943 222.209 944.791 224 947 224C949.209 224 951 222.209 951 220Z" fill="white"/>
<path d="M950 146C950 143.239 947.761 141 945 141C942.239 141 940 143.239 940 146C940 148.761 942.239 151 945 151C947.761 151 950 148.761 950 146Z" fill="white"/>
<path d="M831 134C831 132.895 830.105 132 829 132C827.895 132 827 132.895 827 134C827 135.105 827.895 136 829 136C830.105 136 831 135.105 831 134Z" fill="white"/>
<path d="M957.1 323.4C957.1 318.429 953.071 314.4 948.1 314.4C943.13 314.4 939.1 318.429 939.1 323.4C939.1 328.371 943.13 332.4 948.1 332.4C953.071 332.4 957.1 328.371 957.1 323.4Z" fill="white"/>
<path d="M321 123.5C321 120.462 318.538 118 315.5 118C312.462 118 310 120.462 310 123.5C310 126.538 312.462 129 315.5 129C318.538 129 321 126.538 321 123.5Z" fill="white"/>
<path d="M38 183.5C38 181.567 36.433 180 34.5 180C32.567 180 31 181.567 31 183.5C31 185.433 32.567 187 34.5 187C36.433 187 38 185.433 38 183.5Z" fill="white"/>
<path d="M119 399C119 397.343 117.657 396 116 396C114.343 396 113 397.343 113 399C113 400.657 114.343 402 116 402C117.657 402 119 400.657 119 399Z" fill="white"/>
<path d="M114 686C114 684.343 112.657 683 111 683C109.343 683 108 684.343 108 686C108 687.657 109.343 689 111 689C112.657 689 114 687.657 114 686Z" fill="white"/>
<path d="M144 817C144 815.343 142.657 814 141 814C139.343 814 138 815.343 138 817C138 818.657 139.343 820 141 820C142.657 820 144 818.657 144 817Z" fill="white"/>
<path d="M167.1 753.9C167.1 752.243 165.757 750.9 164.1 750.9C162.443 750.9 161.1 752.243 161.1 753.9C161.1 755.557 162.443 756.9 164.1 756.9C165.757 756.9 167.1 755.557 167.1 753.9Z" fill="white"/>
<path d="M249 591C249 590.448 248.552 590 248 590C247.448 590 247 590.448 247 591C247 591.552 247.448 592 248 592C248.552 592 249 591.552 249 591Z" fill="white"/>
<path d="M378 513.5C378 511.567 376.433 510 374.5 510C372.567 510 371 511.567 371 513.5C371 515.433 372.567 517 374.5 517C376.433 517 378 515.433 378 513.5Z" fill="white"/>
<path d="M469 721C469 718.791 467.209 717 465 717C462.791 717 461 718.791 461 721C461 723.209 462.791 725 465 725C467.209 725 469 723.209 469 721Z" fill="white"/>
<path d="M492 1096.5C492 1095.12 490.881 1094 489.5 1094C488.119 1094 487 1095.12 487 1096.5C487 1097.88 488.119 1099 489.5 1099C490.881 1099 492 1097.88 492 1096.5Z" fill="white"/>
<rect y="1400" width="1402" height="1000" transform="rotate(-90 0 1400)" fill="url(#paint1_linear_3_962)" fill-opacity="0.8"/>
</g>
<defs>
<linearGradient id="paint0_linear_3_962" x1="700" y1="0" x2="700" y2="1000" gradientUnits="userSpaceOnUse">
<stop stop-color="#78366B"/>
<stop offset="1" stop-color="#C8817C"/>
</linearGradient>
<linearGradient id="paint1_linear_3_962" x1="701" y1="1400" x2="701" y2="2400" gradientUnits="userSpaceOnUse">
<stop stop-color="#78366B"/>
<stop offset="1" stop-color="#CA847D"/>
</linearGradient>
<clipPath id="clip0_3_962">
<rect width="1400" height="1000" fill="white" transform="translate(0 1400) rotate(-90)"/>
</clipPath>
</defs>
</svg>
