<svg width="652" height="147" viewBox="0 0 652 147" fill="none" xmlns="http://www.w3.org/2000/svg">
<path d="M92.9688 115.703L94.8642 115.065L94.4057 113.703H92.9688V115.703ZM41.6016 115.703V113.703H40.16L39.7042 115.071L41.6016 115.703ZM31.8359 145V147H33.2775L33.7333 145.632L31.8359 145ZM0.683594 145L-1.19075 144.302L-2.19499 147H0.683594V145ZM53.6133 2.8125V0.8125H52.2237L51.7389 2.11477L53.6133 2.8125ZM80.7617 2.8125L82.6348 2.11138L82.1486 0.8125H80.7617V2.8125ZM133.984 145V147H136.869L135.857 144.299L133.984 145ZM102.832 145L100.937 145.638L101.395 147H102.832V145ZM49.5117 91.9727L47.6137 91.3423L46.7401 93.9727H49.5117V91.9727ZM85.0586 91.9727V93.9727H87.8399L86.9546 91.336L85.0586 91.9727ZM67.1875 38.75L69.0835 38.1134L67.1771 32.4359L65.2894 38.1196L67.1875 38.75ZM92.9688 113.703H41.6016V117.703H92.9688V113.703ZM39.7042 115.071L29.9386 144.368L33.7333 145.632L43.4989 116.336L39.7042 115.071ZM31.8359 143H0.683594V147H31.8359V143ZM2.55794 145.698L55.4876 3.51023L51.7389 2.11477L-1.19075 144.302L2.55794 145.698ZM53.6133 4.8125H80.7617V0.8125H53.6133V4.8125ZM78.8886 3.51362L132.111 145.701L135.857 144.299L82.6348 2.11138L78.8886 3.51362ZM133.984 143H102.832V147H133.984V143ZM104.727 144.362L94.8642 115.065L91.0733 116.341L100.937 145.638L104.727 144.362ZM49.5117 93.9727H85.0586V89.9727H49.5117V93.9727ZM86.9546 91.336L69.0835 38.1134L65.2915 39.3866L83.1626 92.6093L86.9546 91.336ZM65.2894 38.1196L47.6137 91.3423L51.4098 92.603L69.0856 39.3804L65.2894 38.1196ZM147.266 145H145.266V147H147.266V145ZM147.266 2.8125V0.8125H145.266V2.8125H147.266ZM236.328 12.7734L235.134 14.3777L235.141 14.3833L236.328 12.7734ZM244.336 60.2344L245.991 61.3579L245.997 61.3484L244.336 60.2344ZM229.395 71.8555L228.671 69.9907L222.799 72.268L228.909 73.7958L229.395 71.8555ZM246.582 82.8906L244.984 84.0936L244.989 84.0996L244.993 84.1055L246.582 82.8906ZM239.844 134.258L241.099 135.815L239.844 134.258ZM202.539 145V147H202.547L202.555 147L202.539 145ZM176.562 83.0859V81.0859H174.562V83.0859H176.562ZM176.562 121.465H174.562V123.465H176.562V121.465ZM217.773 116.582L219.066 118.108L219.069 118.106L217.773 116.582ZM203.418 83.0859L203.447 81.0861L203.432 81.0859H203.418V83.0859ZM176.562 62.3828H174.562V64.3828H176.562V62.3828ZM198.242 62.3828V64.3828H198.26L198.277 64.3825L198.242 62.3828ZM214.746 30.8398L213.524 32.423L213.539 32.4349L213.555 32.4465L214.746 30.8398ZM176.562 26.543V24.543H174.562V26.543H176.562ZM149.266 145V2.8125H145.266V145H149.266ZM147.266 4.8125H197.07V0.8125H147.266V4.8125ZM197.07 4.8125C214.115 4.8125 226.703 8.10093 235.134 14.3776L237.522 11.1692C228.114 4.16469 214.531 0.8125 197.07 0.8125V4.8125ZM235.141 14.3833C243.467 20.521 247.707 29.5423 247.707 41.7773H251.707C251.707 28.4916 247.028 18.177 237.515 11.1636L235.141 14.3833ZM247.707 41.7773C247.707 48.3815 246.016 54.139 242.675 59.1203L245.997 61.3484C249.817 55.6527 251.707 49.1055 251.707 41.7773H247.707ZM242.681 59.1109C239.346 64.0233 234.702 67.6522 228.671 69.9907L230.118 73.7202C236.847 71.1108 242.165 66.9923 245.991 61.3579L242.681 59.1109ZM228.909 73.7958C235.797 75.5177 241.117 78.9577 244.984 84.0936L248.18 81.6876C243.714 75.7559 237.575 71.8391 229.88 69.9152L228.909 73.7958ZM244.993 84.1055C248.919 89.2397 250.93 95.5659 250.93 103.203H254.93C254.93 94.8247 252.708 87.6092 248.171 81.6757L244.993 84.1055ZM250.93 103.203C250.93 116.417 246.738 126.133 238.589 132.701L241.099 135.815C250.397 128.321 254.93 117.333 254.93 103.203H250.93ZM238.589 132.701C230.342 139.348 218.411 142.872 202.523 143L202.555 147C218.959 146.868 231.898 143.231 241.099 135.815L238.589 132.701ZM202.539 143H147.266V147H202.539V143ZM174.562 83.0859V121.465H178.562V83.0859H174.562ZM176.562 123.465H201.66V119.465H176.562V123.465ZM201.66 123.465C208.859 123.465 214.75 121.766 219.066 118.108L216.48 115.056C213.115 117.908 208.263 119.465 201.66 119.465V123.465ZM219.069 118.106C223.483 114.353 225.633 109.206 225.633 102.91H221.633C221.633 108.203 219.876 112.17 216.478 115.058L219.069 118.106ZM225.633 102.91C225.633 96.0713 223.859 90.5653 219.979 86.7605C216.112 82.9678 210.479 81.1881 203.447 81.0861L203.389 85.0857C209.834 85.1791 214.308 86.8011 217.179 89.6164C220.037 92.4197 221.633 96.7282 221.633 102.91H225.633ZM203.418 81.0859H176.562V85.0859H203.418V81.0859ZM176.562 64.3828H198.242V60.3828H176.562V64.3828ZM198.277 64.3825C205.875 64.2486 211.929 62.6698 216.115 59.3323C220.39 55.9235 222.41 50.9298 222.41 44.707H218.41C218.41 50.0077 216.735 53.7217 213.621 56.2048C210.418 58.7593 205.388 60.2566 198.207 60.3831L198.277 64.3825ZM222.41 44.707C222.41 37.8812 220.396 32.5387 215.937 29.2332L213.555 32.4465C216.648 34.7399 218.41 38.6422 218.41 44.707H222.41ZM215.968 29.2567C211.733 25.9872 205.298 24.543 197.07 24.543V28.543C204.988 28.543 210.337 29.9633 213.524 32.423L215.968 29.2567ZM197.07 24.543H176.562V28.543H197.07V24.543ZM174.562 26.543V62.3828H178.562V26.543H174.562ZM363.086 138.359L362.032 136.659L362.027 136.663L363.086 138.359ZM299.902 138.457L298.858 140.162L299.902 138.457ZM278.418 114.238L276.616 115.106L276.618 115.11L278.418 114.238ZM270.703 77.9102L268.703 77.9102L268.703 77.9197L270.703 77.9102ZM278.223 33.9648L276.417 33.1058L276.414 33.1106L278.223 33.9648ZM299.609 9.45312L300.66 11.1552L300.663 11.1531L299.609 9.45312ZM362.793 9.45312L361.734 11.1498L361.741 11.1542L361.748 11.1585L362.793 9.45312ZM384.18 33.9648L382.369 34.8148L382.372 34.8215L382.376 34.8281L384.18 33.9648ZM308.496 36.6016L310.134 37.7494L310.138 37.7429L308.496 36.6016ZM300.391 70.1953L298.391 70.1865V70.1953H300.391ZM354.102 111.406L355.75 112.538L355.755 112.532L354.102 111.406ZM362.109 77.6172L364.109 77.626V77.6172H362.109ZM389.797 77.1289C389.797 90.891 387.365 102.863 382.564 113.096L386.186 114.795C391.281 103.934 393.797 91.3616 393.797 77.1289H389.797ZM382.564 113.096C377.769 123.318 370.924 131.149 362.032 136.659L364.139 140.059C373.737 134.111 381.085 125.666 386.186 114.795L382.564 113.096ZM362.027 136.663C353.197 142.174 343.024 144.953 331.445 144.953V148.953C343.695 148.953 354.616 146.003 364.145 140.056L362.027 136.663ZM331.445 144.953C319.997 144.953 309.85 142.206 300.947 136.752L298.858 140.162C308.444 146.036 319.326 148.953 331.445 148.953V144.953ZM300.947 136.752C292.053 131.302 285.142 123.53 280.218 113.366L276.618 115.11C281.85 125.91 289.262 134.284 298.858 140.162L300.947 136.752ZM280.22 113.371C275.291 103.133 272.767 91.325 272.703 77.9006L268.703 77.9197C268.769 91.8391 271.389 104.25 276.616 115.106L280.22 113.371ZM272.703 77.9102V70.8789H268.703V77.9102H272.703ZM272.703 70.8789C272.703 57.1207 275.166 45.1174 280.031 34.8191L276.414 33.1106C271.253 44.0362 268.703 56.6423 268.703 70.8789H272.703ZM280.029 34.8239C284.958 24.46 291.839 16.5976 300.66 11.1552L298.559 7.75105C289.02 13.6368 281.644 22.1155 276.417 33.1058L280.029 34.8239ZM300.663 11.1531C309.563 5.63749 319.739 2.85938 331.25 2.85938V-1.14062C319.063 -1.14062 308.145 1.81043 298.556 7.75311L300.663 11.1531ZM331.25 2.85938C342.761 2.85938 352.902 5.63751 361.734 11.1498L363.852 7.75645C354.325 1.81041 343.437 -1.14062 331.25 -1.14062V2.85938ZM361.748 11.1585C370.63 16.6004 377.507 24.4591 382.369 34.8148L385.99 33.1148C380.826 22.1164 373.445 13.634 363.838 7.74775L361.748 11.1585ZM382.376 34.8281C387.303 45.1254 389.797 57.0932 389.797 70.7812H393.797C393.797 56.6047 391.213 44.0283 385.984 33.1015L382.376 34.8281ZM389.797 70.7812V77.1289H393.797V70.7812H389.797ZM364.109 70.6836C364.109 55.5877 361.416 43.7888 355.748 35.5644L352.455 37.834C357.465 45.1045 360.109 55.9618 360.109 70.6836H364.109ZM355.748 35.5644C350.014 27.2428 341.763 23.0781 331.25 23.0781V27.0781C340.528 27.0781 347.512 30.6608 352.455 37.834L355.748 35.5644ZM331.25 23.0781C320.804 23.0781 312.588 27.2084 306.854 35.4602L310.138 37.7429C315.081 30.6301 322.035 27.0781 331.25 27.0781V23.0781ZM306.858 35.4537C301.185 43.5489 298.457 55.2212 298.391 70.1865L302.391 70.2041C302.455 55.6122 305.13 44.8886 310.134 37.7494L306.858 35.4537ZM298.391 70.1953V77.1289H302.391V70.1953H298.391ZM298.391 77.1289C298.391 91.854 301.092 103.563 306.734 112.027L310.063 109.809C305.028 102.257 302.391 91.4403 302.391 77.1289H298.391ZM306.734 112.027C312.462 120.619 320.784 124.93 331.445 124.93V120.93C322.055 120.93 315.012 117.233 310.063 109.809L306.734 112.027ZM331.445 124.93C341.892 124.93 350.08 120.798 355.75 112.538L352.453 110.274C347.576 117.379 340.66 120.93 331.445 120.93V124.93ZM355.755 112.532C361.348 104.315 364.043 92.5914 364.109 77.626L360.109 77.6084C360.045 92.2003 357.402 103.003 352.448 110.281L355.755 112.532ZM364.109 77.6172V70.6836H360.109V77.6172H364.109ZM520.703 2.8125H522.703V0.8125H520.703V2.8125ZM506.055 133.379L504.695 131.912L504.69 131.916L506.055 133.379ZM411.719 97.5391H409.719V97.5518L409.719 97.5645L411.719 97.5391ZM411.719 2.8125V0.8125H409.719V2.8125H411.719ZM441.016 2.8125H443.016V0.8125H441.016V2.8125ZM447.656 117.07L446.263 118.505L446.274 118.516L446.285 118.526L447.656 117.07ZM491.309 97.4414L493.308 97.4715L493.309 97.4564V97.4414H491.309ZM491.309 2.8125V0.8125H489.309V2.8125H491.309ZM518.703 2.8125V96.4648H522.703V2.8125H518.703ZM518.703 96.4648C518.703 111.571 513.983 123.305 504.695 131.912L507.414 134.846C517.658 125.353 522.703 112.479 522.703 96.4648H518.703ZM504.69 131.916C495.453 140.534 482.709 144.953 466.211 144.953V148.953C483.437 148.953 497.256 144.323 507.419 134.841L504.69 131.916ZM466.211 144.953C449.969 144.953 437.307 140.661 427.998 132.283L425.322 135.256C435.544 144.456 449.25 148.953 466.211 148.953V144.953ZM427.998 132.283C418.718 123.931 413.908 112.424 413.719 97.5136L409.719 97.5645C409.92 113.384 415.071 126.03 425.322 135.256L427.998 132.283ZM413.719 97.5391V2.8125H409.719V97.5391H413.719ZM411.719 4.8125H441.016V0.8125H411.719V4.8125ZM439.016 2.8125V96.6602H443.016V2.8125H439.016ZM439.016 96.6602C439.016 106.238 441.289 113.677 446.263 118.505L449.049 115.635C445.17 111.87 443.016 105.702 443.016 96.6602H439.016ZM446.285 118.526C451.243 123.196 457.97 125.418 466.211 125.418V121.418C458.697 121.418 453.054 119.408 449.028 115.615L446.285 118.526ZM466.211 125.418C474.784 125.418 481.595 123.159 486.277 118.313C490.942 113.486 493.174 106.417 493.308 97.4715L489.309 97.4113C489.183 105.784 487.102 111.703 483.401 115.534C479.717 119.347 474.11 121.418 466.211 121.418V125.418ZM493.309 97.4414V2.8125H489.309V97.4414H493.309ZM491.309 4.8125H520.703V0.8125H491.309V4.8125ZM651.758 26.543V28.543H653.758V26.543H651.758ZM608.203 26.543V24.543H606.203V26.543H608.203ZM608.203 145V147H610.203V145H608.203ZM578.906 145H576.906V147H578.906V145ZM578.906 26.543H580.906V24.543H578.906V26.543ZM535.938 26.543H533.938V28.543H535.938V26.543ZM535.938 2.8125V0.8125H533.938V2.8125H535.938ZM651.758 2.8125H653.758V0.8125H651.758V2.8125ZM651.758 24.543H608.203V28.543H651.758V24.543ZM606.203 26.543V145H610.203V26.543H606.203ZM608.203 143H578.906V147H608.203V143ZM580.906 145V26.543H576.906V145H580.906ZM578.906 24.543H535.938V28.543H578.906V24.543ZM537.938 26.543V2.8125H533.938V26.543H537.938ZM535.938 4.8125H651.758V0.8125H535.938V4.8125ZM649.758 2.8125V26.543H653.758V2.8125H649.758Z" fill="#59C2BB"/>
</svg>
