<svg width="1157" height="248" viewBox="0 0 1157 248" fill="none" xmlns="http://www.w3.org/2000/svg">
<path d="M75.6631 17.0029V19.0029H77.6631V17.0029H75.6631ZM47.3525 17.0029V15.0029H45.3525V17.0029H47.3525ZM47.3525 94V96H49.3525V94H47.3525ZM28.3096 94H26.3096V96H28.3096V94ZM28.3096 17.0029H30.3096V15.0029H28.3096V17.0029ZM0.379883 17.0029H-1.62012V19.0029H0.379883V17.0029ZM0.379883 1.57812V-0.421875H-1.62012V1.57812H0.379883ZM75.6631 1.57812H77.6631V-0.421875H75.6631V1.57812ZM75.6631 15.0029H47.3525V19.0029H75.6631V15.0029ZM45.3525 17.0029V94H49.3525V17.0029H45.3525ZM47.3525 92H28.3096V96H47.3525V92ZM30.3096 94V17.0029H26.3096V94H30.3096ZM28.3096 15.0029H0.379883V19.0029H28.3096V15.0029ZM2.37988 17.0029V1.57812H-1.62012V17.0029H2.37988ZM0.379883 3.57812H75.6631V-0.421875H0.379883V3.57812ZM73.6631 1.57812V17.0029H77.6631V1.57812H73.6631ZM161.801 94V96H163.801V94H161.801ZM142.758 94H140.758V96H142.758V94ZM142.758 54.3906H144.758V52.3906H142.758V54.3906ZM105.624 54.3906V52.3906H103.624V54.3906H105.624ZM105.624 94V96H107.624V94H105.624ZM86.5811 94H84.5811V96H86.5811V94ZM86.5811 1.57812V-0.421875H84.5811V1.57812H86.5811ZM105.624 1.57812H107.624V-0.421875H105.624V1.57812ZM105.624 39.0293H103.624V41.0293H105.624V39.0293ZM142.758 39.0293V41.0293H144.758V39.0293H142.758ZM142.758 1.57812V-0.421875H140.758V1.57812H142.758ZM161.801 1.57812H163.801V-0.421875H161.801V1.57812ZM161.801 92H142.758V96H161.801V92ZM144.758 94V54.3906H140.758V94H144.758ZM142.758 52.3906H105.624V56.3906H142.758V52.3906ZM103.624 54.3906V94H107.624V54.3906H103.624ZM105.624 92H86.5811V96H105.624V92ZM88.5811 94V1.57812H84.5811V94H88.5811ZM86.5811 3.57812H105.624V-0.421875H86.5811V3.57812ZM103.624 1.57812V39.0293H107.624V1.57812H103.624ZM105.624 41.0293H142.758V37.0293H105.624V41.0293ZM144.758 39.0293V1.57812H140.758V39.0293H144.758ZM142.758 3.57812H161.801V-0.421875H142.758V3.57812ZM159.801 1.57812V94H163.801V1.57812H159.801ZM234.101 53.9463V55.9463H236.101V53.9463H234.101ZM197.538 53.9463V51.9463H195.538V53.9463H197.538ZM197.538 78.7021H195.538V80.7021H197.538V78.7021ZM240.448 78.7021H242.448V76.7021H240.448V78.7021ZM240.448 94V96H242.448V94H240.448ZM178.495 94H176.495V96H178.495V94ZM178.495 1.57812V-0.421875H176.495V1.57812H178.495ZM240.321 1.57812H242.321V-0.421875H240.321V1.57812ZM240.321 17.0029V19.0029H242.321V17.0029H240.321ZM197.538 17.0029V15.0029H195.538V17.0029H197.538ZM197.538 39.0293H195.538V41.0293H197.538V39.0293ZM234.101 39.0293H236.101V37.0293H234.101V39.0293ZM234.101 51.9463H197.538V55.9463H234.101V51.9463ZM195.538 53.9463V78.7021H199.538V53.9463H195.538ZM197.538 80.7021H240.448V76.7021H197.538V80.7021ZM238.448 78.7021V94H242.448V78.7021H238.448ZM240.448 92H178.495V96H240.448V92ZM180.495 94V1.57812H176.495V94H180.495ZM178.495 3.57812H240.321V-0.421875H178.495V3.57812ZM238.321 1.57812V17.0029H242.321V1.57812H238.321ZM240.321 15.0029H197.538V19.0029H240.321V15.0029ZM195.538 17.0029V39.0293H199.538V17.0029H195.538ZM197.538 41.0293H234.101V37.0293H197.538V41.0293ZM232.101 39.0293V53.9463H236.101V39.0293H232.101ZM283.485 43.2188L281.668 44.0528L283.479 48.0014L285.301 44.0574L283.485 43.2188ZM302.719 1.57812V-0.421875H301.439L300.903 0.739482L302.719 1.57812ZM323.539 1.57812L325.317 2.49395L326.819 -0.421875H323.539V1.57812ZM293.197 60.4844L291.419 59.5686L291.197 59.9996V60.4844H293.197ZM293.197 94V96H295.197V94H293.197ZM273.837 94H271.837V96H273.837V94ZM273.837 60.4844H275.837V59.9996L275.615 59.5686L273.837 60.4844ZM243.495 1.57812V-0.421875H240.215L241.717 2.49395L243.495 1.57812ZM264.379 1.57812L266.197 0.744052L265.662 -0.421875H264.379V1.57812ZM285.301 44.0574L304.534 2.41677L300.903 0.739482L281.67 42.3801L285.301 44.0574ZM302.719 3.57812H323.539V-0.421875H302.719V3.57812ZM321.761 0.662304L291.419 59.5686L294.975 61.4002L325.317 2.49395L321.761 0.662304ZM291.197 60.4844V94H295.197V60.4844H291.197ZM293.197 92H273.837V96H293.197V92ZM275.837 94V60.4844H271.837V94H275.837ZM275.615 59.5686L245.273 0.662304L241.717 2.49395L272.059 61.4002L275.615 59.5686ZM243.495 3.57812H264.379V-0.421875H243.495V3.57812ZM262.561 2.4122L281.668 44.0528L285.303 42.3847L266.197 0.744052L262.561 2.4122ZM416.532 74.957L418.428 74.3189L417.969 72.957H416.532V74.957ZM383.144 74.957V72.957H381.702L381.246 74.3246L383.144 74.957ZM376.796 94V96H378.237L378.693 94.6325L376.796 94ZM356.547 94L354.673 93.3023L353.668 96H356.547V94ZM390.951 1.57812V-0.421875H389.562L389.077 0.880395L390.951 1.57812ZM408.598 1.57812L410.471 0.877006L409.985 -0.421875H408.598V1.57812ZM443.192 94V96H446.077L445.065 93.2989L443.192 94ZM422.943 94L421.048 94.6381L421.506 96H422.943V94ZM388.285 59.5322L386.387 58.9019L385.514 61.5322H388.285V59.5322ZM411.391 59.5322V61.5322H414.172L413.287 58.8956L411.391 59.5322ZM399.774 24.9375L401.67 24.3009L399.764 18.6234L397.876 24.3071L399.774 24.9375ZM416.532 72.957H383.144V76.957H416.532V72.957ZM381.246 74.3246L374.899 93.3675L378.693 94.6325L385.041 75.5895L381.246 74.3246ZM376.796 92H356.547V96H376.796V92ZM358.421 94.6977L392.826 2.27586L389.077 0.880395L354.673 93.3023L358.421 94.6977ZM390.951 3.57812H408.598V-0.421875H390.951V3.57812ZM406.725 2.27924L441.319 94.7011L445.065 93.2989L410.471 0.877006L406.725 2.27924ZM443.192 92H422.943V96H443.192V92ZM424.839 93.3619L418.428 74.3189L414.637 75.5952L421.048 94.6381L424.839 93.3619ZM388.285 61.5322H411.391V57.5322H388.285V61.5322ZM413.287 58.8956L401.67 24.3009L397.878 25.5741L409.495 60.1689L413.287 58.8956ZM397.876 24.3071L386.387 58.9019L390.183 60.1626L401.672 25.5679L397.876 24.3071ZM486.039 60.167L487.819 59.2552L487.262 58.167H486.039V60.167ZM470.868 60.167V58.167H468.868V60.167H470.868ZM470.868 94V96H472.868V94H470.868ZM451.825 94H449.825V96H451.825V94ZM451.825 1.57812V-0.421875H449.825V1.57812H451.825ZM511.43 8.87793L512.699 7.33248L511.43 8.87793ZM516.19 45.3135L514.514 44.2235L514.511 44.2277L516.19 45.3135ZM503.812 55.3428L502.991 53.5192L501.048 54.3946L502.045 56.2785L503.812 55.3428ZM523.808 93.1113H525.808V92.6146L525.575 92.1756L523.808 93.1113ZM523.808 94V96H525.808V94H523.808ZM503.368 94L501.588 94.9118L502.145 96H503.368V94ZM470.868 44.7422H468.868V46.7422H470.868V44.7422ZM497.338 41.124L498.691 42.5964L498.698 42.5905L498.704 42.5846L497.338 41.124ZM497.528 20.748L496.102 22.1501L496.108 22.1562L496.114 22.1623L497.528 20.748ZM470.868 17.0029V15.0029H468.868V17.0029H470.868ZM486.039 58.167H470.868V62.167H486.039V58.167ZM468.868 60.167V94H472.868V60.167H468.868ZM470.868 92H451.825V96H470.868V92ZM453.825 94V1.57812H449.825V94H453.825ZM451.825 3.57812H486.166V-0.421875H451.825V3.57812ZM486.166 3.57812C496.813 3.57812 504.718 5.95331 510.16 10.4234L512.699 7.33248C506.292 2.06948 497.354 -0.421875 486.166 -0.421875V3.57812ZM510.16 10.4234C515.546 14.8473 518.316 21.1131 518.316 29.5078H522.316C522.316 20.129 519.163 12.6417 512.699 7.33248L510.16 10.4234ZM518.316 29.5078C518.316 35.5226 517.006 40.3885 514.514 44.2235L517.867 46.4035C520.876 41.7749 522.316 36.1037 522.316 29.5078H518.316ZM514.511 44.2277C512.053 48.0292 508.261 51.1458 502.991 53.5192L504.634 57.1664C510.451 54.5463 514.911 50.9767 517.87 46.3993L514.511 44.2277ZM502.045 56.2785L522.04 94.0471L525.575 92.1756L505.58 54.407L502.045 56.2785ZM521.808 93.1113V94H525.808V93.1113H521.808ZM523.808 92H503.368V96H523.808V92ZM505.148 93.0882L487.819 59.2552L484.259 61.0787L501.588 94.9118L505.148 93.0882ZM470.868 46.7422H486.229V42.7422H470.868V46.7422ZM486.229 46.7422C491.338 46.7422 495.588 45.4498 498.691 42.5964L495.984 39.6517C493.841 41.6225 490.684 42.7422 486.229 42.7422V46.7422ZM498.704 42.5846C501.808 39.6806 503.273 35.745 503.273 31.0312H499.273C499.273 34.8656 498.115 37.6586 495.972 39.6635L498.704 42.5846ZM503.273 31.0312C503.273 26.274 501.898 22.2896 498.943 19.3338L496.114 22.1623C498.152 24.2 499.273 27.0711 499.273 31.0312H503.273ZM498.955 19.346C495.98 16.3201 491.575 15.0029 486.166 15.0029V19.0029C490.998 19.0029 494.168 20.1826 496.102 22.1501L498.955 19.346ZM486.166 15.0029H470.868V19.0029H486.166V15.0029ZM468.868 17.0029V44.7422H472.868V17.0029H468.868ZM590.458 53.9463V55.9463H592.458V53.9463H590.458ZM553.896 53.9463V51.9463H551.896V53.9463H553.896ZM553.896 78.7021H551.896V80.7021H553.896V78.7021ZM596.806 78.7021H598.806V76.7021H596.806V78.7021ZM596.806 94V96H598.806V94H596.806ZM534.853 94H532.853V96H534.853V94ZM534.853 1.57812V-0.421875H532.853V1.57812H534.853ZM596.679 1.57812H598.679V-0.421875H596.679V1.57812ZM596.679 17.0029V19.0029H598.679V17.0029H596.679ZM553.896 17.0029V15.0029H551.896V17.0029H553.896ZM553.896 39.0293H551.896V41.0293H553.896V39.0293ZM590.458 39.0293H592.458V37.0293H590.458V39.0293ZM590.458 51.9463H553.896V55.9463H590.458V51.9463ZM551.896 53.9463V78.7021H555.896V53.9463H551.896ZM553.896 80.7021H596.806V76.7021H553.896V80.7021ZM594.806 78.7021V94H598.806V78.7021H594.806ZM596.806 92H534.853V96H596.806V92ZM536.853 94V1.57812H532.853V94H536.853ZM534.853 3.57812H596.679V-0.421875H534.853V3.57812ZM594.679 1.57812V17.0029H598.679V1.57812H594.679ZM596.679 15.0029H553.896V19.0029H596.679V15.0029ZM551.896 17.0029V39.0293H555.896V17.0029H551.896ZM553.896 41.0293H590.458V37.0293H553.896V41.0293ZM588.458 39.0293V53.9463H592.458V39.0293H588.458ZM674.564 60.167L676.345 59.2552L675.787 58.167H674.564V60.167ZM659.394 60.167V58.167H657.394V60.167H659.394ZM659.394 94V96H661.394V94H659.394ZM640.351 94H638.351V96H640.351V94ZM640.351 1.57812V-0.421875H638.351V1.57812H640.351ZM699.955 8.87793L701.225 7.33248L699.955 8.87793ZM704.716 45.3135L703.039 44.2235L703.036 44.2277L704.716 45.3135ZM692.338 55.3428L691.517 53.5192L689.573 54.3946L690.57 56.2785L692.338 55.3428ZM712.333 93.1113H714.333V92.6146L714.101 92.1756L712.333 93.1113ZM712.333 94V96H714.333V94H712.333ZM691.894 94L690.113 94.9118L690.671 96H691.894V94ZM659.394 44.7422H657.394V46.7422H659.394V44.7422ZM685.863 41.124L687.217 42.5964L687.223 42.5905L687.23 42.5846L685.863 41.124ZM686.054 20.748L684.627 22.1501L684.633 22.1562L684.639 22.1623L686.054 20.748ZM659.394 17.0029V15.0029H657.394V17.0029H659.394ZM674.564 58.167H659.394V62.167H674.564V58.167ZM657.394 60.167V94H661.394V60.167H657.394ZM659.394 92H640.351V96H659.394V92ZM642.351 94V1.57812H638.351V94H642.351ZM640.351 3.57812H674.691V-0.421875H640.351V3.57812ZM674.691 3.57812C685.339 3.57812 693.244 5.95331 698.686 10.4234L701.225 7.33248C694.817 2.06948 685.88 -0.421875 674.691 -0.421875V3.57812ZM698.686 10.4234C704.071 14.8473 706.842 21.1131 706.842 29.5078H710.842C710.842 20.129 707.688 12.6417 701.225 7.33248L698.686 10.4234ZM706.842 29.5078C706.842 35.5226 705.532 40.3885 703.039 44.2235L706.393 46.4035C709.401 41.7749 710.842 36.1037 710.842 29.5078H706.842ZM703.036 44.2277C700.579 48.0292 696.786 51.1458 691.517 53.5192L693.159 57.1664C698.977 54.5463 703.436 50.9767 706.395 46.3993L703.036 44.2277ZM690.57 56.2785L710.565 94.0471L714.101 92.1756L694.105 54.407L690.57 56.2785ZM710.333 93.1113V94H714.333V93.1113H710.333ZM712.333 92H691.894V96H712.333V92ZM693.674 93.0882L676.345 59.2552L672.784 61.0787L690.113 94.9118L693.674 93.0882ZM659.394 46.7422H674.755V42.7422H659.394V46.7422ZM674.755 46.7422C679.864 46.7422 684.113 45.4498 687.217 42.5964L684.51 39.6517C682.366 41.6225 679.21 42.7422 674.755 42.7422V46.7422ZM687.23 42.5846C690.334 39.6806 691.799 35.745 691.799 31.0312H687.799C687.799 34.8656 686.64 37.6586 684.497 39.6635L687.23 42.5846ZM691.799 31.0312C691.799 26.274 690.424 22.2896 687.468 19.3338L684.639 22.1623C686.677 24.2 687.799 27.0711 687.799 31.0312H691.799ZM687.48 19.346C684.505 16.3201 680.1 15.0029 674.691 15.0029V19.0029C679.524 19.0029 682.693 20.1826 684.627 22.1501L687.48 19.346ZM674.691 15.0029H659.394V19.0029H674.691V15.0029ZM657.394 17.0029V44.7422H661.394V17.0029H657.394ZM780.634 89.6836L779.58 87.9836L779.575 87.9869L780.634 89.6836ZM725.6 74.0049L723.798 74.8725L723.8 74.8769L725.6 74.0049ZM720.585 50.3916L718.585 50.3916L718.585 50.4011L720.585 50.3916ZM725.473 21.8271L723.667 20.9681L723.664 20.9729L725.473 21.8271ZM739.374 5.89453L740.424 7.59661L740.428 7.59455L739.374 5.89453ZM780.443 5.89453L779.384 7.5912L779.391 7.59558L779.399 7.59991L780.443 5.89453ZM794.345 21.8271L792.534 22.6771L792.537 22.6838L792.541 22.6905L794.345 21.8271ZM745.15 23.541L746.788 24.6889L746.793 24.6823L745.15 23.541ZM739.882 45.377L737.882 45.3681V45.377H739.882ZM745.087 71.8467L746.751 70.7373L745.087 71.8467ZM774.794 72.1641L776.443 73.2959L776.447 73.2894L774.794 72.1641ZM779.999 50.2012L781.999 50.21V50.2012H779.999ZM797.296 49.8838C797.296 58.7468 795.73 66.4235 792.661 72.965L796.282 74.6639C799.646 67.4945 801.296 59.2174 801.296 49.8838H797.296ZM792.661 72.965C789.597 79.4957 785.236 84.4785 779.58 87.9836L781.687 91.3836C788.05 87.4408 792.914 81.8441 796.282 74.6639L792.661 72.965ZM779.575 87.9869C773.957 91.4929 767.476 93.2695 760.067 93.2695V97.2695C768.147 97.2695 775.377 95.3222 781.693 91.3803L779.575 87.9869ZM760.067 93.2695C752.743 93.2695 746.277 91.514 740.609 88.0417L738.52 91.4524C744.87 95.3434 752.072 97.2695 760.067 97.2695V93.2695ZM740.609 88.0417C734.951 84.5749 730.546 79.6284 727.4 73.1329L723.8 74.8769C727.254 82.0076 732.16 87.556 738.52 91.4524L740.609 88.0417ZM727.402 73.1373C724.25 66.591 722.626 59.0213 722.585 50.3821L718.585 50.4011C718.628 59.5354 720.348 67.7079 723.798 74.8725L727.402 73.1373ZM722.585 50.3916V45.8213H718.585V50.3916H722.585ZM722.585 45.8213C722.585 36.9622 724.171 29.2655 727.281 22.6814L723.664 20.9729C720.258 28.1843 718.585 36.4838 718.585 45.8213H722.585ZM727.279 22.6862C730.431 16.0593 734.817 11.0566 740.424 7.5966L738.324 4.19246C731.998 8.09574 727.116 13.7148 723.667 20.9681L727.279 22.6862ZM740.428 7.59455C746.092 4.0841 752.576 2.30859 759.94 2.30859V-1.69141C751.901 -1.69141 744.674 0.257042 738.32 4.19451L740.428 7.59455ZM759.94 2.30859C767.305 2.30859 773.765 4.08412 779.384 7.5912L781.502 4.19786C775.188 0.257022 767.98 -1.69141 759.94 -1.69141V2.30859ZM779.399 7.59991C785.045 11.0594 789.427 16.0584 792.534 22.6771L796.155 20.9771C792.746 13.7157 787.86 8.09295 781.488 4.18916L779.399 7.59991ZM792.541 22.6905C795.691 29.2735 797.296 36.9461 797.296 45.7578H801.296C801.296 36.4576 799.6 28.1764 796.149 20.9638L792.541 22.6905ZM797.296 45.7578V49.8838H801.296V45.7578H797.296ZM781.999 45.6943C781.999 35.8165 780.24 27.9825 776.441 22.4697L773.147 24.7393C776.288 29.2981 777.999 36.1907 777.999 45.6943H781.999ZM776.441 22.4697C772.575 16.8597 766.99 14.0508 759.94 14.0508V18.0508C765.755 18.0508 770.073 20.2777 773.147 24.7393L776.441 22.4697ZM759.94 14.0508C752.935 14.0508 747.374 16.8367 743.508 22.3997L746.793 24.6823C749.867 20.2584 754.166 18.0508 759.94 18.0508V14.0508ZM743.513 22.3932C739.708 27.8223 737.925 35.5753 737.882 45.3681L741.882 45.3858C741.923 35.9663 743.653 29.1621 746.788 24.6889L743.513 22.3932ZM737.882 45.377V49.8838H741.882V45.377H737.882ZM737.882 49.8838C737.882 59.5275 739.649 67.2948 743.423 72.9561L746.751 70.7373C743.585 65.9884 741.882 59.1138 741.882 49.8838H737.882ZM743.423 72.9561C747.282 78.7448 752.915 81.6543 760.067 81.6543V77.6543C754.186 77.6543 749.832 75.3587 746.751 70.7373L743.423 72.9561ZM760.067 81.6543C767.073 81.6543 772.618 78.8674 776.443 73.2959L773.145 71.0322C770.114 75.4477 765.841 77.6543 760.067 77.6543V81.6543ZM776.447 73.2894C780.194 67.7845 781.956 60.0029 781.999 50.21L777.999 50.1924C777.958 59.6117 776.249 66.472 773.141 71.0387L776.447 73.2894ZM781.999 50.2012V45.6943H777.999V50.2012H781.999ZM832.177 78.7021H830.177V80.7021H832.177V78.7021ZM872.611 78.7021H874.611V76.7021H872.611V78.7021ZM872.611 94V96H874.611V94H872.611ZM813.134 94H811.134V96H813.134V94ZM813.134 1.57812V-0.421875H811.134V1.57812H813.134ZM832.177 1.57812H834.177V-0.421875H832.177V1.57812ZM832.177 80.7021H872.611V76.7021H832.177V80.7021ZM870.611 78.7021V94H874.611V78.7021H870.611ZM872.611 92H813.134V96H872.611V92ZM815.134 94V1.57812H811.134V94H815.134ZM813.134 3.57812H832.177V-0.421875H813.134V3.57812ZM830.177 1.57812V78.7021H834.177V1.57812H830.177ZM902.636 78.7021H900.636V80.7021H902.636V78.7021ZM943.07 78.7021H945.07V76.7021H943.07V78.7021ZM943.07 94V96H945.07V94H943.07ZM883.593 94H881.593V96H883.593V94ZM883.593 1.57812V-0.421875H881.593V1.57812H883.593ZM902.636 1.57812H904.636V-0.421875H902.636V1.57812ZM902.636 80.7021H943.07V76.7021H902.636V80.7021ZM941.07 78.7021V94H945.07V78.7021H941.07ZM943.07 92H883.593V96H943.07V92ZM885.593 94V1.57812H881.593V94H885.593ZM883.593 3.57812H902.636V-0.421875H883.593V3.57812ZM900.636 1.57812V78.7021H904.636V1.57812H900.636ZM974.301 94V96H976.301V94H974.301ZM955.258 94H953.258V96H955.258V94ZM955.258 1.57812V-0.421875H953.258V1.57812H955.258ZM974.301 1.57812H976.301V-0.421875H974.301V1.57812ZM974.301 92H955.258V96H974.301V92ZM957.258 94V1.57812H953.258V94H957.258ZM955.258 3.57812H974.301V-0.421875H955.258V3.57812ZM972.301 1.57812V94H976.301V1.57812H972.301ZM1067.17 94V96H1069.17V94H1067.17ZM1048.12 94L1046.42 95.041L1047 96H1048.12V94ZM1011.05 33.1895L1012.76 32.1484L1009.05 26.0663V33.1895H1011.05ZM1011.05 94V96H1013.05V94H1011.05ZM992.011 94H990.011V96H992.011V94ZM992.011 1.57812V-0.421875H990.011V1.57812H992.011ZM1011.05 1.57812L1012.76 0.537385L1012.18 -0.421875H1011.05V1.57812ZM1048.19 62.5156L1046.48 63.5564L1050.19 69.6411V62.5156H1048.19ZM1048.19 1.57812V-0.421875H1046.19V1.57812H1048.19ZM1067.17 1.57812H1069.17V-0.421875H1067.17V1.57812ZM1067.17 92H1048.12V96H1067.17V92ZM1049.83 92.959L1012.76 32.1484L1009.35 34.2305L1046.42 95.041L1049.83 92.959ZM1009.05 33.1895V94H1013.05V33.1895H1009.05ZM1011.05 92H992.011V96H1011.05V92ZM994.011 94V1.57812H990.011V94H994.011ZM992.011 3.57812H1011.05V-0.421875H992.011V3.57812ZM1009.35 2.61887L1046.48 63.5564L1049.9 61.4749L1012.76 0.537385L1009.35 2.61887ZM1050.19 62.5156V1.57812H1046.19V62.5156H1050.19ZM1048.19 3.57812H1067.17V-0.421875H1048.19V3.57812ZM1065.17 1.57812V94H1069.17V1.57812H1065.17ZM1156.92 82.3203L1158.46 83.6022L1158.92 83.0456V82.3203H1156.92ZM1142.39 91.9053L1143.06 93.7882L1143.07 93.7841L1142.39 91.9053ZM1100.49 90.0645L1099.48 91.7911L1099.49 91.7953L1099.5 91.7994L1100.49 90.0645ZM1086.53 74.8301L1084.73 75.7108L1084.74 75.7199L1086.53 74.8301ZM1081.51 51.4072H1079.51V51.4167L1079.51 51.4261L1081.51 51.4072ZM1086.15 21.1924L1084.33 20.3528L1084.33 20.3579L1086.15 21.1924ZM1099.6 5.7041L1100.64 7.4125L1100.65 7.41036L1099.6 5.7041ZM1145.94 8.17969L1144.65 9.70409L1144.65 9.70924L1145.94 8.17969ZM1156.92 30.9678V32.9678H1159.16L1158.91 30.7404L1156.92 30.9678ZM1138.39 30.9678L1136.41 31.2838L1136.68 32.9678H1138.39V30.9678ZM1132.74 19.3516L1131.44 20.8732L1131.45 20.8779L1131.45 20.8825L1132.74 19.3516ZM1106.01 22.9697L1104.37 21.8276L1106.01 22.9697ZM1100.87 44.6787L1098.87 44.6699V44.6787H1100.87ZM1137.88 75.4014L1139.29 76.8156L1139.88 76.2298V75.4014H1137.88ZM1137.88 59.4688H1139.88V57.4688H1137.88V59.4688ZM1120.55 59.4688H1118.55V61.4688H1120.55V59.4688ZM1120.55 45.4404V43.4404H1118.55V45.4404H1120.55ZM1156.92 45.4404H1158.92V43.4404H1156.92V45.4404ZM1155.39 81.0384C1152.24 84.8138 1147.71 87.8325 1141.7 90.0264L1143.07 93.7841C1149.59 91.4077 1154.76 88.0364 1158.46 83.6022L1155.39 81.0384ZM1141.71 90.0224C1135.69 92.1774 1128.99 93.2695 1121.57 93.2695V97.2695C1129.38 97.2695 1136.55 96.1189 1143.06 93.7882L1141.71 90.0224ZM1121.57 93.2695C1113.87 93.2695 1107.19 91.6018 1101.49 88.3295L1099.5 91.7994C1105.89 95.4673 1113.27 97.2695 1121.57 97.2695V93.2695ZM1101.5 88.3378C1095.85 85.0353 1091.46 80.259 1088.32 73.9402L1084.74 75.7199C1088.2 82.6889 1093.11 88.0688 1099.48 91.7911L1101.5 88.3378ZM1088.32 73.9494C1085.22 67.6249 1083.6 60.1232 1083.51 51.3884L1079.51 51.4261C1079.6 60.6339 1081.32 68.7475 1084.73 75.7108L1088.32 73.9494ZM1083.51 51.4072V45.123H1079.51V51.4072H1083.51ZM1083.51 45.123C1083.51 36.1169 1085.02 28.4375 1087.96 22.0269L1084.33 20.3579C1081.09 27.4043 1079.51 35.6786 1079.51 45.123H1083.51ZM1087.96 22.0319C1090.94 15.5869 1095.17 10.7421 1100.64 7.4125L1098.56 3.9957C1092.35 7.77549 1087.61 13.2562 1084.33 20.3528L1087.96 22.0319ZM1100.65 7.41036C1106.17 4.03146 1112.68 2.30859 1120.23 2.30859V-1.69141C1112.05 -1.69141 1104.8 0.182735 1098.56 3.99784L1100.65 7.41036ZM1120.23 2.30859C1130.89 2.30859 1138.94 4.85715 1144.65 9.70408L1147.24 6.65529C1140.59 1.00743 1131.5 -1.69141 1120.23 -1.69141V2.30859ZM1144.65 9.70924C1150.35 14.5097 1153.84 21.5855 1154.94 31.1951L1158.91 30.7404C1157.72 20.3761 1153.89 12.2598 1147.23 6.65014L1144.65 9.70924ZM1156.92 28.9678H1138.39V32.9678H1156.92V28.9678ZM1140.36 30.6518C1139.47 25.078 1137.44 20.6891 1134.03 17.8206L1131.45 20.8825C1133.88 22.9229 1135.61 26.2781 1136.41 31.2838L1140.36 30.6518ZM1134.04 17.8299C1130.69 14.9747 1126.19 13.6699 1120.8 13.6699V17.6699C1125.57 17.6699 1129.03 18.8196 1131.44 20.8732L1134.04 17.8299ZM1120.8 13.6699C1113.75 13.6699 1108.17 16.368 1104.37 21.8276L1107.66 24.1119C1110.63 19.8383 1114.91 17.6699 1120.8 17.6699V13.6699ZM1104.37 21.8276C1100.65 27.1754 1098.92 34.8879 1098.87 44.6699L1102.87 44.6875C1102.91 35.2573 1104.61 28.4971 1107.66 24.1119L1104.37 21.8276ZM1098.87 44.6787V50.582H1102.87V44.6787H1098.87ZM1098.87 50.582C1098.87 60.474 1100.74 68.2953 1104.79 73.7383L1108 71.3515C1104.68 66.8922 1102.87 60.0715 1102.87 50.582H1098.87ZM1104.79 73.7383C1108.91 79.2791 1114.95 81.9717 1122.58 81.9717V77.9717C1116 77.9717 1111.24 75.7131 1108 71.3515L1104.79 73.7383ZM1122.58 81.9717C1129.93 81.9717 1135.69 80.4203 1139.29 76.8156L1136.47 73.9872C1133.98 76.4762 1129.53 77.9717 1122.58 77.9717V81.9717ZM1139.88 75.4014V59.4688H1135.88V75.4014H1139.88ZM1137.88 57.4688H1120.55V61.4688H1137.88V57.4688ZM1122.55 59.4688V45.4404H1118.55V59.4688H1122.55ZM1120.55 47.4404H1156.92V43.4404H1120.55V47.4404ZM1154.92 45.4404V82.3203H1158.92V45.4404H1154.92ZM301.894 195.219L300.076 196.053L301.888 200.001L303.709 196.057L301.894 195.219ZM321.127 153.578V151.578H319.848L319.311 152.739L321.127 153.578ZM341.947 153.578L343.725 154.494L345.227 151.578H341.947V153.578ZM311.605 212.484L309.827 211.569L309.605 212V212.484H311.605ZM311.605 246V248H313.605V246H311.605ZM292.245 246H290.245V248H292.245V246ZM292.245 212.484H294.245V212L294.023 211.569L292.245 212.484ZM261.903 153.578V151.578H258.623L260.125 154.494L261.903 153.578ZM282.787 153.578L284.605 152.744L284.07 151.578H282.787V153.578ZM303.709 196.057L322.943 154.417L319.311 152.739L300.078 194.38L303.709 196.057ZM321.127 155.578H341.947V151.578H321.127V155.578ZM340.169 152.662L309.827 211.569L313.383 213.4L343.725 154.494L340.169 152.662ZM309.605 212.484V246H313.605V212.484H309.605ZM311.605 244H292.245V248H311.605V244ZM294.245 246V212.484H290.245V246H294.245ZM294.023 211.569L263.681 152.662L260.125 154.494L290.467 213.4L294.023 211.569ZM261.903 155.578H282.787V151.578H261.903V155.578ZM280.969 154.412L300.076 196.053L303.711 194.385L284.605 152.744L280.969 154.412ZM405.741 241.684L404.688 239.984L404.682 239.987L405.741 241.684ZM350.707 226.005L348.905 226.873L348.907 226.877L350.707 226.005ZM345.692 202.392L343.692 202.392L343.692 202.401L345.692 202.392ZM350.58 173.827L348.774 172.968L348.772 172.973L350.58 173.827ZM364.481 157.895L365.532 159.597L365.535 159.595L364.481 157.895ZM405.551 157.895L404.492 159.591L404.499 159.596L404.506 159.6L405.551 157.895ZM419.452 173.827L417.642 174.677L417.645 174.684L417.648 174.69L419.452 173.827ZM370.258 175.541L371.896 176.689L371.9 176.682L370.258 175.541ZM364.989 197.377L362.989 197.368V197.377H364.989ZM370.194 223.847L371.858 222.737L370.194 223.847ZM399.901 224.164L401.55 225.296L401.555 225.289L399.901 224.164ZM405.106 202.201L407.106 202.21V202.201H405.106ZM422.403 201.884C422.403 210.747 420.837 218.424 417.768 224.965L421.39 226.664C424.753 219.494 426.403 211.217 426.403 201.884H422.403ZM417.768 224.965C414.705 231.496 410.344 236.478 404.688 239.984L406.795 243.384C413.157 239.441 418.021 233.844 421.39 226.664L417.768 224.965ZM404.682 239.987C399.065 243.493 392.584 245.27 385.175 245.27V249.27C393.254 249.27 400.484 247.322 406.8 243.38L404.682 239.987ZM385.175 245.27C377.851 245.27 371.384 243.514 365.717 240.042L363.627 243.452C369.978 247.343 377.18 249.27 385.175 249.27V245.27ZM365.717 240.042C360.058 236.575 355.654 231.628 352.507 225.133L348.907 226.877C352.362 234.008 357.267 239.556 363.627 243.452L365.717 240.042ZM352.509 225.137C349.357 218.591 347.733 211.021 347.692 202.382L343.692 202.401C343.736 211.535 345.455 219.708 348.905 226.873L352.509 225.137ZM347.692 202.392V197.821H343.692V202.392H347.692ZM347.692 197.821C347.692 188.962 349.278 181.266 352.388 174.681L348.772 172.973C345.365 180.184 343.692 188.484 343.692 197.821H347.692ZM352.386 174.686C355.538 168.059 359.924 163.057 365.532 159.597L363.431 156.192C357.105 160.096 352.224 165.715 348.774 172.968L352.386 174.686ZM365.535 159.595C371.2 156.084 377.684 154.309 385.048 154.309V150.309C377.008 150.309 369.782 152.257 363.428 156.195L365.535 159.595ZM385.048 154.309C392.412 154.309 398.873 156.084 404.492 159.591L406.61 156.198C400.295 152.257 393.087 150.309 385.048 150.309V154.309ZM404.506 159.6C410.152 163.059 414.534 168.058 417.642 174.677L421.263 172.977C417.853 165.716 412.967 160.093 406.596 156.189L404.506 159.6ZM417.648 174.69C420.798 181.273 422.403 188.946 422.403 197.758H426.403C426.403 188.458 424.708 180.176 421.256 172.964L417.648 174.69ZM422.403 197.758V201.884H426.403V197.758H422.403ZM407.106 197.694C407.106 187.816 405.347 179.982 401.548 174.47L398.254 176.739C401.396 181.298 403.106 188.191 403.106 197.694H407.106ZM401.548 174.47C397.683 168.86 392.098 166.051 385.048 166.051V170.051C390.863 170.051 395.18 172.278 398.254 176.739L401.548 174.47ZM385.048 166.051C378.042 166.051 372.481 168.837 368.615 174.4L371.9 176.682C374.974 172.258 379.273 170.051 385.048 170.051V166.051ZM368.62 174.393C364.815 179.822 363.032 187.575 362.989 197.368L366.989 197.386C367.031 187.966 368.761 181.162 371.896 176.689L368.62 174.393ZM362.989 197.377V201.884H366.989V197.377H362.989ZM362.989 201.884C362.989 211.528 364.756 219.295 368.53 224.956L371.858 222.737C368.693 217.988 366.989 211.114 366.989 201.884H362.989ZM368.53 224.956C372.389 230.745 378.023 233.654 385.175 233.654V229.654C379.293 229.654 374.939 227.359 371.858 222.737L368.53 224.956ZM385.175 233.654C392.181 233.654 397.726 230.867 401.55 225.296L398.252 223.032C395.221 227.448 390.949 229.654 385.175 229.654V233.654ZM401.555 225.289C405.302 219.785 407.063 212.003 407.106 202.21L403.106 202.192C403.065 211.612 401.356 218.472 398.248 223.039L401.555 225.289ZM407.106 202.201V197.694H403.106V202.201H407.106ZM508.192 153.578H510.192V151.578H508.192V153.578ZM498.671 238.446L497.311 236.979L497.307 236.984L498.671 238.446ZM437.353 215.15H435.353V215.163L435.353 215.176L437.353 215.15ZM437.353 153.578V151.578H435.353V153.578H437.353ZM456.396 153.578H458.396V151.578H456.396V153.578ZM460.712 227.846L459.319 229.281L459.33 229.291L459.341 229.301L460.712 227.846ZM489.086 215.087L491.086 215.117L491.086 215.102V215.087H489.086ZM489.086 153.578V151.578H487.086V153.578H489.086ZM506.192 153.578V214.452H510.192V153.578H506.192ZM506.192 214.452C506.192 224.112 503.181 231.54 497.311 236.979L500.03 239.913C506.856 233.588 510.192 225.02 510.192 214.452H506.192ZM497.307 236.984C491.464 242.434 483.369 245.27 472.772 245.27V249.27C484.096 249.27 493.267 246.223 500.035 239.909L497.307 236.984ZM472.772 245.27C462.341 245.27 454.294 242.516 448.402 237.214L445.727 240.187C452.531 246.311 461.622 249.27 472.772 249.27V245.27ZM448.402 237.214C442.541 231.938 439.474 224.657 439.352 215.125L435.353 215.176C435.485 225.617 438.893 234.037 445.727 240.187L448.402 237.214ZM439.353 215.15V153.578H435.353V215.15H439.353ZM437.353 155.578H456.396V151.578H437.353V155.578ZM454.396 153.578V214.579H458.396V153.578H454.396ZM454.396 214.579C454.396 220.899 455.894 225.956 459.319 229.281L462.105 226.411C459.775 224.149 458.396 220.362 458.396 214.579H454.396ZM459.341 229.301C462.726 232.491 467.289 233.972 472.772 233.972V229.972C468.015 229.972 464.538 228.702 462.083 226.39L459.341 229.301ZM472.772 233.972C478.463 233.972 483.101 232.471 486.319 229.14C489.52 225.827 490.997 221.032 491.086 215.117L487.086 215.057C487.006 220.399 485.679 224.045 483.442 226.361C481.222 228.658 477.789 229.972 472.772 229.972V233.972ZM491.086 215.087V153.578H487.086V215.087H491.086ZM489.086 155.578H508.192V151.578H489.086V155.578ZM558.021 212.167L559.802 211.255L559.244 210.167H558.021V212.167ZM542.851 212.167V210.167H540.851V212.167H542.851ZM542.851 246V248H544.851V246H542.851ZM523.808 246H521.808V248H523.808V246ZM523.808 153.578V151.578H521.808V153.578H523.808ZM583.412 160.878L584.682 159.332L583.412 160.878ZM588.173 197.313L586.496 196.223L586.493 196.228L588.173 197.313ZM575.795 207.343L574.974 205.519L573.03 206.395L574.027 208.279L575.795 207.343ZM595.79 245.111H597.79V244.615L597.558 244.176L595.79 245.111ZM595.79 246V248H597.79V246H595.79ZM575.351 246L573.57 246.912L574.128 248H575.351V246ZM542.851 196.742H540.851V198.742H542.851V196.742ZM569.32 193.124L570.674 194.596L570.68 194.59L570.687 194.585L569.32 193.124ZM569.511 172.748L568.084 174.15L568.09 174.156L568.097 174.162L569.511 172.748ZM542.851 169.003V167.003H540.851V169.003H542.851ZM558.021 210.167H542.851V214.167H558.021V210.167ZM540.851 212.167V246H544.851V212.167H540.851ZM542.851 244H523.808V248H542.851V244ZM525.808 246V153.578H521.808V246H525.808ZM523.808 155.578H558.148V151.578H523.808V155.578ZM558.148 155.578C568.796 155.578 576.701 157.953 582.143 162.423L584.682 159.332C578.274 154.069 569.337 151.578 558.148 151.578V155.578ZM582.143 162.423C587.528 166.847 590.299 173.113 590.299 181.508H594.299C594.299 172.129 591.145 164.642 584.682 159.332L582.143 162.423ZM590.299 181.508C590.299 187.523 588.989 192.388 586.496 196.223L589.85 198.403C592.858 193.775 594.299 188.104 594.299 181.508H590.299ZM586.493 196.228C584.036 200.029 580.243 203.146 574.974 205.519L576.616 209.166C582.434 206.546 586.893 202.977 589.852 198.399L586.493 196.228ZM574.027 208.279L594.022 246.047L597.558 244.176L577.562 206.407L574.027 208.279ZM593.79 245.111V246H597.79V245.111H593.79ZM595.79 244H575.351V248H595.79V244ZM577.131 245.088L559.802 211.255L556.241 213.079L573.57 246.912L577.131 245.088ZM542.851 198.742H558.212V194.742H542.851V198.742ZM558.212 198.742C563.321 198.742 567.57 197.45 570.674 194.596L567.967 191.652C565.823 193.622 562.667 194.742 558.212 194.742V198.742ZM570.687 194.585C573.791 191.681 575.256 187.745 575.256 183.031H571.256C571.256 186.866 570.097 189.659 567.954 191.663L570.687 194.585ZM575.256 183.031C575.256 178.274 573.881 174.29 570.925 171.334L568.097 174.162C570.134 176.2 571.256 179.071 571.256 183.031H575.256ZM570.937 171.346C567.962 168.32 563.557 167.003 558.148 167.003V171.003C562.981 171.003 566.15 172.183 568.084 174.15L570.937 171.346ZM558.148 167.003H542.851V171.003H558.148V167.003ZM540.851 169.003V196.742H544.851V169.003H540.851ZM711.19 219.34L709.242 219.789L713.156 219.712L711.19 219.34ZM723.632 153.578V151.578H721.975L721.667 153.206L723.632 153.578ZM742.611 153.578L744.564 154.011L745.104 151.578H742.611V153.578ZM722.108 246V248H723.713L724.061 246.433L722.108 246ZM702.938 246L700.995 246.473L701.367 248H702.938V246ZM687.895 184.174L689.838 183.701H685.951L687.895 184.174ZM672.851 246V248H674.422L674.794 246.473L672.851 246ZM653.681 246L651.728 246.433L652.076 248H653.681V246ZM633.178 153.578V151.578H630.685L631.225 154.011L633.178 153.578ZM652.157 153.578L654.122 153.204L653.812 151.578H652.157V153.578ZM664.662 219.213L662.697 219.587L666.61 219.665L664.662 219.213ZM679.896 153.578V151.578H678.308L677.948 153.126L679.896 153.578ZM696.02 153.578L697.968 153.129L697.611 151.578H696.02V153.578ZM713.156 219.712L725.597 153.95L721.667 153.206L709.225 218.968L713.156 219.712ZM723.632 155.578H742.611V151.578H723.632V155.578ZM740.659 153.145L720.156 245.567L724.061 246.433L744.564 154.011L740.659 153.145ZM722.108 244H702.938V248H722.108V244ZM704.882 245.527L689.838 183.701L685.951 184.647L700.995 246.473L704.882 245.527ZM685.951 183.701L670.907 245.527L674.794 246.473L689.838 184.647L685.951 183.701ZM672.851 244H653.681V248H672.851V244ZM655.633 245.567L635.13 153.145L631.225 154.011L651.728 246.433L655.633 245.567ZM633.178 155.578H652.157V151.578H633.178V155.578ZM650.193 153.952L662.697 219.587L666.627 218.839L654.122 153.204L650.193 153.952ZM666.61 219.665L681.845 154.03L677.948 153.126L662.714 218.761L666.61 219.665ZM679.896 155.578H696.02V151.578H679.896V155.578ZM694.071 154.028L709.242 219.789L713.139 218.89L697.968 153.129L694.071 154.028ZM802.343 226.957L804.238 226.319L803.78 224.957H802.343V226.957ZM768.954 226.957V224.957H767.513L767.057 226.325L768.954 226.957ZM762.606 246V248H764.048L764.504 246.632L762.606 246ZM742.357 246L740.483 245.302L739.479 248H742.357V246ZM776.762 153.578V151.578H775.372L774.887 152.88L776.762 153.578ZM794.408 153.578L796.281 152.877L795.795 151.578H794.408V153.578ZM829.003 246V248H831.887L830.876 245.299L829.003 246ZM808.754 246L806.858 246.638L807.317 248H808.754V246ZM774.096 211.532L772.198 210.902L771.324 213.532H774.096V211.532ZM797.201 211.532V213.532H799.982L799.097 210.896L797.201 211.532ZM785.585 176.938L787.481 176.301L785.575 170.623L783.687 176.307L785.585 176.938ZM802.343 224.957H768.954V228.957H802.343V224.957ZM767.057 226.325L760.709 245.368L764.504 246.632L770.851 227.589L767.057 226.325ZM762.606 244H742.357V248H762.606V244ZM744.232 246.698L778.636 154.276L774.887 152.88L740.483 245.302L744.232 246.698ZM776.762 155.578H794.408V151.578H776.762V155.578ZM792.535 154.279L827.13 246.701L830.876 245.299L796.281 152.877L792.535 154.279ZM829.003 244H808.754V248H829.003V244ZM810.649 245.362L804.238 226.319L800.447 227.595L806.858 246.638L810.649 245.362ZM774.096 213.532H797.201V209.532H774.096V213.532ZM799.097 210.896L787.481 176.301L783.689 177.574L795.305 212.169L799.097 210.896ZM783.687 176.307L772.198 210.902L775.994 212.163L787.483 177.568L783.687 176.307ZM859.979 195.219L858.162 196.053L859.973 200.001L861.795 196.057L859.979 195.219ZM879.213 153.578V151.578H877.934L877.397 152.739L879.213 153.578ZM900.033 153.578L901.811 154.494L903.313 151.578H900.033V153.578ZM869.691 212.484L867.913 211.569L867.691 212V212.484H869.691ZM869.691 246V248H871.691V246H869.691ZM850.331 246H848.331V248H850.331V246ZM850.331 212.484H852.331V212L852.109 211.569L850.331 212.484ZM819.989 153.578V151.578H816.709L818.211 154.494L819.989 153.578ZM840.873 153.578L842.691 152.744L842.156 151.578H840.873V153.578ZM861.795 196.057L881.029 154.417L877.397 152.739L858.164 194.38L861.795 196.057ZM879.213 155.578H900.033V151.578H879.213V155.578ZM898.255 152.662L867.913 211.569L871.469 213.4L901.811 154.494L898.255 152.662ZM867.691 212.484V246H871.691V212.484H867.691ZM869.691 244H850.331V248H869.691V244ZM852.331 246V212.484H848.331V246H852.331ZM852.109 211.569L821.767 152.662L818.211 154.494L848.553 213.4L852.109 211.569ZM819.989 155.578H840.873V151.578H819.989V155.578ZM839.055 154.412L858.162 196.053L861.797 194.385L842.691 152.744L839.055 154.412Z" fill="#59C2BB"/>
</svg>
