<svg width="1440" height="381" viewBox="0 0 1440 381" fill="none" xmlns="http://www.w3.org/2000/svg">
<path d="M47.0586 26.543V28.543H49.0586V26.543H47.0586ZM3.50391 26.543V24.543H1.50391V26.543H3.50391ZM3.50391 145V147H5.50391V145H3.50391ZM-25.793 145H-27.793V147H-25.793V145ZM-25.793 26.543H-23.793V24.543H-25.793V26.543ZM-68.7617 26.543H-70.7617V28.543H-68.7617V26.543ZM-68.7617 2.8125V0.8125H-70.7617V2.8125H-68.7617ZM47.0586 2.8125H49.0586V0.8125H47.0586V2.8125ZM47.0586 24.543H3.50391V28.543H47.0586V24.543ZM1.50391 26.543V145H5.50391V26.543H1.50391ZM3.50391 143H-25.793V147H3.50391V143ZM-23.793 145V26.543H-27.793V145H-23.793ZM-25.793 24.543H-68.7617V28.543H-25.793V24.543ZM-66.7617 26.543V2.8125H-70.7617V26.543H-66.7617ZM-68.7617 4.8125H47.0586V0.8125H-68.7617V4.8125ZM45.0586 2.8125V26.543H49.0586V2.8125H45.0586ZM179.578 145V147H181.578V145H179.578ZM150.281 145H148.281V147H150.281V145ZM150.281 84.0625H152.281V82.0625H150.281V84.0625ZM93.1523 84.0625V82.0625H91.1523V84.0625H93.1523ZM93.1523 145V147H95.1523V145H93.1523ZM63.8555 145H61.8555V147H63.8555V145ZM63.8555 2.8125V0.8125H61.8555V2.8125H63.8555ZM93.1523 2.8125H95.1523V0.8125H93.1523V2.8125ZM93.1523 60.4297H91.1523V62.4297H93.1523V60.4297ZM150.281 60.4297V62.4297H152.281V60.4297H150.281ZM150.281 2.8125V0.8125H148.281V2.8125H150.281ZM179.578 2.8125H181.578V0.8125H179.578V2.8125ZM179.578 143H150.281V147H179.578V143ZM152.281 145V84.0625H148.281V145H152.281ZM150.281 82.0625H93.1523V86.0625H150.281V82.0625ZM91.1523 84.0625V145H95.1523V84.0625H91.1523ZM93.1523 143H63.8555V147H93.1523V143ZM65.8555 145V2.8125H61.8555V145H65.8555ZM63.8555 4.8125H93.1523V0.8125H63.8555V4.8125ZM91.1523 2.8125V60.4297H95.1523V2.8125H91.1523ZM93.1523 62.4297H150.281V58.4297H93.1523V62.4297ZM152.281 60.4297V2.8125H148.281V60.4297H152.281ZM150.281 4.8125H179.578V0.8125H150.281V4.8125ZM177.578 2.8125V145H181.578V2.8125H177.578ZM290.809 83.3789V85.3789H292.809V83.3789H290.809ZM234.559 83.3789V81.3789H232.559V83.3789H234.559ZM234.559 121.465H232.559V123.465H234.559V121.465ZM300.574 121.465H302.574V119.465H300.574V121.465ZM300.574 145V147H302.574V145H300.574ZM205.262 145H203.262V147H205.262V145ZM205.262 2.8125V0.8125H203.262V2.8125H205.262ZM300.379 2.8125H302.379V0.8125H300.379V2.8125ZM300.379 26.543V28.543H302.379V26.543H300.379ZM234.559 26.543V24.543H232.559V26.543H234.559ZM234.559 60.4297H232.559V62.4297H234.559V60.4297ZM290.809 60.4297H292.809V58.4297H290.809V60.4297ZM290.809 81.3789H234.559V85.3789H290.809V81.3789ZM232.559 83.3789V121.465H236.559V83.3789H232.559ZM234.559 123.465H300.574V119.465H234.559V123.465ZM298.574 121.465V145H302.574V121.465H298.574ZM300.574 143H205.262V147H300.574V143ZM207.262 145V2.8125H203.262V145H207.262ZM205.262 4.8125H300.379V0.8125H205.262V4.8125ZM298.379 2.8125V26.543H302.379V2.8125H298.379ZM300.379 24.543H234.559V28.543H300.379V24.543ZM232.559 26.543V60.4297H236.559V26.543H232.559ZM234.559 62.4297H290.809V58.4297H234.559V62.4297ZM288.809 60.4297V83.3789H292.809V60.4297H288.809ZM366.785 66.875L364.967 67.7091L366.779 71.6576L368.601 67.7136L366.785 66.875ZM396.375 2.8125V0.8125H395.096L394.559 1.97386L396.375 2.8125ZM428.406 2.8125L430.184 3.72832L431.686 0.8125H428.406V2.8125ZM381.727 93.4375L379.949 92.5217L379.727 92.9527V93.4375H381.727ZM381.727 145V147H383.727V145H381.727ZM351.941 145H349.941V147H351.941V145ZM351.941 93.4375H353.941V92.9527L353.719 92.5217L351.941 93.4375ZM305.262 2.8125V0.8125H301.982L303.484 3.72832L305.262 2.8125ZM337.391 2.8125L339.208 1.97843L338.673 0.8125H337.391V2.8125ZM368.601 67.7136L398.191 3.65114L394.559 1.97386L364.969 66.0364L368.601 67.7136ZM396.375 4.8125H428.406V0.8125H396.375V4.8125ZM426.628 1.89668L379.949 92.5217L383.505 94.3533L430.184 3.72832L426.628 1.89668ZM379.727 93.4375V145H383.727V93.4375H379.727ZM381.727 143H351.941V147H381.727V143ZM353.941 145V93.4375H349.941V145H353.941ZM353.719 92.5217L307.04 1.89668L303.484 3.72832L350.163 94.3533L353.719 92.5217ZM305.262 4.8125H337.391V0.8125H305.262V4.8125ZM335.573 3.64657L364.967 67.7091L368.603 66.0409L339.208 1.97843L335.573 3.64657ZM571.473 115.703L573.368 115.065L572.91 113.703H571.473V115.703ZM520.105 115.703V113.703H518.664L518.208 115.071L520.105 115.703ZM510.34 145V147H511.781L512.237 145.632L510.34 145ZM479.188 145L477.313 144.302L476.309 147H479.188V145ZM532.117 2.8125V0.8125H530.728L530.243 2.11477L532.117 2.8125ZM559.266 2.8125L561.139 2.11138L560.653 0.8125H559.266V2.8125ZM612.488 145V147H615.372L614.361 144.299L612.488 145ZM581.336 145L579.44 145.638L579.899 147H581.336V145ZM528.016 91.9727L526.118 91.3423L525.244 93.9727H528.016V91.9727ZM563.562 91.9727V93.9727H566.344L565.458 91.336L563.562 91.9727ZM545.691 38.75L547.587 38.1134L545.681 32.4359L543.793 38.1196L545.691 38.75ZM571.473 113.703H520.105V117.703H571.473V113.703ZM518.208 115.071L508.442 144.368L512.237 145.632L522.003 116.336L518.208 115.071ZM510.34 143H479.188V147H510.34V143ZM481.062 145.698L533.992 3.51023L530.243 2.11477L477.313 144.302L481.062 145.698ZM532.117 4.8125H559.266V0.8125H532.117V4.8125ZM557.393 3.51362L610.615 145.701L614.361 144.299L561.139 2.11138L557.393 3.51362ZM612.488 143H581.336V147H612.488V143ZM583.231 144.362L573.368 115.065L569.577 116.341L579.44 145.638L583.231 144.362ZM528.016 93.9727H563.562V89.9727H528.016V93.9727ZM565.458 91.336L547.587 38.1134L543.795 39.3866L561.667 92.6093L565.458 91.336ZM543.793 38.1196L526.118 91.3423L529.914 92.603L547.589 39.3804L543.793 38.1196ZM678.406 92.9492L680.186 92.0375L679.629 90.9492H678.406V92.9492ZM655.066 92.9492V90.9492H653.066V92.9492H655.066ZM655.066 145V147H657.066V145H655.066ZM625.77 145H623.77V147H625.77V145ZM625.77 2.8125V0.8125H623.77V2.8125H625.77ZM724.793 70.0977L723.116 69.0077L723.113 69.0119L724.793 70.0977ZM705.75 85.5273L704.929 83.7038L702.985 84.5792L703.982 86.4631L705.75 85.5273ZM736.512 143.633H738.512V143.136L738.279 142.697L736.512 143.633ZM736.512 145V147H738.512V145H736.512ZM705.066 145L703.286 145.912L703.844 147H705.066V145ZM655.066 69.2188H653.066V71.2188H655.066V69.2188ZM695.789 63.6523L697.143 65.1247L697.149 65.1188L697.155 65.1129L695.789 63.6523ZM696.082 32.3047L694.656 33.7068L694.662 33.7129L694.668 33.7189L696.082 32.3047ZM655.066 26.543V24.543H653.066V26.543H655.066ZM678.406 90.9492H655.066V94.9492H678.406V90.9492ZM653.066 92.9492V145H657.066V92.9492H653.066ZM655.066 143H625.77V147H655.066V143ZM627.77 145V2.8125H623.77V145H627.77ZM625.77 4.8125H678.602V0.8125H625.77V4.8125ZM678.602 4.8125C695.128 4.8125 707.567 8.4979 716.199 15.5884L718.738 12.4975C709.141 4.61407 695.669 0.8125 678.602 0.8125V4.8125ZM716.199 15.5884C724.775 22.6327 729.141 32.6014 729.141 45.7812H733.141C733.141 31.6173 728.392 20.4272 718.738 12.4975L716.199 15.5884ZM729.141 45.7812C729.141 55.1912 727.09 62.894 723.116 69.0077L726.47 71.1876C730.96 64.2805 733.141 55.7723 733.141 45.7812H729.141ZM723.113 69.0119C719.198 75.0692 713.184 79.9859 704.929 83.7038L706.571 87.3509C715.374 83.3865 722.055 78.0167 726.473 71.1835L723.113 69.0119ZM703.982 86.4631L734.744 144.569L738.279 142.697L707.518 84.5916L703.982 86.4631ZM734.512 143.633V145H738.512V143.633H734.512ZM736.512 143H705.066V147H736.512V143ZM706.846 144.088L680.186 92.0375L676.626 93.861L703.286 145.912L706.846 144.088ZM655.066 71.2188H678.699V67.2188H655.066V71.2188ZM678.699 71.2188C686.383 71.2188 692.626 69.277 697.143 65.1247L694.435 62.18C690.879 65.4496 685.729 67.2188 678.699 67.2188V71.2188ZM697.155 65.1129C701.672 60.8873 703.844 55.1402 703.844 48.125H699.844C699.844 54.2608 697.979 58.8653 694.423 62.1918L697.155 65.1129ZM703.844 48.125C703.844 41.0207 701.796 35.1907 697.496 30.8905L694.668 33.7189C698.05 37.101 699.844 41.8178 699.844 48.125H703.844ZM697.508 30.9026C693.212 26.5323 686.767 24.543 678.602 24.543V28.543C686.191 28.543 691.4 30.3948 694.656 33.7068L697.508 30.9026ZM678.602 24.543H655.066V28.543H678.602V24.543ZM653.066 26.543V69.2188H657.066V26.543H653.066ZM839.051 83.3789V85.3789H841.051V83.3789H839.051ZM782.801 83.3789V81.3789H780.801V83.3789H782.801ZM782.801 121.465H780.801V123.465H782.801V121.465ZM848.816 121.465H850.816V119.465H848.816V121.465ZM848.816 145V147H850.816V145H848.816ZM753.504 145H751.504V147H753.504V145ZM753.504 2.8125V0.8125H751.504V2.8125H753.504ZM848.621 2.8125H850.621V0.8125H848.621V2.8125ZM848.621 26.543V28.543H850.621V26.543H848.621ZM782.801 26.543V24.543H780.801V26.543H782.801ZM782.801 60.4297H780.801V62.4297H782.801V60.4297ZM839.051 60.4297H841.051V58.4297H839.051V60.4297ZM839.051 81.3789H782.801V85.3789H839.051V81.3789ZM780.801 83.3789V121.465H784.801V83.3789H780.801ZM782.801 123.465H848.816V119.465H782.801V123.465ZM846.816 121.465V145H850.816V121.465H846.816ZM848.816 143H753.504V147H848.816V143ZM755.504 145V2.8125H751.504V145H755.504ZM753.504 4.8125H848.621V0.8125H753.504V4.8125ZM846.621 2.8125V26.543H850.621V2.8125H846.621ZM848.621 24.543H782.801V28.543H848.621V24.543ZM780.801 26.543V60.4297H784.801V26.543H780.801ZM782.801 62.4297H839.051V58.4297H782.801V62.4297ZM837.051 60.4297V83.3789H841.051V60.4297H837.051ZM968.445 92.9492L970.225 92.0375L969.668 90.9492H968.445V92.9492ZM945.105 92.9492V90.9492H943.105V92.9492H945.105ZM945.105 145V147H947.105V145H945.105ZM915.809 145H913.809V147H915.809V145ZM915.809 2.8125V0.8125H913.809V2.8125H915.809ZM1014.83 70.0977L1013.16 69.0077L1013.15 69.0119L1014.83 70.0977ZM995.789 85.5273L994.968 83.7038L993.024 84.5792L994.021 86.4631L995.789 85.5273ZM1026.55 143.633H1028.55V143.136L1028.32 142.697L1026.55 143.633ZM1026.55 145V147H1028.55V145H1026.55ZM995.105 145L993.325 145.912L993.883 147H995.105V145ZM945.105 69.2188H943.105V71.2188H945.105V69.2188ZM985.828 63.6523L987.182 65.1247L987.188 65.1188L987.194 65.1129L985.828 63.6523ZM986.121 32.3047L984.695 33.7068L984.701 33.7129L984.707 33.7189L986.121 32.3047ZM945.105 26.543V24.543H943.105V26.543H945.105ZM968.445 90.9492H945.105V94.9492H968.445V90.9492ZM943.105 92.9492V145H947.105V92.9492H943.105ZM945.105 143H915.809V147H945.105V143ZM917.809 145V2.8125H913.809V145H917.809ZM915.809 4.8125H968.641V0.8125H915.809V4.8125ZM968.641 4.8125C985.167 4.8125 997.606 8.4979 1006.24 15.5884L1008.78 12.4975C999.18 4.61407 985.708 0.8125 968.641 0.8125V4.8125ZM1006.24 15.5884C1014.81 22.6327 1019.18 32.6014 1019.18 45.7812H1023.18C1023.18 31.6173 1018.43 20.4272 1008.78 12.4975L1006.24 15.5884ZM1019.18 45.7812C1019.18 55.1912 1017.13 62.894 1013.16 69.0077L1016.51 71.1876C1021 64.2805 1023.18 55.7723 1023.18 45.7812H1019.18ZM1013.15 69.0119C1009.24 75.0692 1003.22 79.9859 994.968 83.7038L996.61 87.3509C1005.41 83.3865 1012.09 78.0167 1016.51 71.1835L1013.15 69.0119ZM994.021 86.4631L1024.78 144.569L1028.32 142.697L997.557 84.5916L994.021 86.4631ZM1024.55 143.633V145H1028.55V143.633H1024.55ZM1026.55 143H995.105V147H1026.55V143ZM996.886 144.088L970.225 92.0375L966.665 93.861L993.325 145.912L996.886 144.088ZM945.105 71.2188H968.738V67.2188H945.105V71.2188ZM968.738 71.2188C976.422 71.2188 982.665 69.277 987.182 65.1247L984.475 62.18C980.918 65.4496 975.768 67.2188 968.738 67.2188V71.2188ZM987.194 65.1129C991.711 60.8873 993.883 55.1402 993.883 48.125H989.883C989.883 54.2608 988.018 58.8653 984.462 62.1918L987.194 65.1129ZM993.883 48.125C993.883 41.0207 991.835 35.1907 987.535 30.8905L984.707 33.7189C988.089 37.101 989.883 41.8178 989.883 48.125H993.883ZM987.547 30.9026C983.251 26.5323 976.806 24.543 968.641 24.543V28.543C976.23 28.543 981.439 30.3948 984.695 33.7068L987.547 30.9026ZM968.641 24.543H945.105V28.543H968.641V24.543ZM943.105 26.543V69.2188H947.105V26.543H943.105ZM1131.63 138.359L1130.58 136.659L1130.57 136.663L1131.63 138.359ZM1068.45 138.457L1067.4 140.162L1068.45 138.457ZM1046.96 114.238L1045.16 115.106L1045.16 115.11L1046.96 114.238ZM1039.25 77.9102L1037.25 77.9102L1037.25 77.9197L1039.25 77.9102ZM1046.77 33.9648L1044.96 33.1058L1044.96 33.1106L1046.77 33.9648ZM1068.15 9.45312L1069.2 11.1552L1069.21 11.1531L1068.15 9.45312ZM1131.34 9.45312L1130.28 11.1498L1130.28 11.1542L1130.29 11.1585L1131.34 9.45312ZM1152.72 33.9648L1150.91 34.8148L1150.92 34.8215L1150.92 34.8281L1152.72 33.9648ZM1077.04 36.6016L1078.68 37.7494L1078.68 37.7429L1077.04 36.6016ZM1068.93 70.1953L1066.93 70.1865V70.1953H1068.93ZM1122.64 111.406L1124.29 112.538L1124.3 112.532L1122.64 111.406ZM1130.65 77.6172L1132.65 77.626V77.6172H1130.65ZM1158.34 77.1289C1158.34 90.891 1155.91 102.863 1151.11 113.096L1154.73 114.795C1159.82 103.934 1162.34 91.3616 1162.34 77.1289H1158.34ZM1151.11 113.096C1146.31 123.318 1139.47 131.149 1130.58 136.659L1132.68 140.059C1142.28 134.111 1149.63 125.666 1154.73 114.795L1151.11 113.096ZM1130.57 136.663C1121.74 142.174 1111.57 144.953 1099.99 144.953V148.953C1112.24 148.953 1123.16 146.003 1132.69 140.056L1130.57 136.663ZM1099.99 144.953C1088.54 144.953 1078.39 142.206 1069.49 136.752L1067.4 140.162C1076.99 146.036 1087.87 148.953 1099.99 148.953V144.953ZM1069.49 136.752C1060.6 131.302 1053.69 123.53 1048.76 113.366L1045.16 115.11C1050.39 125.91 1057.81 134.284 1067.4 140.162L1069.49 136.752ZM1048.76 113.371C1043.83 103.133 1041.31 91.325 1041.25 77.9006L1037.25 77.9197C1037.31 91.8391 1039.93 104.25 1045.16 115.106L1048.76 113.371ZM1041.25 77.9102V70.8789H1037.25V77.9102H1041.25ZM1041.25 70.8789C1041.25 57.1207 1043.71 45.1174 1048.57 34.8191L1044.96 33.1106C1039.8 44.0362 1037.25 56.6423 1037.25 70.8789H1041.25ZM1048.57 34.8239C1053.5 24.46 1060.38 16.5976 1069.2 11.1552L1067.1 7.75105C1057.56 13.6368 1050.19 22.1155 1044.96 33.1058L1048.57 34.8239ZM1069.21 11.1531C1078.11 5.63749 1088.28 2.85938 1099.79 2.85938V-1.14062C1087.61 -1.14062 1076.69 1.81043 1067.1 7.75311L1069.21 11.1531ZM1099.79 2.85938C1111.3 2.85938 1121.44 5.63751 1130.28 11.1498L1132.39 7.75645C1122.87 1.81041 1111.98 -1.14062 1099.79 -1.14062V2.85938ZM1130.29 11.1585C1139.17 16.6004 1146.05 24.4591 1150.91 34.8148L1154.53 33.1148C1149.37 22.1164 1141.99 13.634 1132.38 7.74775L1130.29 11.1585ZM1150.92 34.8281C1155.85 45.1254 1158.34 57.0932 1158.34 70.7812H1162.34C1162.34 56.6047 1159.76 44.0283 1154.53 33.1015L1150.92 34.8281ZM1158.34 70.7812V77.1289H1162.34V70.7812H1158.34ZM1132.65 70.6836C1132.65 55.5877 1129.96 43.7888 1124.29 35.5644L1121 37.834C1126.01 45.1045 1128.65 55.9618 1128.65 70.6836H1132.65ZM1124.29 35.5644C1118.56 27.2428 1110.31 23.0781 1099.79 23.0781V27.0781C1109.07 27.0781 1116.05 30.6608 1121 37.834L1124.29 35.5644ZM1099.79 23.0781C1089.35 23.0781 1081.13 27.2084 1075.4 35.4602L1078.68 37.7429C1083.62 30.6301 1090.58 27.0781 1099.79 27.0781V23.0781ZM1075.4 35.4537C1069.73 43.5489 1067 55.2212 1066.93 70.1865L1070.93 70.2041C1071 55.6122 1073.67 44.8886 1078.68 37.7494L1075.4 35.4537ZM1066.93 70.1953V77.1289H1070.93V70.1953H1066.93ZM1066.93 77.1289C1066.93 91.854 1069.63 103.563 1075.28 112.027L1078.61 109.809C1073.57 102.257 1070.93 91.4403 1070.93 77.1289H1066.93ZM1075.28 112.027C1081 120.619 1089.33 124.93 1099.99 124.93V120.93C1090.6 120.93 1083.55 117.233 1078.61 109.809L1075.28 112.027ZM1099.99 124.93C1110.44 124.93 1118.62 120.798 1124.29 112.538L1121 110.274C1116.12 117.379 1109.2 120.93 1099.99 120.93V124.93ZM1124.3 112.532C1129.89 104.315 1132.59 92.5914 1132.65 77.626L1128.65 77.6084C1128.59 92.2003 1125.95 103.003 1120.99 110.281L1124.3 112.532ZM1132.65 77.6172V70.6836H1128.65V77.6172H1132.65ZM1210.93 121.465H1208.93V123.465H1210.93V121.465ZM1273.13 121.465H1275.13V119.465H1273.13V121.465ZM1273.13 145V147H1275.13V145H1273.13ZM1181.63 145H1179.63V147H1181.63V145ZM1181.63 2.8125V0.8125H1179.63V2.8125H1181.63ZM1210.93 2.8125H1212.93V0.8125H1210.93V2.8125ZM1210.93 123.465H1273.13V119.465H1210.93V123.465ZM1271.13 121.465V145H1275.13V121.465H1271.13ZM1273.13 143H1181.63V147H1273.13V143ZM1183.63 145V2.8125H1179.63V145H1183.63ZM1181.63 4.8125H1210.93V0.8125H1181.63V4.8125ZM1208.93 2.8125V121.465H1212.93V2.8125H1208.93ZM1319.32 121.465H1317.32V123.465H1319.32V121.465ZM1381.53 121.465H1383.53V119.465H1381.53V121.465ZM1381.53 145V147H1383.53V145H1381.53ZM1290.03 145H1288.03V147H1290.03V145ZM1290.03 2.8125V0.8125H1288.03V2.8125H1290.03ZM1319.32 2.8125H1321.32V0.8125H1319.32V2.8125ZM1319.32 123.465H1381.53V119.465H1319.32V123.465ZM1379.53 121.465V145H1383.53V121.465H1379.53ZM1381.53 143H1290.03V147H1381.53V143ZM1292.03 145V2.8125H1288.03V145H1292.03ZM1290.03 4.8125H1319.32V0.8125H1290.03V4.8125ZM1317.32 2.8125V121.465H1321.32V2.8125H1317.32ZM1429.58 145V147H1431.58V145H1429.58ZM1400.28 145H1398.28V147H1400.28V145ZM1400.28 2.8125V0.8125H1398.28V2.8125H1400.28ZM1429.58 2.8125H1431.58V0.8125H1429.58V2.8125ZM1429.58 143H1400.28V147H1429.58V143ZM1402.28 145V2.8125H1398.28V145H1402.28ZM1400.28 4.8125H1429.58V0.8125H1400.28V4.8125ZM1427.58 2.8125V145H1431.58V2.8125H1427.58ZM1572.45 145V147H1574.45V145H1572.45ZM1543.15 145L1541.44 146.041L1542.03 147H1543.15V145ZM1486.12 51.4453L1487.83 50.4043L1484.12 44.3221V51.4453H1486.12ZM1486.12 145V147H1488.12V145H1486.12ZM1456.82 145H1454.82V147H1456.82V145ZM1456.82 2.8125V0.8125H1454.82V2.8125H1456.82ZM1486.12 2.8125L1487.83 1.77176L1487.24 0.8125H1486.12V2.8125ZM1543.25 96.5625L1541.54 97.6032L1545.25 103.688V96.5625H1543.25ZM1543.25 2.8125V0.8125H1541.25V2.8125H1543.25ZM1572.45 2.8125H1574.45V0.8125H1572.45V2.8125ZM1572.45 143H1543.15V147H1572.45V143ZM1544.86 143.959L1487.83 50.4043L1484.41 52.4863L1541.44 146.041L1544.86 143.959ZM1484.12 51.4453V145H1488.12V51.4453H1484.12ZM1486.12 143H1456.82V147H1486.12V143ZM1458.82 145V2.8125H1454.82V145H1458.82ZM1456.82 4.8125H1486.12V0.8125H1456.82V4.8125ZM1484.41 3.85324L1541.54 97.6032L1544.96 95.5218L1487.83 1.77176L1484.41 3.85324ZM1545.25 96.5625V2.8125H1541.25V96.5625H1545.25ZM1543.25 4.8125H1572.45V0.8125H1543.25V4.8125ZM1570.45 2.8125V145H1574.45V2.8125H1570.45ZM1710.54 127.031L1712.07 128.313L1712.54 127.756V127.031H1710.54ZM1688.17 141.777L1688.85 143.66L1688.86 143.656L1688.17 141.777ZM1623.72 138.945L1622.71 140.672L1622.72 140.676L1622.72 140.68L1623.72 138.945ZM1602.23 115.508L1600.44 116.389L1600.44 116.398L1602.23 115.508ZM1594.52 79.4727H1592.52V79.4821L1592.52 79.4915L1594.52 79.4727ZM1601.65 32.9883L1599.83 32.1487L1599.83 32.1538L1601.65 32.9883ZM1622.35 9.16016L1623.39 10.8686L1623.39 10.8664L1622.35 9.16016ZM1693.64 12.9688L1692.35 14.4932L1692.35 14.4983L1693.64 12.9688ZM1710.54 48.0273V50.0273H1712.78L1712.52 47.8L1710.54 48.0273ZM1682.02 48.0273L1680.04 48.3433L1680.31 50.0273H1682.02V48.0273ZM1673.33 30.1562L1672.03 31.6779L1672.04 31.6826L1672.04 31.6872L1673.33 30.1562ZM1632.21 35.7227L1630.57 34.5805L1632.21 35.7227ZM1624.3 69.1211L1622.3 69.1123V69.1211H1624.3ZM1681.24 116.387L1682.65 117.801L1683.24 117.215V116.387H1681.24ZM1681.24 91.875H1683.24V89.875H1681.24V91.875ZM1654.58 91.875H1652.58V93.875H1654.58V91.875ZM1654.58 70.293V68.293H1652.58V70.293H1654.58ZM1710.54 70.293H1712.54V68.293H1710.54V70.293ZM1709 125.749C1704 131.735 1696.87 136.474 1687.49 139.898L1688.86 143.656C1698.74 140.049 1706.52 134.958 1712.07 128.313L1709 125.749ZM1687.5 139.894C1678.11 143.257 1667.66 144.953 1656.14 144.953V148.953C1668.06 148.953 1678.97 147.199 1688.85 143.66L1687.5 139.894ZM1656.14 144.953C1644.13 144.953 1633.68 142.351 1624.71 137.21L1622.72 140.68C1632.38 146.217 1643.54 148.953 1656.14 148.953V144.953ZM1624.73 137.219C1615.84 132.025 1608.94 124.514 1604.03 114.618L1600.44 116.398C1605.68 126.944 1613.11 135.058 1622.71 140.672L1624.73 137.219ZM1604.03 114.627C1599.17 104.725 1596.65 93.0194 1596.52 79.4538L1592.52 79.4915C1592.65 93.5301 1595.27 105.848 1600.44 116.388L1604.03 114.627ZM1596.52 79.4727V69.8047H1592.52V79.4727H1596.52ZM1596.52 69.8047C1596.52 55.8311 1598.86 43.8564 1603.47 33.8228L1599.83 32.1538C1594.93 42.8233 1592.52 55.3928 1592.52 69.8047H1596.52ZM1603.46 33.8278C1608.13 23.737 1614.78 16.1122 1623.39 10.8686L1621.31 7.45176C1611.96 13.1456 1604.8 21.4062 1599.83 32.1487L1603.46 33.8278ZM1623.39 10.8664C1632.09 5.55066 1642.3 2.85938 1654.09 2.85938V-1.14062C1641.67 -1.14062 1630.71 1.70194 1621.31 7.4539L1623.39 10.8664ZM1654.09 2.85938C1670.65 2.85938 1683.31 6.8207 1692.35 14.4931L1694.94 11.4444C1684.96 2.97097 1671.26 -1.14062 1654.09 -1.14062V2.85938ZM1692.35 14.4983C1701.38 22.1015 1706.83 33.2675 1708.55 48.2547L1712.52 47.8C1710.72 32.0581 1704.91 19.8516 1694.93 11.4392L1692.35 14.4983ZM1710.54 46.0273H1682.02V50.0273H1710.54V46.0273ZM1683.99 47.7114C1682.65 39.2893 1679.6 32.8154 1674.62 28.6253L1672.04 31.6872C1676.04 35.0492 1678.79 40.4893 1680.04 48.3433L1683.99 47.7114ZM1674.63 28.6346C1669.73 24.4578 1663.09 22.4922 1654.97 22.4922V26.4922C1662.47 26.4922 1668.07 28.3026 1672.03 31.6779L1674.63 28.6346ZM1654.97 22.4922C1644.42 22.4922 1636.19 26.5005 1630.57 34.5805L1633.86 36.8648C1638.65 29.9708 1645.59 26.4922 1654.97 26.4922V22.4922ZM1630.57 34.5805C1625.03 42.5488 1622.37 54.1578 1622.3 69.1123L1626.3 69.1299C1626.37 54.5271 1628.98 43.8705 1633.86 36.8648L1630.57 34.5805ZM1622.3 69.1211V78.2031H1626.3V69.1211H1622.3ZM1622.3 78.2031C1622.3 93.3132 1625.17 105.077 1631.2 113.186L1634.41 110.799C1629.11 103.673 1626.3 92.9107 1626.3 78.2031H1622.3ZM1631.2 113.186C1637.3 121.392 1646.24 125.418 1657.7 125.418V121.418C1647.29 121.418 1639.63 117.826 1634.41 110.799L1631.2 113.186ZM1657.7 125.418C1668.9 125.418 1677.41 123.046 1682.65 117.801L1679.82 114.973C1675.69 119.102 1668.51 121.418 1657.7 121.418V125.418ZM1683.24 116.387V91.875H1679.24V116.387H1683.24ZM1681.24 89.875H1654.58V93.875H1681.24V89.875ZM1656.58 91.875V70.293H1652.58V91.875H1656.58ZM1654.58 72.293H1710.54V68.293H1654.58V72.293ZM1708.54 70.293V127.031H1712.54V70.293H1708.54ZM395.105 300.875L393.288 301.709L395.099 305.658L396.921 301.714L395.105 300.875ZM424.695 236.812V234.812H423.416L422.88 235.974L424.695 236.812ZM456.727 236.812L458.505 237.728L460.006 234.812H456.727V236.812ZM410.047 327.438L408.269 326.522L408.047 326.953V327.438H410.047ZM410.047 379V381H412.047V379H410.047ZM380.262 379H378.262V381H380.262V379ZM380.262 327.438H382.262V326.953L382.04 326.522L380.262 327.438ZM333.582 236.812V234.812H330.302L331.804 237.728L333.582 236.812ZM365.711 236.812L367.529 235.978L366.994 234.812H365.711V236.812ZM396.921 301.714L426.511 237.651L422.88 235.974L393.29 300.036L396.921 301.714ZM424.695 238.812H456.727V234.812H424.695V238.812ZM454.949 235.897L408.269 326.522L411.825 328.353L458.505 237.728L454.949 235.897ZM408.047 327.438V379H412.047V327.438H408.047ZM410.047 377H380.262V381H410.047V377ZM382.262 379V327.438H378.262V379H382.262ZM382.04 326.522L335.36 235.897L331.804 237.728L378.484 328.353L382.04 326.522ZM333.582 238.812H365.711V234.812H333.582V238.812ZM363.893 237.647L393.288 301.709L396.923 300.041L367.529 235.978L363.893 237.647ZM554.871 372.359L553.818 370.659L553.812 370.663L554.871 372.359ZM491.688 372.457L490.643 374.162L491.688 372.457ZM470.203 348.238L468.401 349.106L468.403 349.11L470.203 348.238ZM462.488 311.91L460.488 311.91L460.488 311.92L462.488 311.91ZM470.008 267.965L468.202 267.106L468.199 267.111L470.008 267.965ZM491.395 243.453L492.445 245.155L492.448 245.153L491.395 243.453ZM554.578 243.453L553.519 245.15L553.526 245.154L553.533 245.159L554.578 243.453ZM575.965 267.965L574.154 268.815L574.158 268.822L574.161 268.828L575.965 267.965ZM500.281 270.602L501.919 271.749L501.924 271.743L500.281 270.602ZM492.176 304.195L490.176 304.187V304.195H492.176ZM545.887 345.406L547.536 346.538L547.54 346.532L545.887 345.406ZM553.895 311.617L555.895 311.626V311.617H553.895ZM581.582 311.129C581.582 324.891 579.15 336.863 574.35 347.096L577.971 348.795C583.066 337.934 585.582 325.362 585.582 311.129H581.582ZM574.35 347.096C569.554 357.318 562.709 365.149 553.818 370.659L555.925 374.059C565.523 368.111 572.871 359.666 577.971 348.795L574.35 347.096ZM553.812 370.663C544.982 376.174 534.809 378.953 523.23 378.953V382.953C535.48 382.953 546.401 380.003 555.93 374.056L553.812 370.663ZM523.23 378.953C511.782 378.953 501.636 376.206 492.732 370.752L490.643 374.162C500.229 380.036 511.111 382.953 523.23 382.953V378.953ZM492.732 370.752C483.838 365.302 476.927 357.53 472.003 347.366L468.403 349.11C473.635 359.91 481.047 368.284 490.643 374.162L492.732 370.752ZM472.005 347.371C467.076 337.133 464.552 325.325 464.488 311.901L460.488 311.92C460.555 325.839 463.174 338.25 468.401 349.106L472.005 347.371ZM464.488 311.91V304.879H460.488V311.91H464.488ZM464.488 304.879C464.488 291.121 466.951 279.117 471.816 268.819L468.199 267.111C463.038 278.036 460.488 290.642 460.488 304.879H464.488ZM471.814 268.824C476.743 258.46 483.624 250.598 492.445 245.155L490.344 241.751C480.805 247.637 473.429 256.116 468.202 267.106L471.814 268.824ZM492.448 245.153C501.348 239.637 511.524 236.859 523.035 236.859V232.859C510.848 232.859 499.93 235.81 490.341 241.753L492.448 245.153ZM523.035 236.859C534.547 236.859 544.687 239.638 553.519 245.15L555.637 241.756C546.11 235.81 535.222 232.859 523.035 232.859V236.859ZM553.533 245.159C562.415 250.6 569.292 258.459 574.154 268.815L577.775 267.115C572.611 256.116 565.23 247.634 555.623 241.748L553.533 245.159ZM574.161 268.828C579.088 279.125 581.582 291.093 581.582 304.781H585.582C585.582 290.605 582.998 278.028 577.769 267.102L574.161 268.828ZM581.582 304.781V311.129H585.582V304.781H581.582ZM555.895 304.684C555.895 289.588 553.201 277.789 547.534 269.564L544.24 271.834C549.25 279.104 551.895 289.962 551.895 304.684H555.895ZM547.534 269.564C541.799 261.243 533.548 257.078 523.035 257.078V261.078C532.314 261.078 539.297 264.661 544.24 271.834L547.534 269.564ZM523.035 257.078C512.589 257.078 504.373 261.208 498.639 269.46L501.924 271.743C506.866 264.63 513.82 261.078 523.035 261.078V257.078ZM498.643 269.454C492.97 277.549 490.242 289.221 490.176 304.187L494.176 304.204C494.24 289.612 496.916 278.889 501.919 271.749L498.643 269.454ZM490.176 304.195V311.129H494.176V304.195H490.176ZM490.176 311.129C490.176 325.854 492.877 337.563 498.519 346.027L501.848 343.809C496.813 336.257 494.176 325.44 494.176 311.129H490.176ZM498.519 346.027C504.247 354.619 512.569 358.93 523.23 358.93V354.93C513.84 354.93 506.797 351.233 501.848 343.809L498.519 346.027ZM523.23 358.93C533.677 358.93 541.865 354.798 547.536 346.538L544.238 344.274C539.361 351.379 532.445 354.93 523.23 354.93V358.93ZM547.54 346.532C553.133 338.315 555.829 326.591 555.895 311.626L551.895 311.608C551.83 326.2 549.188 337.003 544.233 344.281L547.54 346.532ZM555.895 311.617V304.684H551.895V311.617H555.895ZM712.488 236.812H714.488V234.812H712.488V236.812ZM697.84 367.379L696.48 365.912L696.476 365.916L697.84 367.379ZM603.504 331.539H601.504V331.552L601.504 331.564L603.504 331.539ZM603.504 236.812V234.812H601.504V236.812H603.504ZM632.801 236.812H634.801V234.812H632.801V236.812ZM639.441 351.07L638.048 352.505L638.059 352.516L638.07 352.526L639.441 351.07ZM683.094 331.441L685.094 331.471L685.094 331.456V331.441H683.094ZM683.094 236.812V234.812H681.094V236.812H683.094ZM710.488 236.812V330.465H714.488V236.812H710.488ZM710.488 330.465C710.488 345.571 705.768 357.305 696.48 365.912L699.199 368.846C709.443 359.353 714.488 346.479 714.488 330.465H710.488ZM696.476 365.916C687.238 374.534 674.494 378.953 657.996 378.953V382.953C675.222 382.953 689.041 378.323 699.204 368.841L696.476 365.916ZM657.996 378.953C641.754 378.953 629.092 374.661 619.783 366.283L617.107 369.256C627.33 378.456 641.035 382.953 657.996 382.953V378.953ZM619.783 366.283C610.504 357.931 605.693 346.424 605.504 331.514L601.504 331.564C601.705 347.384 606.856 360.03 617.107 369.256L619.783 366.283ZM605.504 331.539V236.812H601.504V331.539H605.504ZM603.504 238.812H632.801V234.812H603.504V238.812ZM630.801 236.812V330.66H634.801V236.812H630.801ZM630.801 330.66C630.801 340.238 633.074 347.677 638.048 352.505L640.834 349.635C636.955 345.87 634.801 339.702 634.801 330.66H630.801ZM638.07 352.526C643.028 357.196 649.755 359.418 657.996 359.418V355.418C650.482 355.418 644.839 353.408 640.813 349.615L638.07 352.526ZM657.996 359.418C666.569 359.418 673.38 357.159 678.062 352.313C682.727 347.486 684.959 340.417 685.094 331.471L681.094 331.411C680.968 339.784 678.887 345.703 675.186 349.534C671.502 353.347 665.895 355.418 657.996 355.418V359.418ZM685.094 331.441V236.812H681.094V331.441H685.094ZM683.094 238.812H712.488V234.812H683.094V238.812ZM789.148 326.949L790.929 326.037L790.371 324.949H789.148V326.949ZM765.809 326.949V324.949H763.809V326.949H765.809ZM765.809 379V381H767.809V379H765.809ZM736.512 379H734.512V381H736.512V379ZM736.512 236.812V234.812H734.512V236.812H736.512ZM835.535 304.098L833.858 303.008L833.856 303.012L835.535 304.098ZM816.492 319.527L815.671 317.704L813.727 318.579L814.725 320.463L816.492 319.527ZM847.254 377.633H849.254V377.136L849.021 376.697L847.254 377.633ZM847.254 379V381H849.254V379H847.254ZM815.809 379L814.029 379.912L814.586 381H815.809V379ZM765.809 303.219H763.809V305.219H765.809V303.219ZM806.531 297.652L807.885 299.125L807.891 299.119L807.898 299.113L806.531 297.652ZM806.824 266.305L805.398 267.707L805.404 267.713L805.41 267.719L806.824 266.305ZM765.809 260.543V258.543H763.809V260.543H765.809ZM789.148 324.949H765.809V328.949H789.148V324.949ZM763.809 326.949V379H767.809V326.949H763.809ZM765.809 377H736.512V381H765.809V377ZM738.512 379V236.812H734.512V379H738.512ZM736.512 238.812H789.344V234.812H736.512V238.812ZM789.344 238.812C805.87 238.812 818.31 242.498 826.941 249.588L829.48 246.498C819.883 238.614 806.411 234.812 789.344 234.812V238.812ZM826.941 249.588C835.517 256.633 839.883 266.601 839.883 279.781H843.883C843.883 265.617 839.134 254.427 829.48 246.498L826.941 249.588ZM839.883 279.781C839.883 289.191 837.832 296.894 833.858 303.008L837.212 305.188C841.702 298.28 843.883 289.772 843.883 279.781H839.883ZM833.856 303.012C829.94 309.069 823.926 313.986 815.671 317.704L817.313 321.351C826.116 317.386 832.797 312.017 837.215 305.183L833.856 303.012ZM814.725 320.463L845.486 378.569L849.021 376.697L818.26 318.592L814.725 320.463ZM845.254 377.633V379H849.254V377.633H845.254ZM847.254 377H815.809V381H847.254V377ZM817.589 378.088L790.929 326.037L787.368 327.861L814.029 379.912L817.589 378.088ZM765.809 305.219H789.441V301.219H765.809V305.219ZM789.441 305.219C797.125 305.219 803.368 303.277 807.885 299.125L805.178 296.18C801.621 299.45 796.471 301.219 789.441 301.219V305.219ZM807.898 299.113C812.415 294.887 814.586 289.14 814.586 282.125H810.586C810.586 288.261 808.721 292.865 805.165 296.192L807.898 299.113ZM814.586 282.125C814.586 275.021 812.539 269.191 808.238 264.89L805.41 267.719C808.792 271.101 810.586 275.818 810.586 282.125H814.586ZM808.25 264.903C803.954 260.532 797.509 258.543 789.344 258.543V262.543C796.933 262.543 802.142 264.395 805.398 267.707L808.25 264.903ZM789.344 258.543H765.809V262.543H789.344V258.543ZM763.809 260.543V303.219H767.809V260.543H763.809ZM1024.79 337.984L1022.84 338.434L1026.76 338.356L1024.79 337.984ZM1043.93 236.812V234.812H1042.28L1041.97 236.441L1043.93 236.812ZM1073.13 236.812L1075.09 237.246L1075.63 234.812H1073.13V236.812ZM1041.59 379V381H1043.19L1043.54 379.433L1041.59 379ZM1012.1 379L1010.15 379.473L1010.53 381H1012.1V379ZM988.953 283.883L990.896 283.41H987.01L988.953 283.883ZM965.809 379V381H967.38L967.752 379.473L965.809 379ZM936.316 379L934.364 379.433L934.711 381H936.316V379ZM904.773 236.812V234.812H902.281L902.821 237.246L904.773 236.812ZM933.973 236.812L935.937 236.438L935.628 234.812H933.973V236.812ZM953.211 337.789L951.246 338.163L955.159 338.241L953.211 337.789ZM976.648 236.812V234.812H975.059L974.7 236.36L976.648 236.812ZM1001.45 236.812L1003.4 236.363L1003.04 234.812H1001.45V236.812ZM1026.76 338.356L1045.9 237.184L1041.97 236.441L1022.83 337.613L1026.76 338.356ZM1043.93 238.812H1073.13V234.812H1043.93V238.812ZM1071.18 236.379L1039.64 378.567L1043.54 379.433L1075.09 237.246L1071.18 236.379ZM1041.59 377H1012.1V381H1041.59V377ZM1014.04 378.527L990.896 283.41L987.01 284.356L1010.15 379.473L1014.04 378.527ZM987.01 283.41L963.865 378.527L967.752 379.473L990.896 284.356L987.01 283.41ZM965.809 377H936.316V381H965.809V377ZM938.269 378.567L906.726 236.379L902.821 237.246L934.364 379.433L938.269 378.567ZM904.773 238.812H933.973V234.812H904.773V238.812ZM932.008 237.187L951.246 338.163L955.176 337.415L935.937 236.438L932.008 237.187ZM955.159 338.241L978.597 237.265L974.7 236.36L951.263 337.337L955.159 338.241ZM976.648 238.812H1001.45V234.812H976.648V238.812ZM999.504 237.262L1022.84 338.434L1026.74 337.535L1003.4 236.363L999.504 237.262ZM1165.03 349.703L1166.92 349.065L1166.46 347.703H1165.03V349.703ZM1113.66 349.703V347.703H1112.22L1111.76 349.071L1113.66 349.703ZM1103.89 379V381H1105.34L1105.79 379.632L1103.89 379ZM1072.74 379L1070.87 378.302L1069.86 381H1072.74V379ZM1125.67 236.812V234.812H1124.28L1123.8 236.115L1125.67 236.812ZM1152.82 236.812L1154.69 236.111L1154.21 234.812H1152.82V236.812ZM1206.04 379V381H1208.93L1207.92 378.299L1206.04 379ZM1174.89 379L1173 379.638L1173.45 381H1174.89V379ZM1121.57 325.973L1119.67 325.342L1118.8 327.973H1121.57V325.973ZM1157.12 325.973V327.973H1159.9L1159.01 325.336L1157.12 325.973ZM1139.25 272.75L1141.14 272.113L1139.24 266.436L1137.35 272.12L1139.25 272.75ZM1165.03 347.703H1113.66V351.703H1165.03V347.703ZM1111.76 349.071L1102 378.368L1105.79 379.632L1115.56 350.336L1111.76 349.071ZM1103.89 377H1072.74V381H1103.89V377ZM1074.62 379.698L1127.55 237.51L1123.8 236.115L1070.87 378.302L1074.62 379.698ZM1125.67 238.812H1152.82V234.812H1125.67V238.812ZM1150.95 237.514L1204.17 379.701L1207.92 378.299L1154.69 236.111L1150.95 237.514ZM1206.04 377H1174.89V381H1206.04V377ZM1176.79 378.362L1166.92 349.065L1163.13 350.341L1173 379.638L1176.79 378.362ZM1121.57 327.973H1157.12V323.973H1121.57V327.973ZM1159.01 325.336L1141.14 272.113L1137.35 273.387L1155.22 326.609L1159.01 325.336ZM1137.35 272.12L1119.67 325.342L1123.47 326.603L1141.14 273.38L1137.35 272.12ZM1253.7 300.875L1251.88 301.709L1253.69 305.658L1255.51 301.714L1253.7 300.875ZM1283.29 236.812V234.812H1282.01L1281.47 235.974L1283.29 236.812ZM1315.32 236.812L1317.1 237.728L1318.6 234.812H1315.32V236.812ZM1268.64 327.438L1266.86 326.522L1266.64 326.953V327.438H1268.64ZM1268.64 379V381H1270.64V379H1268.64ZM1238.86 379H1236.86V381H1238.86V379ZM1238.86 327.438H1240.86V326.953L1240.63 326.522L1238.86 327.438ZM1192.18 236.812V234.812H1188.9L1190.4 237.728L1192.18 236.812ZM1224.3 236.812L1226.12 235.978L1225.59 234.812H1224.3V236.812ZM1255.51 301.714L1285.1 237.651L1281.47 235.974L1251.88 300.036L1255.51 301.714ZM1283.29 238.812H1315.32V234.812H1283.29V238.812ZM1313.54 235.897L1266.86 326.522L1270.42 328.353L1317.1 237.728L1313.54 235.897ZM1266.64 327.438V379H1270.64V327.438H1266.64ZM1268.64 377H1238.86V381H1268.64V377ZM1240.86 379V327.438H1236.86V379H1240.86ZM1240.63 326.522L1193.95 235.897L1190.4 237.728L1237.08 328.353L1240.63 326.522ZM1192.18 238.812H1224.3V234.812H1192.18V238.812ZM1222.49 237.647L1251.88 301.709L1255.52 300.041L1226.12 235.978L1222.49 237.647Z" fill="#FBBF24"/>
</svg>
