<svg width="950" height="147" viewBox="0 0 950 147" fill="none" xmlns="http://www.w3.org/2000/svg">
<path d="M53.332 92.9492L55.1121 92.0375L54.5547 90.9492H53.332V92.9492ZM29.9922 92.9492V90.9492H27.9922V92.9492H29.9922ZM29.9922 145V147H31.9922V145H29.9922ZM0.695312 145H-1.30469V147H0.695312V145ZM0.695312 2.8125V0.8125H-1.30469V2.8125H0.695312ZM99.7188 70.0977L98.0419 69.0077L98.0392 69.0119L99.7188 70.0977ZM80.6758 85.5273L79.8545 83.7038L77.9108 84.5792L78.9082 86.4631L80.6758 85.5273ZM111.438 143.633H113.438V143.136L113.205 142.697L111.438 143.633ZM111.438 145V147H113.438V145H111.438ZM79.9922 145L78.2121 145.912L78.7695 147H79.9922V145ZM29.9922 69.2188H27.9922V71.2188H29.9922V69.2188ZM70.7148 63.6523L72.0684 65.1247L72.0748 65.1188L72.0812 65.1129L70.7148 63.6523ZM71.0078 32.3047L69.5816 33.7068L69.5876 33.7129L69.5936 33.7189L71.0078 32.3047ZM29.9922 26.543V24.543H27.9922V26.543H29.9922ZM53.332 90.9492H29.9922V94.9492H53.332V90.9492ZM27.9922 92.9492V145H31.9922V92.9492H27.9922ZM29.9922 143H0.695312V147H29.9922V143ZM2.69531 145V2.8125H-1.30469V145H2.69531ZM0.695312 4.8125H53.5273V0.8125H0.695312V4.8125ZM53.5273 4.8125C70.0537 4.8125 82.4931 8.4979 91.1251 15.5884L93.664 12.4975C84.0668 4.61407 70.5947 0.8125 53.5273 0.8125V4.8125ZM91.1251 15.5884C99.7007 22.6327 104.066 32.6014 104.066 45.7812H108.066C108.066 31.6173 103.317 20.4272 93.664 12.4975L91.1251 15.5884ZM104.066 45.7812C104.066 55.1912 102.016 62.894 98.0419 69.0077L101.396 71.1876C105.885 64.2805 108.066 55.7723 108.066 45.7812H104.066ZM98.0392 69.0119C94.1233 75.0692 88.1093 79.9859 79.8545 83.7038L81.4971 87.3509C90.2996 83.3865 96.9809 78.0167 101.398 71.1835L98.0392 69.0119ZM78.9082 86.4631L109.67 144.569L113.205 142.697L82.4434 84.5916L78.9082 86.4631ZM109.438 143.633V145H113.438V143.633H109.438ZM111.438 143H79.9922V147H111.438V143ZM81.7723 144.088L55.1121 92.0375L51.5519 93.861L78.2121 145.912L81.7723 144.088ZM29.9922 71.2188H53.625V67.2188H29.9922V71.2188ZM53.625 71.2188C61.3088 71.2188 67.5519 69.277 72.0684 65.1247L69.3612 62.18C65.8048 65.4496 60.6548 67.2188 53.625 67.2188V71.2188ZM72.0812 65.1129C76.5981 60.8873 78.7695 55.1402 78.7695 48.125H74.7695C74.7695 54.2608 72.9045 58.8653 69.3485 62.1918L72.0812 65.1129ZM78.7695 48.125C78.7695 41.0207 76.7222 35.1907 72.422 30.8905L69.5936 33.7189C72.9757 37.101 74.7695 41.8178 74.7695 48.125H78.7695ZM72.4341 30.9026C68.1378 26.5323 61.693 24.543 53.5273 24.543V28.543C61.1168 28.543 66.3257 30.3948 69.5816 33.7068L72.4341 30.9026ZM53.5273 24.543H29.9922V28.543H53.5273V24.543ZM27.9922 26.543V69.2188H31.9922V26.543H27.9922ZM216.516 138.359L215.462 136.659L215.457 136.663L216.516 138.359ZM153.332 138.457L152.287 140.162L153.332 138.457ZM131.848 114.238L130.046 115.106L130.048 115.11L131.848 114.238ZM124.133 77.9102L122.133 77.9102L122.133 77.9197L124.133 77.9102ZM131.652 33.9648L129.846 33.1058L129.844 33.1106L131.652 33.9648ZM153.039 9.45312L154.089 11.1552L154.093 11.1531L153.039 9.45312ZM216.223 9.45312L215.164 11.1498L215.171 11.1542L215.178 11.1585L216.223 9.45312ZM237.609 33.9648L235.799 34.8148L235.802 34.8215L235.805 34.8281L237.609 33.9648ZM161.926 36.6016L163.564 37.7494L163.568 37.7429L161.926 36.6016ZM153.82 70.1953L151.82 70.1865V70.1953H153.82ZM207.531 111.406L209.18 112.538L209.185 112.532L207.531 111.406ZM215.539 77.6172L217.539 77.626V77.6172H215.539ZM243.227 77.1289C243.227 90.891 240.795 102.863 235.994 113.096L239.615 114.795C244.711 103.934 247.227 91.3616 247.227 77.1289H243.227ZM235.994 113.096C231.198 123.318 224.354 131.149 215.462 136.659L217.569 140.059C227.167 134.111 234.515 125.666 239.615 114.795L235.994 113.096ZM215.457 136.663C206.626 142.174 196.454 144.953 184.875 144.953V148.953C197.124 148.953 208.046 146.003 217.575 140.056L215.457 136.663ZM184.875 144.953C173.427 144.953 163.28 142.206 154.377 136.752L152.287 140.162C161.874 146.036 172.756 148.953 184.875 148.953V144.953ZM154.377 136.752C145.483 131.302 138.572 123.53 133.648 113.366L130.048 115.11C135.28 125.91 142.692 134.284 152.287 140.162L154.377 136.752ZM133.65 113.371C128.72 103.133 126.197 91.325 126.133 77.9006L122.133 77.9197C122.199 91.8391 124.819 104.25 130.046 115.106L133.65 113.371ZM126.133 77.9102V70.8789H122.133V77.9102H126.133ZM126.133 70.8789C126.133 57.1207 128.596 45.1174 133.461 34.8191L129.844 33.1106C124.683 44.0362 122.133 56.6423 122.133 70.8789H126.133ZM133.458 34.8239C138.388 24.46 145.269 16.5976 154.089 11.1552L151.989 7.75105C142.45 13.6368 135.073 22.1155 129.846 33.1058L133.458 34.8239ZM154.093 11.1531C162.993 5.63749 173.168 2.85938 184.68 2.85938V-1.14062C172.493 -1.14062 161.575 1.81043 151.986 7.75311L154.093 11.1531ZM184.68 2.85938C196.191 2.85938 206.332 5.63751 215.164 11.1498L217.282 7.75645C207.754 1.81041 196.866 -1.14062 184.68 -1.14062V2.85938ZM215.178 11.1585C224.06 16.6004 230.937 24.4591 235.799 34.8148L239.42 33.1148C234.256 22.1164 226.875 13.634 217.267 7.74775L215.178 11.1585ZM235.805 34.8281C240.733 45.1254 243.227 57.0932 243.227 70.7812H247.227C247.227 56.6047 244.642 44.0283 239.413 33.1015L235.805 34.8281ZM243.227 70.7812V77.1289H247.227V70.7812H243.227ZM217.539 70.6836C217.539 55.5877 214.845 43.7888 209.178 35.5644L205.884 37.834C210.894 45.1045 213.539 55.9618 213.539 70.6836H217.539ZM209.178 35.5644C203.444 27.2428 195.193 23.0781 184.68 23.0781V27.0781C193.958 27.0781 200.941 30.6608 205.884 37.834L209.178 35.5644ZM184.68 23.0781C174.233 23.0781 166.018 27.2084 160.283 35.4602L163.568 37.7429C168.511 30.6301 175.465 27.0781 184.68 27.0781V23.0781ZM160.288 35.4537C154.614 43.5489 151.886 55.2212 151.82 70.1865L155.82 70.2041C155.885 55.6122 158.56 44.8886 163.564 37.7494L160.288 35.4537ZM151.82 70.1953V77.1289H155.82V70.1953H151.82ZM151.82 77.1289C151.82 91.854 154.521 103.563 160.164 112.027L163.492 109.809C158.458 102.257 155.82 91.4403 155.82 77.1289H151.82ZM160.164 112.027C165.892 120.619 174.214 124.93 184.875 124.93V120.93C175.484 120.93 168.442 117.233 163.492 109.809L160.164 112.027ZM184.875 124.93C195.322 124.93 203.51 120.798 209.18 112.538L205.882 110.274C201.006 117.379 194.09 120.93 184.875 120.93V124.93ZM209.185 112.532C214.777 104.315 217.473 92.5914 217.539 77.626L213.539 77.6084C213.475 92.2003 210.832 103.003 205.878 110.281L209.185 112.532ZM217.539 77.6172V70.6836H213.539V77.6172H217.539ZM344.641 115.703L346.536 115.065L346.078 113.703H344.641V115.703ZM293.273 115.703V113.703H291.832L291.376 115.071L293.273 115.703ZM283.508 145V147H284.949L285.405 145.632L283.508 145ZM252.355 145L250.481 144.302L249.477 147H252.355V145ZM305.285 2.8125V0.8125H303.896L303.411 2.11477L305.285 2.8125ZM332.434 2.8125L334.307 2.11138L333.82 0.8125H332.434V2.8125ZM385.656 145V147H388.54L387.529 144.299L385.656 145ZM354.504 145L352.608 145.638L353.067 147H354.504V145ZM301.184 91.9727L299.286 91.3423L298.412 93.9727H301.184V91.9727ZM336.73 91.9727V93.9727H339.512L338.626 91.336L336.73 91.9727ZM318.859 38.75L320.755 38.1134L318.849 32.4359L316.961 38.1196L318.859 38.75ZM344.641 113.703H293.273V117.703H344.641V113.703ZM291.376 115.071L281.61 144.368L285.405 145.632L295.171 116.336L291.376 115.071ZM283.508 143H252.355V147H283.508V143ZM254.23 145.698L307.16 3.51023L303.411 2.11477L250.481 144.302L254.23 145.698ZM305.285 4.8125H332.434V0.8125H305.285V4.8125ZM330.561 3.51362L383.783 145.701L387.529 144.299L334.307 2.11138L330.561 3.51362ZM385.656 143H354.504V147H385.656V143ZM356.399 144.362L346.536 115.065L342.745 116.341L352.608 145.638L356.399 144.362ZM301.184 93.9727H336.73V89.9727H301.184V93.9727ZM338.626 91.336L320.755 38.1134L316.963 39.3866L334.834 92.6093L338.626 91.336ZM316.961 38.1196L299.286 91.3423L303.082 92.603L320.757 39.3804L316.961 38.1196ZM398.938 145H396.938V147H398.938V145ZM398.938 2.8125V0.8125H396.938V2.8125H398.938ZM476.184 11.3086L475.185 13.0415L475.192 13.0454L475.199 13.0493L476.184 11.3086ZM499.328 35.332L497.562 36.2703L497.564 36.2749L499.328 35.332ZM499.426 112.48L497.66 111.542L497.655 111.55L499.426 112.48ZM442.98 145V147L442.991 147L442.98 145ZM428.234 26.543V24.543H426.234V26.543H428.234ZM428.234 121.465H426.234V123.465H428.234V121.465ZM477.941 78.1055L479.941 78.1242L479.941 78.1148V78.1055H477.941ZM468.957 37.7734L467.395 39.0228L467.401 39.0295L468.957 37.7734ZM400.938 145V2.8125H396.938V145H400.938ZM398.938 4.8125H442.688V0.8125H398.938V4.8125ZM442.688 4.8125C454.874 4.8125 465.688 7.56985 475.185 13.0415L477.182 9.57565C467.017 3.71922 455.501 0.8125 442.688 0.8125V4.8125ZM475.199 13.0493C484.75 18.4534 492.2 26.1768 497.562 36.2703L501.094 34.3937C495.389 23.6539 487.409 15.3617 477.168 9.56789L475.199 13.0493ZM497.564 36.2749C502.924 46.3015 505.629 57.7544 505.629 70.6836H509.629C509.629 57.1805 506.8 45.0657 501.092 34.3891L497.564 36.2749ZM505.629 70.6836V77.2266H509.629V70.6836H505.629ZM505.629 77.2266C505.629 90.1598 502.955 101.581 497.66 111.542L501.192 113.419C506.834 102.807 509.629 90.7256 509.629 77.2266H505.629ZM497.655 111.55C492.425 121.507 485.042 129.199 475.483 134.67L477.47 138.142C487.703 132.285 495.619 124.027 501.196 113.411L497.655 111.55ZM475.483 134.67C465.913 140.148 455.092 142.937 442.97 143L442.991 147C455.739 146.933 467.248 143.993 477.47 138.142L475.483 134.67ZM442.98 143H398.938V147H442.98V143ZM426.234 26.543V121.465H430.234V26.543H426.234ZM428.234 123.465H442.395V119.465H428.234V123.465ZM442.395 123.465C454.329 123.465 463.711 119.539 470.219 111.492L467.109 108.977C461.508 115.903 453.377 119.465 442.395 119.465V123.465ZM470.219 111.492C476.66 103.527 479.809 92.312 479.941 78.1242L475.941 78.0868C475.814 91.7635 472.777 101.968 467.109 108.977L470.219 111.492ZM479.941 78.1055V70.5859H475.941V78.1055H479.941ZM479.941 70.5859C479.941 55.9008 476.905 44.4376 470.513 36.5174L467.401 39.0295C472.988 45.9531 475.941 56.3649 475.941 70.5859H479.941ZM470.519 36.524C464.072 28.4656 454.682 24.543 442.688 24.543V28.543C453.74 28.543 461.863 32.1073 467.395 39.0228L470.519 36.524ZM442.688 24.543H428.234V28.543H442.688V24.543ZM567.297 2.8125L569.182 2.14481L568.71 0.8125H567.297V2.8125ZM603.82 105.938L601.935 106.605L603.825 111.943L605.707 106.602L603.82 105.938ZM640.148 2.8125V0.8125H638.733L638.262 2.14798L640.148 2.8125ZM678.625 2.8125H680.625V0.8125H678.625V2.8125ZM678.625 145V147H680.625V145H678.625ZM649.23 145H647.23V147H649.23V145ZM649.23 106.133L647.232 106.046L647.23 106.089V106.133H649.23ZM652.16 39.043L654.158 39.1302L650.28 38.3618L652.16 39.043ZM613.781 145V147H615.184L615.662 145.681L613.781 145ZM593.664 145L591.783 145.68L592.261 147H593.664V145ZM555.383 39.1406L557.264 38.4605L553.385 39.228L555.383 39.1406ZM558.312 106.133H560.312V106.089L560.311 106.045L558.312 106.133ZM558.312 145V147H560.312V145H558.312ZM529.016 145H527.016V147H529.016V145ZM529.016 2.8125V0.8125H527.016V2.8125H529.016ZM565.412 3.48019L601.935 106.605L605.706 105.27L569.182 2.14481L565.412 3.48019ZM605.707 106.602L642.035 3.47702L638.262 2.14798L601.934 105.273L605.707 106.602ZM640.148 4.8125H678.625V0.8125H640.148V4.8125ZM676.625 2.8125V145H680.625V2.8125H676.625ZM678.625 143H649.23V147H678.625V143ZM651.23 145V106.133H647.23V145H651.23ZM651.229 106.22L654.158 39.1302L650.162 38.9557L647.232 106.046L651.229 106.22ZM650.28 38.3618L611.901 144.319L615.662 145.681L654.041 39.7241L650.28 38.3618ZM613.781 143H593.664V147H613.781V143ZM595.545 144.32L557.264 38.4605L553.502 39.8208L591.783 145.68L595.545 144.32ZM553.385 39.228L556.314 106.22L560.311 106.045L557.381 39.0532L553.385 39.228ZM556.312 106.133V145H560.312V106.133H556.312ZM558.312 143H529.016V147H558.312V143ZM531.016 145V2.8125H527.016V145H531.016ZM529.016 4.8125H567.297V0.8125H529.016V4.8125ZM786.242 115.703L788.138 115.065L787.679 113.703H786.242V115.703ZM734.875 115.703V113.703H733.433L732.978 115.071L734.875 115.703ZM725.109 145V147H726.551L727.007 145.632L725.109 145ZM693.957 145L692.083 144.302L691.078 147H693.957V145ZM746.887 2.8125V0.8125H745.497L745.012 2.11477L746.887 2.8125ZM774.035 2.8125L775.908 2.11138L775.422 0.8125H774.035V2.8125ZM827.258 145V147H830.142L829.131 144.299L827.258 145ZM796.105 145L794.21 145.638L794.668 147H796.105V145ZM742.785 91.9727L740.887 91.3423L740.014 93.9727H742.785V91.9727ZM778.332 91.9727V93.9727H781.113L780.228 91.336L778.332 91.9727ZM760.461 38.75L762.357 38.1134L760.451 32.4359L758.563 38.1196L760.461 38.75ZM786.242 113.703H734.875V117.703H786.242V113.703ZM732.978 115.071L723.212 144.368L727.007 145.632L736.772 116.336L732.978 115.071ZM725.109 143H693.957V147H725.109V143ZM695.831 145.698L748.761 3.51023L745.012 2.11477L692.083 144.302L695.831 145.698ZM746.887 4.8125H774.035V0.8125H746.887V4.8125ZM772.162 3.51362L825.385 145.701L829.131 144.299L775.908 2.11138L772.162 3.51362ZM827.258 143H796.105V147H827.258V143ZM798.001 144.362L788.138 115.065L784.347 116.341L794.21 145.638L798.001 144.362ZM742.785 93.9727H778.332V89.9727H742.785V93.9727ZM780.228 91.336L762.357 38.1134L758.565 39.3866L776.436 92.6093L780.228 91.336ZM758.563 38.1196L740.887 91.3423L744.683 92.603L762.359 39.3804L758.563 38.1196ZM869.836 94.9023V92.9023H867.836V94.9023H869.836ZM869.836 145V147H871.836V145H869.836ZM840.539 145H838.539V147H840.539V145ZM840.539 2.8125V0.8125H838.539V2.8125H840.539ZM924.133 8.67188L923.262 10.4722L923.267 10.4749L924.133 8.67188ZM942.883 25.3711L941.171 26.4046L941.175 26.4115L942.883 25.3711ZM935.07 82.8906L936.359 84.4202L936.36 84.4194L935.07 82.8906ZM869.836 71.1719H867.836V73.1719H869.836V71.1719ZM913.684 65.7031L912.355 64.2083L912.349 64.2136L912.343 64.2189L913.684 65.7031ZM896.691 26.543L896.727 24.5433L896.709 24.543H896.691V26.543ZM869.836 26.543V24.543H867.836V26.543H869.836ZM867.836 94.9023V145H871.836V94.9023H867.836ZM869.836 143H840.539V147H869.836V143ZM842.539 145V2.8125H838.539V145H842.539ZM840.539 4.8125H896.008V0.8125H840.539V4.8125ZM896.008 4.8125C906.44 4.8125 915.507 6.72008 923.262 10.4722L925.004 6.87156C916.612 2.81117 906.93 0.8125 896.008 0.8125V4.8125ZM923.267 10.4749C931.08 14.2249 937.024 19.535 941.171 26.4046L944.595 24.3376C940.018 16.754 933.462 10.9314 924.998 6.86883L923.267 10.4749ZM941.175 26.4115C945.328 33.2302 947.426 41.0342 947.426 49.8828H951.426C951.426 40.3721 949.162 31.8349 944.591 24.3307L941.175 26.4115ZM947.426 49.8828C947.426 63.3006 942.846 73.7147 933.781 81.3619L936.36 84.4194C946.435 75.9207 951.426 64.3296 951.426 49.8828H947.426ZM933.782 81.3611C924.748 88.9718 912.078 92.9023 895.52 92.9023V96.9023C912.685 96.9023 926.382 92.8251 936.359 84.4202L933.782 81.3611ZM895.52 92.9023H869.836V96.9023H895.52V92.9023ZM869.836 73.1719H896.008V69.1719H869.836V73.1719ZM896.008 73.1719C904.042 73.1719 910.49 71.2826 915.024 67.1873L912.343 64.2189C908.804 67.4153 903.469 69.1719 896.008 69.1719V73.1719ZM915.012 67.1979C919.638 63.0862 921.836 57.2758 921.836 50.0781H917.836C917.836 56.4221 915.932 61.0284 912.355 64.2083L915.012 67.1979ZM921.836 50.0781C921.836 42.6927 919.648 36.5351 915.13 31.8026L912.237 34.5645C915.923 38.4259 917.836 43.5312 917.836 50.0781H921.836ZM915.13 31.8026C910.583 27.0384 904.364 24.6809 896.727 24.5433L896.655 28.5426C903.471 28.6655 908.581 30.735 912.237 34.5645L915.13 31.8026ZM896.691 24.543H869.836V28.543H896.691V24.543ZM867.836 26.543V71.1719H871.836V26.543H867.836Z" fill="#59C2BB"/>
</svg>
