<svg width="1440" height="1028" viewBox="0 0 1440 1028" fill="none" xmlns="http://www.w3.org/2000/svg">
<rect width="1440" height="1028" fill="url(#paint0_linear_30_1206)"/>
<circle cx="107" cy="101" r="11" fill="#C4C4C4" fill-opacity="0.2"/>
<circle cx="434" cy="378" r="11" fill="#C4C4C4" fill-opacity="0.2"/>
<circle cx="845" cy="378" r="11" fill="#C4C4C4" fill-opacity="0.2"/>
<circle cx="970" cy="566" r="11" fill="#C4C4C4" fill-opacity="0.2"/>
<circle cx="856" cy="694" r="11" fill="#C4C4C4" fill-opacity="0.2"/>
<circle cx="560" cy="791" r="11" fill="#C4C4C4" fill-opacity="0.2"/>
<circle cx="270" cy="769" r="11" fill="#C4C4C4" fill-opacity="0.2"/>
<circle cx="248" cy="473" r="11" fill="#C4C4C4" fill-opacity="0.2"/>
<circle cx="194" cy="897" r="11" fill="#C4C4C4" fill-opacity="0.2"/>
<circle cx="74" cy="974" r="11" fill="#C4C4C4" fill-opacity="0.2"/>
<circle cx="424" cy="985" r="11" fill="#C4C4C4" fill-opacity="0.2"/>
<circle cx="731" cy="966" r="11" fill="#C4C4C4" fill-opacity="0.2"/>
<circle cx="1380" cy="1002" r="11" fill="#C4C4C4" fill-opacity="0.2"/>
<circle cx="129" cy="655" r="11" fill="#C4C4C4" fill-opacity="0.2"/>
<circle cx="1070" cy="344" r="11" fill="#C4C4C4" fill-opacity="0.2"/>
<circle cx="1150" cy="253" r="11" fill="#C4C4C4" fill-opacity="0.2"/>
<circle cx="1327" cy="525" r="11" fill="#C4C4C4" fill-opacity="0.2"/>
<circle cx="1316" cy="813" r="11" fill="#C4C4C4" fill-opacity="0.2"/>
<circle cx="1221" cy="897" r="11" fill="#C4C4C4" fill-opacity="0.2"/>
<circle cx="867" cy="157" r="11" fill="#C4C4C4" fill-opacity="0.2"/>
<circle cx="525" cy="157" r="11" fill="#C4C4C4" fill-opacity="0.2"/>
<circle cx="605" cy="555" r="11" fill="#C4C4C4" fill-opacity="0.2"/>
<circle cx="751" cy="264" r="11" fill="#C4C4C4" fill-opacity="0.2"/>
<circle cx="1059" cy="67" r="11" fill="#C4C4C4" fill-opacity="0.2"/>
<circle cx="1260" cy="31" r="11" fill="#C4C4C4" fill-opacity="0.2"/>
<circle cx="616" cy="31" r="11" fill="#C4C4C4" fill-opacity="0.2"/>
<circle cx="375" cy="36" r="11" fill="#C4C4C4" fill-opacity="0.2"/>
<ellipse cx="134.5" cy="270" rx="5.5" ry="6" fill="white" fill-opacity="0.4"/>
<ellipse cx="358.5" cy="270" rx="5.5" ry="6" fill="white" fill-opacity="0.4"/>
<ellipse cx="525.5" cy="282" rx="5.5" ry="6" fill="white" fill-opacity="0.4"/>
<ellipse cx="610.5" cy="395" rx="5.5" ry="6" fill="white" fill-opacity="0.4"/>
<ellipse cx="821.5" cy="485" rx="5.5" ry="6" fill="white" fill-opacity="0.4"/>
<ellipse cx="786.5" cy="572" rx="5.5" ry="6" fill="white" fill-opacity="0.4"/>
<ellipse cx="445.5" cy="593" rx="5.5" ry="6" fill="white" fill-opacity="0.4"/>
<ellipse cx="594.5" cy="672" rx="5.5" ry="6" fill="white" fill-opacity="0.4"/>
<ellipse cx="788.5" cy="830" rx="5.5" ry="6" fill="white" fill-opacity="0.4"/>
<ellipse cx="571.5" cy="914" rx="5.5" ry="6" fill="white" fill-opacity="0.4"/>
<ellipse cx="286.5" cy="914" rx="5.5" ry="6" fill="white" fill-opacity="0.4"/>
<ellipse cx="123.5" cy="775" rx="5.5" ry="6" fill="white" fill-opacity="0.4"/>
<ellipse cx="1086.5" cy="723" rx="5.5" ry="6" fill="white" fill-opacity="0.4"/>
<ellipse cx="1177.5" cy="605" rx="5.5" ry="6" fill="white" fill-opacity="0.4"/>
<ellipse cx="1075.5" cy="473" rx="5.5" ry="6" fill="white" fill-opacity="0.4"/>
<ellipse cx="1155.5" cy="372" rx="5.5" ry="6" fill="white" fill-opacity="0.4"/>
<ellipse cx="922.5" cy="327" rx="5.5" ry="6" fill="white" fill-opacity="0.4"/>
<ellipse cx="1327.5" cy="201" rx="5.5" ry="6" fill="white" fill-opacity="0.4"/>
<ellipse cx="1210.5" cy="84" rx="5.5" ry="6" fill="white" fill-opacity="0.4"/>
<ellipse cx="1343.5" cy="401" rx="5.5" ry="6" fill="white" fill-opacity="0.4"/>
<ellipse cx="1354.5" cy="705" rx="5.5" ry="6" fill="white" fill-opacity="0.4"/>
<ellipse cx="997.5" cy="949" rx="5.5" ry="6" fill="white" fill-opacity="0.4"/>
<ellipse cx="1210.5" cy="1002" rx="5.5" ry="6" fill="white" fill-opacity="0.4"/>
<ellipse cx="822.5" cy="1008" rx="5.5" ry="6" fill="white" fill-opacity="0.4"/>
<ellipse cx="621.5" cy="1008" rx="5.5" ry="6" fill="white" fill-opacity="0.4"/>
<ellipse cx="292.5" cy="1008" rx="5.5" ry="6" fill="white" fill-opacity="0.4"/>
<ellipse cx="47.5" cy="842" rx="5.5" ry="6" fill="white" fill-opacity="0.4"/>
<ellipse cx="703.5" cy="106" rx="5.5" ry="6" fill="white" fill-opacity="0.4"/>
<ellipse cx="898.5" cy="56" rx="5.5" ry="6" fill="white" fill-opacity="0.4"/>
<ellipse cx="369.5" cy="112" rx="5.5" ry="6" fill="white" fill-opacity="0.4"/>
<ellipse cx="177.5" cy="47" rx="5.5" ry="6" fill="white" fill-opacity="0.4"/>
<ellipse cx="90.5" cy="484" rx="5.5" ry="6" fill="white" fill-opacity="0.4"/>
<ellipse cx="318.5" cy="661" rx="5.5" ry="6" fill="white" fill-opacity="0.4"/>
<ellipse cx="440.5" cy="824" rx="5.5" ry="6" fill="white" fill-opacity="0.4"/>
<defs>
<linearGradient id="paint0_linear_30_1206" x1="720" y1="0" x2="720" y2="1028" gradientUnits="userSpaceOnUse">
<stop stop-color="#3A1048"/>
<stop offset="0.333333" stop-color="#3F114F"/>
<stop offset="0.666667" stop-color="#3B1249"/>
<stop offset="1" stop-color="#370F45"/>
</linearGradient>
</defs>
</svg>
