<svg width="1440" height="330" viewBox="0 0 1440 330" fill="none" xmlns="http://www.w3.org/2000/svg">
<g clip-path="url(#clip0_70_144)">
<rect y="190" width="1440" height="139" fill="#8B5CF5"/>
<path d="M1440 59.77V266H1069C1068.71 266.967 1068.38 267.927 1068 268.88C1055.62 302.63 1008.49 318.8 961.28 306.18C959.74 305.77 958.19 305.33 956.64 304.85L955.05 304.35C954.36 304.13 953.67 303.9 952.99 303.66C952.31 303.42 951.4 303.1 950.61 302.81L949.61 302.45C940.274 298.991 931.414 294.364 923.24 288.68C922.13 287.9 921.05 287.11 919.99 286.3L918.52 285.17C917.91 284.69 917.31 284.17 916.72 283.71L915.37 282.57C914.87 282.15 914.37 281.72 913.9 281.29C912.9 280.42 911.99 279.55 911.07 278.66C910.61 278.22 910.16 277.77 909.71 277.32L908.39 275.96C907.82 275.36 907.26 274.75 906.71 274.14L905.87 273.14C905.47 272.68 905.07 272.22 904.68 271.75C903.1 269.86 901.62 267.92 900.25 265.95H889.25C899.75 283.39 919.54 299.8 945.33 310.39C991.56 329.39 1040.14 322.75 1056.2 295.89C1055.62 297.76 1054.9 299.582 1054.04 301.34C1039.76 330.53 989.44 338.27 941.66 318.64C911.82 306.39 890.03 286.37 881.34 265.95H565C557.92 285.5 531.71 301.27 501.12 303.62H500.61L498.15 303.77L496.75 303.83C496.1 303.83 495.45 303.83 494.8 303.83H492.3C459.7 303.52 435.14 287.28 434.82 265.83H0V118C190 46.2 487.29 0 821.5 0C1053.23 0 1267.23 22.22 1440 59.77Z" fill="#8B5CF5"/>
<path d="M330.651 159.608C332.736 119.572 289.781 84.7919 234.71 81.925C179.639 79.0582 133.306 109.19 131.222 149.226C129.137 189.262 172.092 224.042 227.163 226.909C282.234 229.776 328.567 199.644 330.651 159.608Z" fill="#4D2FA2"/>
<path d="M309.693 178.466C311.783 148.649 276.886 121.913 231.748 118.749C186.61 115.585 148.325 137.191 146.234 167.007C144.144 196.824 179.041 223.56 224.179 226.724C269.317 229.888 307.603 208.282 309.693 178.466Z" fill="#9A7BF7"/>
<path d="M323 196.57C322.767 198.677 322.373 200.763 321.82 202.81C312.63 236.81 260.82 255.23 206.15 244.09C151.48 232.95 114.57 196.39 123.76 162.44C124.06 161.34 124.4 160.24 124.76 159.17C121.32 191.24 156.98 224.1 208.33 234.56C261.31 245.35 311.49 228.41 323 196.57Z" fill="#4E2FA2"/>
<path d="M785.402 86.4513C788.13 56.0653 754.097 28.1787 709.387 24.1648C664.677 20.151 626.221 41.5298 623.494 71.9158C620.766 102.302 654.799 130.188 699.509 134.202C744.219 138.216 782.674 116.837 785.402 86.4513Z" fill="#4D2FA2"/>
<path d="M766.846 100.321C769.414 77.7071 741.852 56.0075 705.282 51.8539C668.713 47.7003 636.986 62.6656 634.417 85.2798C631.849 107.894 659.412 129.594 695.981 133.747C732.55 137.901 764.277 122.936 766.846 100.321Z" fill="#9A7BF7"/>
<path d="M776.15 116.31C775.805 117.9 775.33 119.458 774.73 120.97C764.73 146.14 721.26 157.15 677.64 145.57C634.02 133.99 606.75 104.21 616.75 79.0499C617.08 78.2299 617.44 77.4199 617.83 76.6299C612.65 100.7 639.19 127.63 680.14 138.49C722.35 149.69 764.39 139.75 776.15 116.31Z" fill="#4E2FA2"/>
<path d="M1340.88 165.191C1353.79 123.636 1316.38 75.0734 1257.32 56.7235C1198.26 38.3736 1139.92 57.1851 1127.01 98.7401C1114.1 140.295 1151.51 188.857 1210.57 207.207C1269.63 225.557 1327.97 206.746 1340.88 165.191Z" fill="#4D2FA2"/>
<path d="M1313.56 179.034C1323.62 148.191 1292.66 110.434 1244.41 94.7012C1196.16 78.9682 1148.89 91.2173 1138.83 122.06C1128.78 152.903 1159.74 190.66 1207.99 206.393C1256.24 222.126 1303.5 209.877 1313.56 179.034Z" fill="#9A7BF7"/>
<path d="M1323.76 201.24C1322.99 203.41 1322.04 205.514 1320.93 207.53C1302.54 240.97 1241.62 246.6 1184.86 220.12C1128.1 193.64 1097 145.12 1115.39 111.64C1115.99 110.55 1116.63 109.49 1117.32 108.45C1105.65 141.45 1136.32 185.78 1189.62 210.64C1244.53 236.26 1303.32 231.82 1323.76 201.24Z" fill="#4E2FA2"/>
<path d="M1069 266C1068.71 266.967 1068.38 267.927 1068 268.88C1055.62 302.63 1008.49 318.8 961.28 306.18C959.74 305.77 958.19 305.33 956.64 304.85L955.05 304.35C954.36 304.13 953.67 303.9 952.99 303.66C952.31 303.42 951.4 303.1 950.61 302.81L949.61 302.45C940.274 298.991 931.414 294.364 923.24 288.68C922.13 287.9 921.05 287.11 919.99 286.3L918.52 285.17C917.91 284.69 917.31 284.17 916.72 283.71L915.37 282.57C914.87 282.15 914.37 281.72 913.9 281.29C912.9 280.42 911.99 279.55 911.07 278.66C910.61 278.22 910.16 277.77 909.71 277.32L908.39 275.96C907.82 275.36 907.26 274.75 906.71 274.14L905.87 273.14C905.47 272.68 905.07 272.22 904.68 271.75C903.1 269.86 901.62 267.92 900.25 265.95C889.11 249.89 885.36 231.54 891.6 214.52C904.39 179.66 954.25 163.52 1002.96 178.52C1050.32 193.2 1079.17 231.82 1069 266Z" fill="#4D2FA2"/>
<path d="M1046.29 280.1C1037.13 305.1 999.68 316.28 961.29 306.18C959.75 305.77 958.2 305.33 956.65 304.85L955.06 304.35C954.37 304.13 953.68 303.9 953 303.66C952.32 303.42 951.41 303.1 950.62 302.81C928.79 294.75 912.23 281.02 904.42 266C899.2 256 897.88 245.38 901.5 235.52C911.03 209.52 951.17 198.46 991.16 210.77C1024.09 220.9 1046.64 243.77 1048.25 266C1048.62 270.786 1047.95 275.596 1046.29 280.1V280.1Z" fill="#9A7BF7"/>
<path d="M1056.18 295.94C1055.6 297.81 1054.88 299.632 1054.02 301.39C1039.74 330.58 989.42 338.32 941.64 318.69C912.312 306.65 890.759 287.105 881.778 267.05C881.622 266.7 881.469 266.35 881.32 266C876.09 253.71 875.61 241.28 880.97 230.32C881.43 229.32 881.97 228.44 882.48 227.53C878.77 239.64 881.48 253.11 889.23 266C889.441 266.351 889.656 266.701 889.874 267.05C900.528 284.097 920.038 300.063 945.31 310.44C991.54 329.43 1040.12 322.8 1056.18 295.94Z" fill="#4E2FA2"/>
<path d="M566.69 258.32C566.45 260.941 565.882 263.521 565 266C557.92 285.55 531.71 301.32 501.12 303.67H500.61L498.15 303.82L496.75 303.88C496.1 303.88 495.45 303.88 494.8 303.88H492.3C459.7 303.57 435.14 287.33 434.82 265.88C434.801 264.829 434.841 263.777 434.94 262.73C437.19 238.8 468.53 218.38 504.94 217.13C541.35 215.88 568.94 234.38 566.69 258.32Z" fill="#4D2FA2"/>
<path d="M553.84 269.76C552.25 286.76 529.03 301.38 501.07 303.67H500.56L498.1 303.82L496.7 303.88C496.05 303.88 495.4 303.88 494.75 303.88H492.25C464.58 303.49 444.06 290.34 445.65 273.41C445.909 270.805 446.634 268.268 447.79 265.92C454.79 251.47 477.2 240.13 502.79 239.25C530.53 238.25 552.22 249.97 553.79 265.92C553.937 267.195 553.954 268.482 553.84 269.76Z" fill="#9A7BF7"/>
</g>
<defs>
<clipPath id="clip0_70_144">
<rect width="1440" height="329.54" fill="white"/>
</clipPath>
</defs>
</svg>
