<svg width="1440" height="960" viewBox="0 0 1440 960" fill="none" xmlns="http://www.w3.org/2000/svg">
<path d="M1440 0.0991211H0V960.099H1440V0.0991211Z" fill="#FBBF24"/>
<path d="M679.733 196.959C693.54 158.561 662.08 114.044 609.465 97.5289C556.85 81.0135 503.005 98.7531 489.198 137.151C475.391 175.55 506.851 220.066 559.466 236.581C612.081 253.097 665.926 235.357 679.733 196.959Z" fill="#AD800C"/>
<path d="M656.304 209.314C666.594 180.699 639.921 146.511 596.73 132.954C553.539 119.397 510.184 131.603 499.895 160.219C489.606 188.834 516.279 223.022 559.47 236.579C602.661 250.137 646.015 237.93 656.304 209.314Z" fill="#FFC83E"/>
<path d="M667 226.872C666.379 228.94 665.599 230.963 664.664 232.924C649.273 265.247 595.026 273.826 543.523 252.083C492.021 230.34 462.676 186.514 478.117 154.191C478.616 153.138 479.115 152.105 479.744 151.099C470.332 182.652 499.107 222.512 547.476 242.94C597.332 263.979 649.713 256.668 667 226.872Z" fill="#AD800C"/>
<path d="M1147.12 111.108C1178.92 92.8929 1193.39 60.8834 1179.43 39.6128C1165.48 18.3422 1128.38 15.8653 1096.58 34.0805C1064.78 52.2957 1050.31 84.3052 1064.27 105.576C1078.23 126.846 1115.32 129.323 1147.12 111.108Z" fill="#AD800C"/>
<path d="M1145.15 112.276C1171.56 97.829 1184.81 73.1 1174.74 57.0425C1164.68 40.985 1135.11 39.6797 1108.71 54.1269C1082.3 68.5741 1069.05 93.3031 1079.11 109.361C1089.17 125.418 1118.74 126.723 1145.15 112.276Z" fill="#FFC83E"/>
<path d="M1188.93 62.0107C1189.58 63.1867 1190.12 64.41 1190.56 65.6685C1197.87 86.4956 1175.57 114.312 1140.78 127.795C1105.99 141.279 1071.82 135.316 1064.57 114.489C1064.33 113.808 1064.12 113.117 1063.95 112.427C1073.78 130.259 1105.86 134.738 1138.52 122.075C1172.18 109.04 1194.14 82.6232 1188.93 62.0107Z" fill="#AD800C"/>
<path d="M1335.58 499.621C1357.71 468.39 1338.6 420.15 1292.9 391.875C1247.2 363.601 1192.2 365.998 1170.07 397.23C1147.94 428.461 1167.04 476.701 1212.75 504.976C1258.45 533.25 1313.44 530.853 1335.58 499.621Z" fill="#AD800C"/>
<path d="M1300.93 504.212C1319.24 481.904 1305.32 443.227 1269.85 417.825C1234.38 392.423 1190.79 389.915 1172.49 412.223C1154.19 434.531 1168.1 473.208 1203.57 498.61C1239.04 524.012 1282.63 526.52 1300.93 504.212Z" fill="#FFC83E"/>
<path d="M1291 530.228C1289.2 531.435 1287.32 532.519 1285.35 533.472C1252.51 549.463 1199.07 530.21 1165.97 490.466C1132.87 450.723 1132.65 405.543 1165.48 389.552C1166.55 389.036 1167.65 388.549 1168.76 388.099C1141.72 406.34 1143.82 448.445 1174.9 485.761C1206.93 524.211 1257.98 543.473 1291 530.228Z" fill="#AD800C"/>
<path d="M277.947 430.273C282.985 395.996 248.764 363.293 201.513 357.23C154.261 351.167 111.871 374.039 106.833 408.316C101.794 442.593 136.015 475.295 183.267 481.359C230.519 487.422 272.908 464.55 277.947 430.273Z" fill="#AD800C"/>
<path d="M256.263 446.269C261.202 420.853 234.03 394.96 195.574 388.437C157.117 381.914 121.939 397.23 117 422.646C112.061 448.062 139.233 473.954 177.689 480.478C216.146 487.001 251.325 471.685 256.263 446.269Z" fill="#FFC83E"/>
<path d="M264 465.738C263.433 467.504 262.729 469.229 261.895 470.9C248.029 498.626 200.268 508.305 155.234 492.53C110.199 476.754 84.935 441.509 98.8002 413.755C99.2514 412.82 99.7426 411.959 100.264 411.099C91.622 437.9 116.525 469.89 158.793 484.703C202.383 499.973 248.481 491.407 264 465.738Z" fill="#AD800C"/>
<path d="M128.096 56.0636C116.147 39.9973 88.7994 40.6178 67.0123 57.4493C45.2252 74.2809 37.2493 100.95 49.1976 117.016C61.146 133.082 88.494 132.462 110.281 115.63C132.068 98.7988 140.044 72.1298 128.096 56.0636Z" fill="#AD800C"/>
<path d="M125.772 71.4608C117.404 59.0563 95.7197 59.5792 77.3387 72.6286C58.9578 85.6781 50.8408 106.313 59.2089 118.717C67.5771 131.122 89.2615 130.599 107.642 117.549C126.023 104.5 134.14 83.8653 125.772 71.4608Z" fill="#FFC83E"/>
<path d="M137.078 75.974C137.575 76.9361 137.999 77.9373 138.347 78.9698C144.117 96.11 128.531 119.693 103.548 131.641C78.5645 143.589 53.6442 139.388 47.863 122.236C47.6616 121.664 47.5076 121.108 47.3659 120.538C54.8948 135.154 78.3227 138.16 101.774 126.948C125.956 115.383 141.319 92.9425 137.078 75.974Z" fill="#AD800C"/>
<path d="M881.808 500.687C884.768 472.171 852.004 445.868 808.626 441.937C765.249 438.006 727.685 457.936 724.725 486.451C721.765 514.967 754.529 541.27 797.907 545.201C841.284 549.132 878.848 529.202 881.808 500.687Z" fill="#AD800C"/>
<path d="M861.952 514.364C865.094 493.157 838.996 472.26 803.66 467.691C768.325 463.121 737.133 476.609 733.992 497.817C730.85 519.024 756.949 539.92 792.284 544.49C827.619 549.059 858.811 535.571 861.952 514.364Z" fill="#FFC83E"/>
<path d="M869 531.923C868.476 533.377 867.831 534.791 867.07 536.153C854.347 558.89 810.55 566.83 769.245 553.89C727.94 540.949 704.765 512.025 717.488 489.288C717.9 488.546 718.352 487.813 718.825 487.099C710.936 509.084 733.739 535.337 772.521 547.48C812.479 559.994 854.769 552.971 869 531.923Z" fill="#AD800C"/>
<path d="M341.68 819.765C386.151 814.957 419.343 787.968 415.815 759.483C412.288 730.998 373.377 711.804 328.906 716.611C284.434 721.419 251.242 748.408 254.77 776.893C258.297 805.378 297.208 824.572 341.68 819.765Z" fill="#AD800C"/>
</svg>
