<svg width="1440" height="194" viewBox="0 0 1440 194" fill="none" xmlns="http://www.w3.org/2000/svg">
<path d="M1440 100.24V194H0C190.87 73.7821 485.44 0 815.85 0C1049.96 0 1266.04 36.0424 1440 100.24Z" fill="#FBBF24"/>
<path d="M830.991 107.391C836.727 83.5713 814.153 57.7258 780.571 49.6638C746.988 41.6018 715.113 54.3761 709.377 78.1961C703.64 102.016 726.214 127.861 759.797 135.924C793.379 143.986 825.254 131.211 830.991 107.391Z" fill="#AD800C"/>
<path d="M814.431 116.73C819.333 99.1066 801.202 78.6916 773.935 71.1316C746.668 63.5715 720.59 71.7293 715.688 89.3524C710.786 106.976 728.917 127.391 756.184 134.951C783.452 142.511 809.53 134.353 814.431 116.73Z" fill="#FFC83E"/>
<path d="M818.49 131.37C817.963 132.57 817.344 133.728 816.64 134.834C804.86 153.245 769.99 156.15 738.76 141.334C707.53 126.518 691.76 99.5608 703.51 81.1503C703.89 80.5412 704.3 79.9622 704.73 79.3931C696.8 97.584 712.5 122.185 741.83 136.102C772.05 150.45 805.67 148.243 818.49 131.37Z" fill="#AD800C"/>
</svg>
