<svg width="1440" height="1027" viewBox="0 0 1440 1027" fill="none" xmlns="http://www.w3.org/2000/svg">
<path d="M1440 0H0V1027H1440V0Z" fill="#FBBF24"/>
<path d="M689.733 236.674C703.54 195.577 672.08 147.931 619.465 130.255C566.85 112.579 513.005 131.566 499.198 172.663C485.391 213.76 516.851 261.405 569.466 279.081C622.081 296.757 675.926 277.771 689.733 236.674Z" fill="#AD800C"/>
<path d="M666.305 249.898C676.594 219.271 649.921 182.681 606.73 168.17C563.539 153.66 520.184 166.725 509.895 197.351C499.606 227.978 526.279 264.569 569.47 279.079C612.661 293.589 656.015 280.524 666.305 249.898Z" fill="#FFC83E"/>
<path d="M677 268.61C676.378 270.811 675.596 272.963 674.66 275.05C659.24 309.45 604.89 318.58 553.29 295.44C501.69 272.3 472.29 225.66 487.76 191.26C488.26 190.14 488.76 189.04 489.39 187.97C479.96 221.55 508.79 263.97 557.25 285.71C607.2 308.1 659.68 300.32 677 268.61Z" fill="#AD800C"/>
<path d="M194.97 111.624C184.178 89.9131 152.897 83.5129 125.101 97.329C97.3048 111.145 83.5201 139.946 94.3119 161.657C105.104 183.369 136.385 189.769 164.181 175.953C191.977 162.136 205.762 133.336 194.97 111.624Z" fill="#AD800C"/>
<path d="M190.935 126.118C182.892 109.939 157.876 106.017 135.058 117.358C112.24 128.7 100.263 151.01 108.305 167.19C116.347 183.37 141.364 187.292 164.182 175.95C186.999 164.609 198.977 142.298 190.935 126.118Z" fill="#FFC83E"/>
<path d="M202.563 129.289C203.188 130.405 203.73 131.565 204.185 132.76C211.69 152.461 193.808 177.564 164.253 188.818C134.698 200.073 104.628 193.255 97.1425 173.534C96.8974 172.894 96.6601 172.261 96.4861 171.589C106.036 188.597 134.211 193.971 161.971 183.405C190.578 172.506 208.254 148.677 202.563 129.289Z" fill="#AD800C"/>
<path d="M1165.12 165.741C1196.92 146.246 1211.39 111.986 1197.43 89.2207C1183.48 66.4551 1146.38 63.8041 1114.58 83.2996C1082.78 102.795 1068.31 137.054 1082.27 159.82C1096.23 182.586 1133.32 185.236 1165.12 165.741Z" fill="#AD800C"/>
<path d="M1163.15 166.991C1189.56 151.528 1202.81 125.061 1192.74 107.875C1182.68 90.6893 1153.11 89.2922 1126.71 104.755C1100.3 120.217 1087.05 146.684 1097.11 163.871C1107.17 181.057 1136.74 182.454 1163.15 166.991Z" fill="#FFC83E"/>
<path d="M1207.04 113.142C1207.69 114.402 1208.23 115.713 1208.67 117.062C1215.98 139.382 1193.67 169.192 1158.86 183.642C1124.05 198.092 1089.86 191.702 1082.6 169.382C1082.36 168.652 1082.15 167.912 1081.98 167.172C1091.82 186.282 1123.92 191.082 1156.6 177.512C1190.28 163.542 1212.25 135.232 1207.04 113.142Z" fill="#AD800C"/>
<path d="M1345.58 560.609C1367.71 527.182 1348.6 475.552 1302.9 445.29C1257.2 415.028 1202.2 417.594 1180.07 451.021C1157.94 484.448 1177.04 536.078 1222.75 566.34C1268.45 596.602 1323.44 594.036 1345.58 560.609Z" fill="#AD800C"/>
<path d="M1310.93 565.523C1329.24 541.647 1315.32 500.251 1279.85 473.064C1244.38 445.876 1200.79 443.192 1182.49 467.068C1164.19 490.944 1178.1 532.339 1213.57 559.526C1249.04 586.714 1292.63 589.399 1310.93 565.523Z" fill="#FFC83E"/>
<path d="M1300.59 592.95C1298.8 594.238 1296.92 595.394 1294.97 596.41C1262.29 613.47 1209.1 592.93 1176.16 550.53C1143.22 508.13 1143 459.93 1175.67 442.87C1176.74 442.32 1177.83 441.8 1178.94 441.32C1152.03 460.78 1154.12 505.7 1185.05 545.51C1216.92 586.53 1267.73 607.08 1300.59 592.95Z" fill="#AD800C"/>
<path d="M287.947 486.386C292.985 449.7 258.764 414.699 211.513 408.209C164.261 401.72 121.871 426.199 116.833 462.885C111.794 499.572 146.015 534.573 193.267 541.062C240.519 547.552 282.908 523.072 287.947 486.386Z" fill="#AD800C"/>
<path d="M266.263 503.507C271.202 476.304 244.03 448.592 205.574 441.61C167.117 434.628 131.939 451.021 127 478.223C122.061 505.426 149.233 533.138 187.689 540.12C226.146 547.102 261.325 530.71 266.263 503.507Z" fill="#FFC83E"/>
<path d="M273.94 524.23C273.374 526.118 272.673 527.963 271.84 529.75C258.01 559.4 210.37 569.75 165.45 552.88C120.53 536.01 95.3302 498.32 109.16 468.64C109.61 467.64 110.1 466.72 110.62 465.8C102 494.46 126.84 528.67 169 544.51C212.48 560.84 258.46 551.68 273.94 524.23Z" fill="#AD800C"/>
<path d="M891.808 561.75C894.768 531.23 862.004 503.078 818.626 498.871C775.249 494.664 737.685 515.994 734.725 546.514C731.765 577.033 764.529 605.185 807.907 609.392C851.284 613.6 888.848 592.269 891.808 561.75Z" fill="#AD800C"/>
<path d="M871.952 576.388C875.094 553.69 848.995 531.325 813.66 526.435C778.325 521.544 747.133 535.98 743.992 558.678C740.85 581.375 766.949 603.74 802.284 608.631C837.619 613.522 868.811 599.086 871.952 576.388Z" fill="#FFC83E"/>
<path d="M878.71 595.11C878.189 596.677 877.547 598.202 876.79 599.67C864.13 624.18 820.55 632.74 779.45 618.79C738.35 604.84 715.29 573.66 727.95 549.15C728.36 548.35 728.81 547.56 729.28 546.79C721.43 570.49 744.12 598.79 782.71 611.88C822.47 625.37 864.55 617.8 878.71 595.11Z" fill="#AD800C"/>
<path d="M351.68 903.254C396.151 898.109 429.343 869.223 425.815 838.736C422.288 808.249 383.377 787.705 338.906 792.851C294.434 797.996 261.242 826.882 264.77 857.369C268.297 887.856 307.208 908.4 351.68 903.254Z" fill="#AD800C"/>
<path d="M350.843 904.704C387.476 901.773 415.685 880.8 413.85 857.858C412.015 834.916 380.83 818.693 344.197 821.624C307.564 824.555 279.355 845.529 281.19 868.47C283.025 891.412 314.21 907.635 350.843 904.704Z" fill="#FFC83E"/>
<path d="M419.46 874.55C419.25 876.199 418.915 877.831 418.46 879.43C410.72 906.09 368.62 923.58 324.46 918.51C280.3 913.44 250.73 887.7 258.46 861.03C258.72 860.157 259.01 859.297 259.33 858.45C256.26 883.31 284.84 906.28 326.33 911.05C369.05 915.96 409.83 899.75 419.46 874.55Z" fill="#AD800C"/>
<path d="M1086.2 961.177C1134.27 956.285 1170.36 923.964 1166.8 888.987C1163.24 854.009 1121.39 829.619 1073.31 834.511C1025.23 839.403 989.143 871.724 992.702 906.702C996.261 941.68 1038.12 966.069 1086.2 961.177Z" fill="#AD800C"/>
<path d="M1083.65 960.336C1123.17 957.025 1153.43 933.166 1151.24 907.046C1149.05 880.926 1115.24 862.436 1075.73 865.748C1036.21 869.059 1005.95 892.918 1008.14 919.037C1010.33 945.157 1044.14 963.647 1083.65 960.336Z" fill="#FFC83E"/>
<path d="M1165.15 921C1165.23 922.858 1165.17 924.721 1164.97 926.57C1161.59 957.22 1119.22 980.19 1070.36 977.88C1021.5 975.57 984.63 948.88 988.02 918.19C988.13 917.19 988.28 916.19 988.47 915.19C989.81 943.45 1025.12 967.19 1070.99 969.31C1118.27 971.57 1159.44 950.14 1165.15 921Z" fill="#AD800C"/>
</svg>
