<svg width="1335" height="287" viewBox="0 0 1335 287" fill="none" xmlns="http://www.w3.org/2000/svg">
<path d="M86.9189 20.1572V22.1572H88.9189V20.1572H86.9189ZM54.2529 20.1572V18.1572H52.2529V20.1572H54.2529ZM54.2529 109V111H56.2529V109H54.2529ZM32.2803 109H30.2803V111H32.2803V109ZM32.2803 20.1572H34.2803V18.1572H32.2803V20.1572ZM0.0537109 20.1572H-1.94629V22.1572H0.0537109V20.1572ZM0.0537109 2.35938V0.359375H-1.94629V2.35938H0.0537109ZM86.9189 2.35938H88.9189V0.359375H86.9189V2.35938ZM86.9189 18.1572H54.2529V22.1572H86.9189V18.1572ZM52.2529 20.1572V109H56.2529V20.1572H52.2529ZM54.2529 107H32.2803V111H54.2529V107ZM34.2803 109V20.1572H30.2803V109H34.2803ZM32.2803 18.1572H0.0537109V22.1572H32.2803V18.1572ZM2.05371 20.1572V2.35938H-1.94629V20.1572H2.05371ZM0.0537109 4.35938H86.9189V0.359375H0.0537109V4.35938ZM84.9189 2.35938V20.1572H88.9189V2.35938H84.9189ZM186.309 109V111H188.309V109H186.309ZM164.336 109H162.336V111H164.336V109ZM164.336 63.2969H166.336V61.2969H164.336V63.2969ZM121.489 63.2969V61.2969H119.489V63.2969H121.489ZM121.489 109V111H123.489V109H121.489ZM99.5166 109H97.5166V111H99.5166V109ZM99.5166 2.35938V0.359375H97.5166V2.35938H99.5166ZM121.489 2.35938H123.489V0.359375H121.489V2.35938ZM121.489 45.5723H119.489V47.5723H121.489V45.5723ZM164.336 45.5723V47.5723H166.336V45.5723H164.336ZM164.336 2.35938V0.359375H162.336V2.35938H164.336ZM186.309 2.35938H188.309V0.359375H186.309V2.35938ZM186.309 107H164.336V111H186.309V107ZM166.336 109V63.2969H162.336V109H166.336ZM164.336 61.2969H121.489V65.2969H164.336V61.2969ZM119.489 63.2969V109H123.489V63.2969H119.489ZM121.489 107H99.5166V111H121.489V107ZM101.517 109V2.35938H97.5166V109H101.517ZM99.5166 4.35938H121.489V0.359375H99.5166V4.35938ZM119.489 2.35938V45.5723H123.489V2.35938H119.489ZM121.489 47.5723H164.336V43.5723H121.489V47.5723ZM166.336 45.5723V2.35938H162.336V45.5723H166.336ZM164.336 4.35938H186.309V0.359375H164.336V4.35938ZM184.309 2.35938V109H188.309V2.35938H184.309ZM269.731 62.7842V64.7842H271.731V62.7842H269.731ZM227.544 62.7842V60.7842H225.544V62.7842H227.544ZM227.544 91.3486H225.544V93.3486H227.544V91.3486ZM277.056 91.3486H279.056V89.3486H277.056V91.3486ZM277.056 109V111H279.056V109H277.056ZM205.571 109H203.571V111H205.571V109ZM205.571 2.35938V0.359375H203.571V2.35938H205.571ZM276.909 2.35938H278.909V0.359375H276.909V2.35938ZM276.909 20.1572V22.1572H278.909V20.1572H276.909ZM227.544 20.1572V18.1572H225.544V20.1572H227.544ZM227.544 45.5723H225.544V47.5723H227.544V45.5723ZM269.731 45.5723H271.731V43.5723H269.731V45.5723ZM269.731 60.7842H227.544V64.7842H269.731V60.7842ZM225.544 62.7842V91.3486H229.544V62.7842H225.544ZM227.544 93.3486H277.056V89.3486H227.544V93.3486ZM275.056 91.3486V109H279.056V91.3486H275.056ZM277.056 107H205.571V111H277.056V107ZM207.571 109V2.35938H203.571V109H207.571ZM205.571 4.35938H276.909V0.359375H205.571V4.35938ZM274.909 2.35938V20.1572H278.909V2.35938H274.909ZM276.909 18.1572H227.544V22.1572H276.909V18.1572ZM225.544 20.1572V45.5723H229.544V20.1572H225.544ZM227.544 47.5723H269.731V43.5723H227.544V47.5723ZM267.731 45.5723V62.7842H271.731V45.5723H267.731ZM326.714 50.4062L324.896 51.2403L326.708 55.1889L328.53 51.2449L326.714 50.4062ZM348.906 2.35938V0.359375H347.627L347.091 1.52073L348.906 2.35938ZM372.93 2.35938L374.708 3.2752L376.21 0.359375H372.93V2.35938ZM337.92 70.3281L336.142 69.4123L335.92 69.8433V70.3281H337.92ZM337.92 109V111H339.92V109H337.92ZM315.581 109H313.581V111H315.581V109ZM315.581 70.3281H317.581V69.8433L317.359 69.4123L315.581 70.3281ZM280.571 2.35938V0.359375H277.291L278.793 3.2752L280.571 2.35938ZM304.668 2.35938L306.486 1.5253L305.951 0.359375H304.668V2.35938ZM328.53 51.2449L350.722 3.19802L347.091 1.52073L324.898 49.5676L328.53 51.2449ZM348.906 4.35938H372.93V0.359375H348.906V4.35938ZM371.152 1.44355L336.142 69.4123L339.698 71.2439L374.708 3.2752L371.152 1.44355ZM335.92 70.3281V109H339.92V70.3281H335.92ZM337.92 107H315.581V111H337.92V107ZM317.581 109V70.3281H313.581V109H317.581ZM317.359 69.4123L282.349 1.44355L278.793 3.2752L313.803 71.2439L317.359 69.4123ZM280.571 4.35938H304.668V0.359375H280.571V4.35938ZM302.85 3.19345L324.896 51.2403L328.532 49.5722L306.486 1.5253L302.85 3.19345ZM480.229 87.0273L482.125 86.3892L481.666 85.0273H480.229V87.0273ZM441.704 87.0273V85.0273H440.263L439.807 86.3949L441.704 87.0273ZM434.38 109V111H435.821L436.277 109.632L434.38 109ZM411.016 109L409.141 108.302L408.137 111H411.016V109ZM450.713 2.35938V0.359375H449.323L448.839 1.66164L450.713 2.35938ZM471.074 2.35938L472.947 1.65826L472.461 0.359375H471.074V2.35938ZM510.991 109V111H513.875L512.864 108.299L510.991 109ZM487.627 109L485.731 109.638L486.19 111H487.627V109ZM447.637 69.2295L445.739 68.5991L444.865 71.2295H447.637V69.2295ZM474.297 69.2295V71.2295H477.078L476.193 68.5929L474.297 69.2295ZM460.894 29.3125L462.79 28.6759L460.883 22.9984L458.995 28.6821L460.894 29.3125ZM480.229 85.0273H441.704V89.0273H480.229V85.0273ZM439.807 86.3949L432.483 108.368L436.277 109.632L443.601 87.6598L439.807 86.3949ZM434.38 107H411.016V111H434.38V107ZM412.89 109.698L452.587 3.05711L448.839 1.66164L409.141 108.302L412.89 109.698ZM450.713 4.35938H471.074V0.359375H450.713V4.35938ZM469.201 3.06049L509.118 109.701L512.864 108.299L472.947 1.65826L469.201 3.06049ZM510.991 107H487.627V111H510.991V107ZM489.522 108.362L482.125 86.3892L478.334 87.6655L485.731 109.638L489.522 108.362ZM447.637 71.2295H474.297V67.2295H447.637V71.2295ZM476.193 68.5929L462.79 28.6759L458.998 29.9491L472.401 69.8661L476.193 68.5929ZM458.995 28.6821L445.739 68.5991L449.535 69.8599L462.792 29.9429L458.995 28.6821ZM560.43 69.9619L562.21 69.0502L561.652 67.9619H560.43V69.9619ZM542.925 69.9619V67.9619H540.925V69.9619H542.925ZM542.925 109V111H544.925V109H542.925ZM520.952 109H518.952V111H520.952V109ZM520.952 2.35938V0.359375H518.952V2.35938H520.952ZM595.22 52.8232L593.543 51.7333L593.54 51.7374L595.22 52.8232ZM580.938 64.3955L580.116 62.5719L578.173 63.4473L579.17 65.3313L580.938 64.3955ZM604.009 107.975H606.009V107.478L605.776 107.039L604.009 107.975ZM604.009 109V111H606.009V109H604.009ZM580.425 109L578.645 109.912L579.202 111H580.425V109ZM542.925 52.1641H540.925V54.1641H542.925V52.1641ZM573.467 47.9893L574.82 49.4616L574.827 49.4557L574.833 49.4498L573.467 47.9893ZM573.687 24.4785L572.26 25.8806L572.266 25.8867L572.272 25.8927L573.687 24.4785ZM542.925 20.1572V18.1572H540.925V20.1572H542.925ZM560.43 67.9619H542.925V71.9619H560.43V67.9619ZM540.925 69.9619V109H544.925V69.9619H540.925ZM542.925 107H520.952V111H542.925V107ZM522.952 109V2.35938H518.952V109H522.952ZM520.952 4.35938H560.576V0.359375H520.952V4.35938ZM560.576 4.35938C572.903 4.35938 582.104 7.10891 588.457 12.3277L590.996 9.23677C583.677 3.22508 573.444 0.359375 560.576 0.359375V4.35938ZM588.457 12.3277C594.754 17.5002 597.98 24.8241 597.98 34.5859H601.98C601.98 23.84 598.371 15.2947 590.996 9.23677L588.457 12.3277ZM597.98 34.5859C597.98 41.5708 596.459 47.2472 593.543 51.7333L596.897 53.9132C600.328 48.6337 601.98 42.1519 601.98 34.5859H597.98ZM593.54 51.7374C590.666 56.1835 586.239 59.8144 580.116 62.5719L581.759 66.2191C588.429 63.2149 593.524 59.131 596.899 53.909L593.54 51.7374ZM579.17 65.3313L602.241 108.91L605.776 107.039L582.705 63.4597L579.17 65.3313ZM602.009 107.975V109H606.009V107.975H602.009ZM604.009 107H580.425V111H604.009V107ZM582.205 108.088L562.21 69.0502L558.65 70.8737L578.645 109.912L582.205 108.088ZM542.925 54.1641H560.649V50.1641H542.925V54.1641ZM560.649 54.1641C566.494 54.1641 571.313 52.6861 574.82 49.4616L572.113 46.5169C569.566 48.8588 565.84 50.1641 560.649 50.1641V54.1641ZM574.833 49.4498C578.341 46.1683 580.008 41.7151 580.008 36.3438H576.008C576.008 40.8357 574.647 44.1462 572.1 46.5287L574.833 49.4498ZM580.008 36.3438C580.008 30.9159 578.441 26.4042 575.101 23.0643L572.272 25.8927C574.694 28.3145 576.008 31.713 576.008 36.3438H580.008ZM575.113 23.0764C571.761 19.6664 566.772 18.1572 560.576 18.1572V22.1572C566.196 22.1572 569.948 23.5289 572.26 25.8806L575.113 23.0764ZM560.576 18.1572H542.925V22.1572H560.576V18.1572ZM540.925 20.1572V52.1641H544.925V20.1572H540.925ZM680.913 62.7842V64.7842H682.913V62.7842H680.913ZM638.726 62.7842V60.7842H636.726V62.7842H638.726ZM638.726 91.3486H636.726V93.3486H638.726V91.3486ZM688.237 91.3486H690.237V89.3486H688.237V91.3486ZM688.237 109V111H690.237V109H688.237ZM616.753 109H614.753V111H616.753V109ZM616.753 2.35938V0.359375H614.753V2.35938H616.753ZM688.091 2.35938H690.091V0.359375H688.091V2.35938ZM688.091 20.1572V22.1572H690.091V20.1572H688.091ZM638.726 20.1572V18.1572H636.726V20.1572H638.726ZM638.726 45.5723H636.726V47.5723H638.726V45.5723ZM680.913 45.5723H682.913V43.5723H680.913V45.5723ZM680.913 60.7842H638.726V64.7842H680.913V60.7842ZM636.726 62.7842V91.3486H640.726V62.7842H636.726ZM638.726 93.3486H688.237V89.3486H638.726V93.3486ZM686.237 91.3486V109H690.237V91.3486H686.237ZM688.237 107H616.753V111H688.237V107ZM618.753 109V2.35938H614.753V109H618.753ZM616.753 4.35938H688.091V0.359375H616.753V4.35938ZM686.091 2.35938V20.1572H690.091V2.35938H686.091ZM688.091 18.1572H638.726V22.1572H688.091V18.1572ZM636.726 20.1572V45.5723H640.726V20.1572H636.726ZM638.726 47.5723H680.913V43.5723H638.726V47.5723ZM678.913 45.5723V62.7842H682.913V45.5723H678.913ZM777.959 69.9619L779.739 69.0502L779.182 67.9619H777.959V69.9619ZM760.454 69.9619V67.9619H758.454V69.9619H760.454ZM760.454 109V111H762.454V109H760.454ZM738.481 109H736.481V111H738.481V109ZM738.481 2.35938V0.359375H736.481V2.35938H738.481ZM812.749 52.8232L811.072 51.7333L811.069 51.7374L812.749 52.8232ZM798.467 64.3955L797.645 62.5719L795.702 63.4473L796.699 65.3313L798.467 64.3955ZM821.538 107.975H823.538V107.478L823.306 107.039L821.538 107.975ZM821.538 109V111H823.538V109H821.538ZM797.954 109L796.174 109.912L796.731 111H797.954V109ZM760.454 52.1641H758.454V54.1641H760.454V52.1641ZM790.996 47.9893L792.35 49.4616L792.356 49.4557L792.362 49.4498L790.996 47.9893ZM791.216 24.4785L789.79 25.8806L789.796 25.8867L789.802 25.8927L791.216 24.4785ZM760.454 20.1572V18.1572H758.454V20.1572H760.454ZM777.959 67.9619H760.454V71.9619H777.959V67.9619ZM758.454 69.9619V109H762.454V69.9619H758.454ZM760.454 107H738.481V111H760.454V107ZM740.481 109V2.35938H736.481V109H740.481ZM738.481 4.35938H778.105V0.359375H738.481V4.35938ZM778.105 4.35938C790.433 4.35938 799.633 7.10891 805.986 12.3277L808.525 9.23677C801.207 3.22508 790.974 0.359375 778.105 0.359375V4.35938ZM805.986 12.3277C812.283 17.5002 815.51 24.8241 815.51 34.5859H819.51C819.51 23.84 815.9 15.2947 808.525 9.23677L805.986 12.3277ZM815.51 34.5859C815.51 41.5708 813.988 47.2472 811.072 51.7333L814.426 53.9132C817.858 48.6337 819.51 42.1519 819.51 34.5859H815.51ZM811.069 51.7374C808.195 56.1835 803.768 59.8144 797.645 62.5719L799.288 66.2191C805.958 63.2149 811.053 59.131 814.429 53.909L811.069 51.7374ZM796.699 65.3313L819.771 108.91L823.306 107.039L800.234 63.4597L796.699 65.3313ZM819.538 107.975V109H823.538V107.975H819.538ZM821.538 107H797.954V111H821.538V107ZM799.734 108.088L779.739 69.0502L776.179 70.8737L796.174 109.912L799.734 108.088ZM760.454 54.1641H778.179V50.1641H760.454V54.1641ZM778.179 54.1641C784.023 54.1641 788.842 52.6861 792.35 49.4616L789.642 46.5169C787.095 48.8588 783.369 50.1641 778.179 50.1641V54.1641ZM792.362 49.4498C795.87 46.1683 797.537 41.7151 797.537 36.3438H793.537C793.537 40.8357 792.177 44.1462 789.63 46.5287L792.362 49.4498ZM797.537 36.3438C797.537 30.9159 795.97 26.4042 792.63 23.0643L789.802 25.8927C792.223 28.3145 793.537 31.713 793.537 36.3438H797.537ZM792.642 23.0764C789.29 19.6664 784.302 18.1572 778.105 18.1572V22.1572C783.726 22.1572 787.478 23.5289 789.79 25.8806L792.642 23.0764ZM778.105 18.1572H760.454V22.1572H778.105V18.1572ZM758.454 20.1572V52.1641H762.454V20.1572H758.454ZM900.347 104.02L899.293 102.32L899.288 102.323L900.347 104.02ZM836.846 85.9287L835.044 86.7963L835.046 86.8007L836.846 85.9287ZM831.06 58.6826L829.06 58.6826L829.06 58.6921L831.06 58.6826ZM836.699 25.7236L834.893 24.8646L834.891 24.8694L836.699 25.7236ZM852.739 7.33984L853.789 9.04192L853.793 9.03986L852.739 7.33984ZM900.127 7.33984L899.068 9.03652L899.075 9.0409L899.082 9.04522L900.127 7.33984ZM916.167 25.7236L914.357 26.5736L914.36 26.5803L914.363 26.5869L916.167 25.7236ZM859.404 27.7012L861.042 28.849L861.047 28.8425L859.404 27.7012ZM853.325 52.8965L851.325 52.8877V52.8965H853.325ZM893.608 83.8047L895.257 84.9366L895.262 84.9301L893.608 83.8047ZM899.614 58.4629L901.614 58.4717V58.4629H899.614ZM919.88 58.0967C919.88 68.3594 918.066 77.2634 914.503 84.8595L918.124 86.5584C921.982 78.3343 923.88 68.8301 923.88 58.0967H919.88ZM914.503 84.8595C910.944 92.4449 905.874 98.2415 899.293 102.32L901.4 105.72C908.687 101.204 914.261 94.7934 918.124 86.5584L914.503 84.8595ZM899.288 102.323C892.752 106.402 885.216 108.465 876.616 108.465V112.465C885.887 112.465 894.172 110.231 901.406 105.716L899.288 102.323ZM876.616 108.465C868.114 108.465 860.596 106.426 854.004 102.387L851.914 105.798C859.189 110.255 867.443 112.465 876.616 112.465V108.465ZM854.004 102.387C847.421 98.3542 842.3 92.6004 838.646 85.0567L835.046 86.8007C839.008 94.9796 844.63 101.335 851.914 105.798L854.004 102.387ZM838.648 85.0611C834.988 77.4601 833.107 68.6795 833.06 58.6731L829.06 58.6921C829.11 69.1936 831.086 78.577 835.044 86.7963L838.648 85.0611ZM833.06 58.6826V53.4092H829.06V58.6826H833.06ZM833.06 53.4092C833.06 43.1503 834.896 34.2232 838.508 26.5779L834.891 24.8694C830.983 33.142 829.06 42.6719 829.06 53.4092H833.06ZM838.505 26.5826C842.165 18.888 847.264 13.0683 853.789 9.04192L851.689 5.63777C844.445 10.1075 838.851 16.5436 834.893 24.8646L838.505 26.5826ZM853.793 9.03986C860.382 4.9565 867.921 2.89453 876.47 2.89453V-1.10547C867.245 -1.10547 858.964 1.12944 851.686 5.63982L853.793 9.03986ZM876.47 2.89453C885.019 2.89453 892.531 4.95652 899.068 9.03652L901.186 5.64317C893.954 1.12942 885.694 -1.10547 876.47 -1.10547V2.89453ZM899.082 9.04522C905.653 13.0711 910.748 18.8872 914.357 26.5736L917.977 24.8736C914.067 16.5445 908.468 10.1047 901.172 5.63447L899.082 9.04522ZM914.363 26.5869C918.021 34.2312 919.88 43.131 919.88 53.3359H923.88C923.88 42.6425 921.93 33.1341 917.971 24.8603L914.363 26.5869ZM919.88 53.3359V58.0967H923.88V53.3359H919.88ZM901.614 53.2627C901.614 41.894 899.588 32.9271 895.255 26.6396L891.962 28.9092C895.637 34.2428 897.614 42.2681 897.614 53.2627H901.614ZM895.255 26.6396C890.856 20.2549 884.509 17.0586 876.47 17.0586V21.0586C883.274 21.0586 888.353 23.6728 891.962 28.9092L895.255 26.6396ZM876.47 17.0586C868.481 17.0586 862.162 20.2286 857.762 26.5599L861.047 28.8425C864.655 23.6503 869.712 21.0586 876.47 21.0586V17.0586ZM857.766 26.5533C853.428 32.7442 851.375 41.617 851.325 52.8877L855.325 52.9053C855.373 42.008 857.373 34.0839 861.042 28.849L857.766 26.5533ZM851.325 52.8965V58.0967H855.325V52.8965H851.325ZM851.325 58.0967C851.325 69.1922 853.359 78.0858 857.667 84.5479L860.995 82.3291C857.295 76.7794 855.325 68.7785 855.325 58.0967H851.325ZM857.667 84.5479C862.06 91.1374 868.461 94.4473 876.616 94.4473V90.4473C869.732 90.4473 864.61 87.7513 860.995 82.3291L857.667 84.5479ZM876.616 94.4473C884.605 94.4473 890.905 91.2762 895.257 84.9366L891.959 82.6728C888.401 87.8566 883.373 90.4473 876.616 90.4473V94.4473ZM895.262 84.9301C899.536 78.6504 901.565 69.7425 901.614 58.4717L897.614 58.4541C897.566 69.3513 895.591 77.3379 891.955 82.6793L895.262 84.9301ZM901.614 58.4629V53.2627H897.614V58.4629H901.614ZM959.819 91.3486H957.819V93.3486H959.819V91.3486ZM1006.47 91.3486H1008.47V89.3486H1006.47V91.3486ZM1006.47 109V111H1008.47V109H1006.47ZM937.847 109H935.847V111H937.847V109ZM937.847 2.35938V0.359375H935.847V2.35938H937.847ZM959.819 2.35938H961.819V0.359375H959.819V2.35938ZM959.819 93.3486H1006.47V89.3486H959.819V93.3486ZM1004.47 91.3486V109H1008.47V91.3486H1004.47ZM1006.47 107H937.847V111H1006.47V107ZM939.847 109V2.35938H935.847V109H939.847ZM937.847 4.35938H959.819V0.359375H937.847V4.35938ZM957.819 2.35938V91.3486H961.819V2.35938H957.819ZM1041.12 91.3486H1039.12V93.3486H1041.12V91.3486ZM1087.77 91.3486H1089.77V89.3486H1087.77V91.3486ZM1087.77 109V111H1089.77V109H1087.77ZM1019.15 109H1017.15V111H1019.15V109ZM1019.15 2.35938V0.359375H1017.15V2.35938H1019.15ZM1041.12 2.35938H1043.12V0.359375H1041.12V2.35938ZM1041.12 93.3486H1087.77V89.3486H1041.12V93.3486ZM1085.77 91.3486V109H1089.77V91.3486H1085.77ZM1087.77 107H1019.15V111H1087.77V107ZM1021.15 109V2.35938H1017.15V109H1021.15ZM1019.15 4.35938H1041.12V0.359375H1019.15V4.35938ZM1039.12 2.35938V91.3486H1043.12V2.35938H1039.12ZM1123.81 109V111H1125.81V109H1123.81ZM1101.84 109H1099.84V111H1101.84V109ZM1101.84 2.35938V0.359375H1099.84V2.35938H1101.84ZM1123.81 2.35938H1125.81V0.359375H1123.81V2.35938ZM1123.81 107H1101.84V111H1123.81V107ZM1103.84 109V2.35938H1099.84V109H1103.84ZM1101.84 4.35938H1123.81V0.359375H1101.84V4.35938ZM1121.81 2.35938V109H1125.81V2.35938H1121.81ZM1230.96 109V111H1232.96V109H1230.96ZM1208.99 109L1207.28 110.041L1207.87 111H1208.99V109ZM1166.22 38.834L1167.92 37.793L1164.22 31.7108V38.834H1166.22ZM1166.22 109V111H1168.22V109H1166.22ZM1144.24 109H1142.24V111H1144.24V109ZM1144.24 2.35938V0.359375H1142.24V2.35938H1144.24ZM1166.22 2.35938L1167.92 1.31863L1167.34 0.359375H1166.22V2.35938ZM1209.06 72.6719L1207.35 73.7126L1211.06 79.7973V72.6719H1209.06ZM1209.06 2.35938V0.359375H1207.06V2.35938H1209.06ZM1230.96 2.35938H1232.96V0.359375H1230.96V2.35938ZM1230.96 107H1208.99V111H1230.96V107ZM1210.7 107.959L1167.92 37.793L1164.51 39.875L1207.28 110.041L1210.7 107.959ZM1164.22 38.834V109H1168.22V38.834H1164.22ZM1166.22 107H1144.24V111H1166.22V107ZM1146.24 109V2.35938H1142.24V109H1146.24ZM1144.24 4.35938H1166.22V0.359375H1144.24V4.35938ZM1164.51 3.40012L1207.35 73.7126L1210.77 71.6311L1167.92 1.31863L1164.51 3.40012ZM1211.06 72.6719V2.35938H1207.06V72.6719H1211.06ZM1209.06 4.35938H1230.96V0.359375H1209.06V4.35938ZM1228.96 2.35938V109H1232.96V2.35938H1228.96ZM1334.53 95.5234L1336.06 96.8054L1336.53 96.2487V95.5234H1334.53ZM1317.75 106.583L1318.43 108.466L1318.44 108.462L1317.75 106.583ZM1269.41 104.459L1268.4 106.186L1268.41 106.19L1268.42 106.194L1269.41 104.459ZM1253.3 86.8809L1251.51 87.7615L1251.51 87.7707L1253.3 86.8809ZM1247.51 59.8545H1245.51V59.8639L1245.51 59.8734L1247.51 59.8545ZM1252.86 24.9912L1251.05 24.1517L1251.04 24.1567L1252.86 24.9912ZM1268.39 7.12012L1269.43 8.82852L1269.43 8.82638L1268.39 7.12012ZM1321.86 9.97656L1320.56 11.501L1320.57 11.5061L1321.86 9.97656ZM1334.53 36.2705V38.2705H1336.77L1336.51 36.0432L1334.53 36.2705ZM1313.14 36.2705L1311.16 36.5865L1311.43 38.2705H1313.14V36.2705ZM1306.62 22.8672L1305.32 24.3889L1305.33 24.3935L1305.33 24.3982L1306.62 22.8672ZM1269.85 52.0908L1267.85 52.082V52.0908H1269.85ZM1312.55 87.54L1313.97 88.9543L1314.55 88.3685V87.54H1312.55ZM1312.55 69.1562H1314.55V67.1562H1312.55V69.1562ZM1292.56 69.1562H1290.56V71.1562H1292.56V69.1562ZM1292.56 52.9697V50.9697H1290.56V52.9697H1292.56ZM1334.53 52.9697H1336.53V50.9697H1334.53V52.9697ZM1332.99 94.2415C1329.31 98.6484 1324.04 102.159 1317.07 104.704L1318.44 108.462C1325.92 105.734 1331.83 101.871 1336.06 96.8054L1332.99 94.2415ZM1317.08 104.7C1310.1 107.2 1302.32 108.465 1293.73 108.465V112.465C1302.72 112.465 1310.96 111.142 1318.43 108.466L1317.08 104.7ZM1293.73 108.465C1284.8 108.465 1277.05 106.53 1270.41 102.724L1268.42 106.194C1275.75 110.396 1284.2 112.465 1293.73 112.465V108.465ZM1270.42 102.732C1263.85 98.8895 1258.74 93.3319 1255.09 85.991L1251.51 87.7707C1255.48 95.7618 1261.11 101.923 1268.4 106.186L1270.42 102.732ZM1255.1 86.0002C1251.49 78.6535 1249.61 69.9507 1249.51 59.8356L1245.51 59.8734C1245.61 70.4614 1247.59 79.7762 1251.51 87.7615L1255.1 86.0002ZM1249.51 59.8545V52.6035H1245.51V59.8545H1249.51ZM1249.51 52.6035C1249.51 42.1781 1251.26 33.2715 1254.68 25.8257L1251.04 24.1567C1247.33 32.2383 1245.51 41.7398 1245.51 52.6035H1249.51ZM1254.68 25.8308C1258.14 18.3441 1263.06 12.705 1269.43 8.82851L1267.35 5.41172C1260.24 9.73838 1254.81 16.0133 1251.05 24.1517L1254.68 25.8308ZM1269.43 8.82638C1275.86 4.89409 1283.43 2.89453 1292.19 2.89453V-1.10547C1282.8 -1.10547 1274.49 1.04537 1267.35 5.41386L1269.43 8.82638ZM1292.19 2.89453C1304.53 2.89453 1313.9 5.84674 1320.56 11.501L1323.15 8.45217C1315.55 1.99701 1305.15 -1.10547 1292.19 -1.10547V2.89453ZM1320.57 11.5061C1327.22 17.1074 1331.26 25.3518 1332.54 36.4978L1336.51 36.0432C1335.15 24.1424 1330.75 14.8574 1323.14 8.44701L1320.57 11.5061ZM1334.53 34.2705H1313.14V38.2705H1334.53V34.2705ZM1315.11 35.9545C1314.09 29.567 1311.77 24.5823 1307.91 21.3362L1305.33 24.3982C1308.21 26.8161 1310.23 30.767 1311.16 36.5865L1315.11 35.9545ZM1307.92 21.3455C1304.13 18.1127 1299.02 16.6191 1292.85 16.6191V20.6191C1298.4 20.6191 1302.47 21.9576 1305.32 24.3889L1307.92 21.3455ZM1292.85 16.6191C1284.8 16.6191 1278.46 19.6916 1274.14 25.8999L1277.43 28.1841C1280.92 23.1619 1285.96 20.6191 1292.85 20.6191V16.6191ZM1274.14 25.8999C1269.9 31.9964 1267.9 40.8222 1267.85 52.082L1271.85 52.0996C1271.9 41.1915 1273.86 33.3181 1277.43 28.1841L1274.14 25.8999ZM1267.85 52.0908V58.9023H1271.85V52.0908H1267.85ZM1267.85 58.9023C1267.85 70.2852 1270.01 79.2328 1274.62 85.4375L1277.83 83.0507C1273.95 77.8297 1271.85 69.8827 1271.85 58.9023H1267.85ZM1274.62 85.4375C1279.31 91.74 1286.18 94.8135 1294.9 94.8135V90.8135C1287.22 90.8135 1281.64 88.1741 1277.83 83.0507L1274.62 85.4375ZM1294.9 94.8135C1303.35 94.8135 1309.89 93.0277 1313.97 88.9543L1311.14 86.1258C1308.18 89.0836 1302.96 90.8135 1294.9 90.8135V94.8135ZM1314.55 87.54V69.1562H1310.55V87.54H1314.55ZM1312.55 67.1562H1292.56V71.1562H1312.55V67.1562ZM1294.56 69.1562V52.9697H1290.56V69.1562H1294.56ZM1292.56 54.9697H1334.53V50.9697H1292.56V54.9697ZM1332.53 52.9697V95.5234H1336.53V52.9697H1332.53ZM347.954 226.406L346.136 227.24L347.948 231.189L349.77 227.245L347.954 226.406ZM370.146 178.359V176.359H368.867L368.331 177.521L370.146 178.359ZM394.17 178.359L395.948 179.275L397.45 176.359H394.17V178.359ZM359.16 246.328L357.382 245.412L357.16 245.843V246.328H359.16ZM359.16 285V287H361.16V285H359.16ZM336.821 285H334.821V287H336.821V285ZM336.821 246.328H338.821V245.843L338.599 245.412L336.821 246.328ZM301.812 178.359V176.359H298.532L300.034 179.275L301.812 178.359ZM325.908 178.359L327.726 177.525L327.191 176.359H325.908V178.359ZM349.77 227.245L371.962 179.198L368.331 177.521L346.138 225.568L349.77 227.245ZM370.146 180.359H394.17V176.359H370.146V180.359ZM392.392 177.444L357.382 245.412L360.938 247.244L395.948 179.275L392.392 177.444ZM357.16 246.328V285H361.16V246.328H357.16ZM359.16 283H336.821V287H359.16V283ZM338.821 285V246.328H334.821V285H338.821ZM338.599 245.412L303.59 177.444L300.034 179.275L335.043 247.244L338.599 245.412ZM301.812 180.359H325.908V176.359H301.812V180.359ZM324.09 179.193L346.136 227.24L349.772 225.572L327.726 177.525L324.09 179.193ZM467.778 280.02L466.725 278.32L466.719 278.323L467.778 280.02ZM404.277 261.929L402.475 262.796L402.477 262.801L404.277 261.929ZM398.491 234.683L396.491 234.683L396.491 234.692L398.491 234.683ZM404.131 201.724L402.325 200.865L402.322 200.869L404.131 201.724ZM420.171 183.34L421.221 185.042L421.224 185.04L420.171 183.34ZM467.559 183.34L466.5 185.037L466.507 185.041L466.514 185.045L467.559 183.34ZM483.599 201.724L481.788 202.574L481.791 202.58L481.795 202.587L483.599 201.724ZM426.836 203.701L428.474 204.849L428.478 204.842L426.836 203.701ZM420.757 228.896L418.757 228.888V228.896H420.757ZM461.04 259.805L462.689 260.937L462.693 260.93L461.04 259.805ZM467.046 234.463L469.046 234.472V234.463H467.046ZM487.312 234.097C487.312 244.359 485.498 253.263 481.934 260.86L485.556 262.558C489.414 254.334 491.312 244.83 491.312 234.097H487.312ZM481.934 260.86C478.376 268.445 473.305 274.241 466.725 278.32L468.832 281.72C476.119 277.204 481.692 270.793 485.556 262.558L481.934 260.86ZM466.719 278.323C460.184 282.402 452.648 284.465 444.048 284.465V288.465C453.319 288.465 461.603 286.231 468.837 281.716L466.719 278.323ZM444.048 284.465C435.546 284.465 428.027 282.426 421.435 278.387L419.346 281.798C426.621 286.255 434.874 288.465 444.048 288.465V284.465ZM421.435 278.387C414.852 274.354 409.732 268.6 406.077 261.057L402.477 262.801C406.44 270.98 412.062 277.335 419.346 281.798L421.435 278.387ZM406.079 261.061C402.42 253.46 400.539 244.679 400.491 234.673L396.491 234.692C396.541 245.194 398.518 254.577 402.475 262.796L406.079 261.061ZM400.491 234.683V229.409H396.491V234.683H400.491ZM400.491 229.409C400.491 219.15 402.328 210.223 405.939 202.578L402.322 200.869C398.415 209.142 396.491 218.672 396.491 229.409H400.491ZM405.937 202.583C409.597 194.888 414.696 189.068 421.221 185.042L419.121 181.638C411.877 186.107 406.282 192.544 402.325 200.865L405.937 202.583ZM421.224 185.04C427.813 180.956 435.352 178.895 443.901 178.895V174.895C434.677 174.895 426.395 177.129 419.117 181.64L421.224 185.04ZM443.901 178.895C452.451 178.895 459.962 180.957 466.5 185.037L468.618 181.643C461.385 177.129 453.126 174.895 443.901 174.895V178.895ZM466.514 185.045C473.085 189.071 478.179 194.887 481.788 202.574L485.409 200.874C481.498 192.544 475.9 186.105 468.603 181.634L466.514 185.045ZM481.795 202.587C485.453 210.231 487.312 219.131 487.312 229.336H491.312C491.312 218.642 489.362 209.134 485.403 200.86L481.795 202.587ZM487.312 229.336V234.097H491.312V229.336H487.312ZM469.046 229.263C469.046 217.894 467.019 208.927 462.687 202.64L459.393 204.909C463.068 210.243 465.046 218.268 465.046 229.263H469.046ZM462.687 202.64C458.287 196.255 451.941 193.059 443.901 193.059V197.059C450.706 197.059 455.785 199.673 459.393 204.909L462.687 202.64ZM443.901 193.059C435.913 193.059 429.593 196.229 425.194 202.56L428.478 204.842C432.086 199.65 437.144 197.059 443.901 197.059V193.059ZM425.198 202.553C420.859 208.744 418.807 217.617 418.757 228.888L422.757 228.905C422.805 218.008 424.805 210.084 428.474 204.849L425.198 202.553ZM418.757 228.896V234.097H422.757V228.896H418.757ZM418.757 234.097C418.757 245.192 420.791 254.086 425.099 260.548L428.427 258.329C424.727 252.779 422.757 244.778 422.757 234.097H418.757ZM425.099 260.548C429.492 267.137 435.893 270.447 444.048 270.447V266.447C437.164 266.447 432.042 263.751 428.427 258.329L425.099 260.548ZM444.048 270.447C452.037 270.447 458.337 267.276 462.689 260.937L459.391 258.673C455.833 263.857 450.805 266.447 444.048 266.447V270.447ZM462.693 260.93C466.968 254.65 468.996 245.742 469.046 234.472L465.046 234.454C464.998 245.351 463.022 253.338 459.387 258.679L462.693 260.93ZM469.046 234.463V229.263H465.046V234.463H469.046ZM585.991 178.359H587.991V176.359H585.991V178.359ZM575.005 276.284L573.645 274.817L573.641 274.822L575.005 276.284ZM504.253 249.404H502.253V249.417L502.253 249.43L504.253 249.404ZM504.253 178.359V176.359H502.253V178.359H504.253ZM526.226 178.359H528.226V176.359H526.226V178.359ZM531.206 264.053L529.813 265.488L529.824 265.498L529.835 265.509L531.206 264.053ZM563.945 249.331L565.945 249.361L565.945 249.346V249.331H563.945ZM563.945 178.359V176.359H561.945V178.359H563.945ZM583.991 178.359V248.599H587.991V178.359H583.991ZM583.991 248.599C583.991 259.814 580.492 268.473 573.645 274.817L576.364 277.751C584.167 270.521 587.991 260.723 587.991 248.599H583.991ZM573.641 274.822C566.828 281.177 557.405 284.465 545.122 284.465V288.465C558.132 288.465 568.631 284.966 576.369 277.747L573.641 274.822ZM545.122 284.465C533.03 284.465 523.665 281.271 516.797 275.091L514.121 278.064C521.902 285.066 532.312 288.465 545.122 288.465V284.465ZM516.797 275.091C509.959 268.936 506.393 260.448 506.253 249.379L502.253 249.43C502.405 261.408 506.311 271.035 514.121 278.064L516.797 275.091ZM506.253 249.404V178.359H502.253V249.404H506.253ZM504.253 180.359H526.226V176.359H504.253V180.359ZM524.226 178.359V248.745H528.226V178.359H524.226ZM524.226 248.745C524.226 255.996 525.945 261.734 529.813 265.488L532.599 262.618C529.826 259.927 528.226 255.459 528.226 248.745H524.226ZM529.835 265.509C533.669 269.121 538.851 270.813 545.122 270.813V266.813C539.577 266.813 535.481 265.332 532.577 262.597L529.835 265.509ZM545.122 270.813C551.636 270.813 556.895 269.096 560.531 265.333C564.15 261.587 565.843 256.142 565.945 249.361L561.946 249.301C561.852 255.509 560.31 259.805 557.655 262.553C555.017 265.284 550.962 266.813 545.122 266.813V270.813ZM565.945 249.331V178.359H561.945V249.331H565.945ZM563.945 180.359H585.991V176.359H563.945V180.359ZM643.486 245.962L645.266 245.05L644.709 243.962H643.486V245.962ZM625.981 245.962V243.962H623.981V245.962H625.981ZM625.981 285V287H627.981V285H625.981ZM604.009 285H602.009V287H604.009V285ZM604.009 178.359V176.359H602.009V178.359H604.009ZM678.276 228.823L676.599 227.733L676.597 227.737L678.276 228.823ZM663.994 240.396L663.173 238.572L661.229 239.447L662.227 241.331L663.994 240.396ZM687.065 283.975H689.065V283.478L688.833 283.039L687.065 283.975ZM687.065 285V287H689.065V285H687.065ZM663.481 285L661.701 285.912L662.259 287H663.481V285ZM625.981 228.164H623.981V230.164H625.981V228.164ZM656.523 223.989L657.877 225.462L657.883 225.456L657.89 225.45L656.523 223.989ZM656.743 200.479L655.317 201.881L655.323 201.887L655.329 201.893L656.743 200.479ZM625.981 196.157V194.157H623.981V196.157H625.981ZM643.486 243.962H625.981V247.962H643.486V243.962ZM623.981 245.962V285H627.981V245.962H623.981ZM625.981 283H604.009V287H625.981V283ZM606.009 285V178.359H602.009V285H606.009ZM604.009 180.359H643.633V176.359H604.009V180.359ZM643.633 180.359C655.96 180.359 665.16 183.109 671.514 188.328L674.053 185.237C666.734 179.225 656.501 176.359 643.633 176.359V180.359ZM671.514 188.328C677.811 193.5 681.037 200.824 681.037 210.586H685.037C685.037 199.84 681.428 191.295 674.053 185.237L671.514 188.328ZM681.037 210.586C681.037 217.571 679.515 223.247 676.599 227.733L679.953 229.913C683.385 224.634 685.037 218.152 685.037 210.586H681.037ZM676.597 227.737C673.723 232.183 669.295 235.814 663.173 238.572L664.815 242.219C671.486 239.215 676.58 235.131 679.956 229.909L676.597 227.737ZM662.227 241.331L685.298 284.91L688.833 283.039L665.762 239.46L662.227 241.331ZM685.065 283.975V285H689.065V283.975H685.065ZM687.065 283H663.481V287H687.065V283ZM665.262 284.088L645.266 245.05L641.706 246.874L661.701 285.912L665.262 284.088ZM625.981 230.164H643.706V226.164H625.981V230.164ZM643.706 230.164C649.551 230.164 654.37 228.686 657.877 225.462L655.17 222.517C652.623 224.859 648.897 226.164 643.706 226.164V230.164ZM657.89 225.45C661.398 222.168 663.064 217.715 663.064 212.344H659.064C659.064 216.836 657.704 220.146 655.157 222.529L657.89 225.45ZM663.064 212.344C663.064 206.916 661.497 202.404 658.157 199.064L655.329 201.893C657.751 204.315 659.064 207.713 659.064 212.344H663.064ZM658.169 199.076C654.817 195.666 649.829 194.157 643.633 194.157V198.157C649.253 198.157 653.005 199.529 655.317 201.881L658.169 199.076ZM643.633 194.157H625.981V198.157H643.633V194.157ZM623.981 196.157V228.164H627.981V196.157H623.981ZM820.22 254.238L818.271 254.688L822.185 254.61L820.22 254.238ZM834.575 178.359V176.359H832.918L832.61 177.988L834.575 178.359ZM856.475 178.359L858.427 178.793L858.967 176.359H856.475V178.359ZM832.817 285V287H834.422L834.77 285.433L832.817 285ZM810.698 285L808.755 285.473L809.127 287H810.698V285ZM793.34 213.662L795.283 213.189H791.397L793.34 213.662ZM775.981 285V287H777.553L777.925 285.473L775.981 285ZM753.862 285L751.91 285.433L752.257 287H753.862V285ZM730.205 178.359V176.359H727.713L728.253 178.793L730.205 178.359ZM752.104 178.359L754.069 177.985L753.759 176.359H752.104V178.359ZM766.533 254.092L764.569 254.466L768.481 254.544L766.533 254.092ZM784.111 178.359V176.359H782.522L782.163 177.907L784.111 178.359ZM802.715 178.359L804.664 177.91L804.306 176.359H802.715V178.359ZM822.185 254.61L836.54 178.731L832.61 177.988L818.255 253.866L822.185 254.61ZM834.575 180.359H856.475V176.359H834.575V180.359ZM854.522 177.926L830.865 284.567L834.77 285.433L858.427 178.793L854.522 177.926ZM832.817 283H810.698V287H832.817V283ZM812.642 284.527L795.283 213.189L791.397 214.135L808.755 285.473L812.642 284.527ZM791.397 213.189L774.038 284.527L777.925 285.473L795.283 214.135L791.397 213.189ZM775.981 283H753.862V287H775.981V283ZM755.815 284.567L732.158 177.926L728.253 178.793L751.91 285.433L755.815 284.567ZM730.205 180.359H752.104V176.359H730.205V180.359ZM750.14 178.734L764.569 254.466L768.498 253.717L754.069 177.985L750.14 178.734ZM768.481 254.544L786.06 178.812L782.163 177.907L764.585 253.64L768.481 254.544ZM784.111 180.359H802.715V176.359H784.111V180.359ZM800.766 178.809L818.271 254.688L822.169 253.789L804.664 177.91L800.766 178.809ZM925.396 263.027L927.291 262.389L926.832 261.027H925.396V263.027ZM886.87 263.027V261.027H885.429L884.973 262.395L886.87 263.027ZM879.546 285V287H880.987L881.443 285.632L879.546 285ZM856.182 285L854.307 284.302L853.303 287H856.182V285ZM895.879 178.359V176.359H894.489L894.005 177.662L895.879 178.359ZM916.24 178.359L918.113 177.658L917.627 176.359H916.24V178.359ZM956.157 285V287H959.041L958.03 284.299L956.157 285ZM932.793 285L930.898 285.638L931.356 287H932.793V285ZM892.803 245.229L890.905 244.599L890.031 247.229H892.803V245.229ZM919.463 245.229V247.229H922.244L921.359 244.593L919.463 245.229ZM906.06 205.312L907.956 204.676L906.049 198.998L904.162 204.682L906.06 205.312ZM925.396 261.027H886.87V265.027H925.396V261.027ZM884.973 262.395L877.649 284.368L881.443 285.632L888.767 263.66L884.973 262.395ZM879.546 283H856.182V287H879.546V283ZM858.056 285.698L897.753 179.057L894.005 177.662L854.307 284.302L858.056 285.698ZM895.879 180.359H916.24V176.359H895.879V180.359ZM914.367 179.06L954.284 285.701L958.03 284.299L918.113 177.658L914.367 179.06ZM956.157 283H932.793V287H956.157V283ZM934.688 284.362L927.291 262.389L923.5 263.665L930.898 285.638L934.688 284.362ZM892.803 247.229H919.463V243.229H892.803V247.229ZM921.359 244.593L907.956 204.676L904.164 205.949L917.567 245.866L921.359 244.593ZM904.162 204.682L890.905 244.599L894.701 245.86L907.958 205.943L904.162 204.682ZM991.899 226.406L990.082 227.24L991.893 231.189L993.715 227.245L991.899 226.406ZM1014.09 178.359V176.359H1012.81L1012.28 177.521L1014.09 178.359ZM1038.12 178.359L1039.89 179.275L1041.4 176.359H1038.12V178.359ZM1003.11 246.328L1001.33 245.412L1001.11 245.843V246.328H1003.11ZM1003.11 285V287H1005.11V285H1003.11ZM980.767 285H978.767V287H980.767V285ZM980.767 246.328H982.767V245.843L982.545 245.412L980.767 246.328ZM945.757 178.359V176.359H942.477L943.979 179.275L945.757 178.359ZM969.854 178.359L971.671 177.525L971.136 176.359H969.854V178.359ZM993.715 227.245L1015.91 179.198L1012.28 177.521L990.084 225.568L993.715 227.245ZM1014.09 180.359H1038.12V176.359H1014.09V180.359ZM1036.34 177.444L1001.33 245.412L1004.88 247.244L1039.89 179.275L1036.34 177.444ZM1001.11 246.328V285H1005.11V246.328H1001.11ZM1003.11 283H980.767V287H1003.11V283ZM982.767 285V246.328H978.767V285H982.767ZM982.545 245.412L947.535 177.444L943.979 179.275L978.989 247.244L982.545 245.412ZM945.757 180.359H969.854V176.359H945.757V180.359ZM968.036 179.193L990.082 227.24L993.717 225.572L971.671 177.525L968.036 179.193Z" fill="#FBBF24"/>
</svg>
