<svg width="1440" height="672" viewBox="0 0 1440 672" fill="none" xmlns="http://www.w3.org/2000/svg">
<g clip-path="url(#clip0_76_5)">
<path d="M705.839 78.45C747.256 75.23 789.884 83.64 803.214 98.75C816.544 113.86 808.853 130.29 810.055 146.21C811.257 162.13 826.326 180.15 865.446 186.21C891.158 190.21 921.971 188.04 946.393 193.04C1007.26 205.51 980.656 247.32 1068.93 246.46C1094.75 246.21 1119.35 242.46 1144.82 240.83C1170.28 239.2 1199.75 240.24 1216.69 247.57C1236.64 256.21 1233.72 271.12 1259.36 277.26C1282.19 282.72 1312 277.54 1338.99 278.17C1362.78 278.74 1385.26 284.37 1395.83 292.41C1413.67 305.99 1380.46 320.41 1412.44 332.41C1418.93 334.85 1428.71 336.17 1437.68 335.95C1438.31 335.937 1438.9 335.674 1439.34 335.219C1439.78 334.763 1440.03 334.149 1440.03 333.51V2.43C1440.03 2.10835 1439.97 1.78989 1439.85 1.4931C1439.72 1.19631 1439.55 0.927081 1439.32 0.701038C1439.1 0.474996 1438.83 0.296633 1438.54 0.176293C1438.25 0.0559529 1437.94 -0.00396891 1437.63 2.10141e-06H2.38453C1.75211 2.10141e-06 1.1456 0.257073 0.698412 0.714662C0.251226 1.17225 0 1.79287 0 2.44L0 151.08C0.00347537 151.628 0.184908 152.159 0.515743 152.59C0.846579 153.021 1.30803 153.327 1.82749 153.46C23.4739 158.96 55.7823 152.85 67.5974 143.86C79.7546 134.61 77.5655 123.76 78.5721 113.44C79.5787 103.12 85.9016 91.69 108.476 85.82C140.814 77.4 187.322 84.93 223.393 79.04C254.822 73.91 268.885 60.47 283.983 48.89C299.082 37.31 325.165 25 359.262 26.26C411.956 28.16 410.959 47.14 463.83 54.45C497.516 59.1 516.719 49.97 553.738 52.72C562.699 53.38 567.596 57.72 572.99 60.14C597.168 71 637.069 81.3 705.839 78.45Z" fill="url(#paint0_linear_76_5)"/>
<path d="M734.903 78.45L730.691 79.9Z" fill="url(#paint1_linear_76_5)"/>
</g>
<defs>
<linearGradient id="paint0_linear_76_5" x1="723.606" y1="-26.6506" x2="723.606" y2="310.411" gradientUnits="userSpaceOnUse">
<stop offset="0.08" stop-color="#F2BF99"/>
<stop offset="0.23" stop-color="#F5CDAF"/>
<stop offset="0.56" stop-color="#FAE8DA"/>
<stop offset="0.82" stop-color="#FEF9F5"/>
<stop offset="0.97" stop-color="white"/>
</linearGradient>
<linearGradient id="paint1_linear_76_5" x1="736.33" y1="75.485" x2="736.33" y2="76.9354" gradientUnits="userSpaceOnUse">
<stop stop-color="#F2BF99"/>
<stop offset="0.18" stop-color="#F3C6A4"/>
<stop offset="0.49" stop-color="#F7D9C2"/>
<stop offset="0.91" stop-color="#FDF8F3"/>
<stop offset="1" stop-color="white"/>
</linearGradient>
<clipPath id="clip0_76_5">
<rect width="1440" height="672" fill="white"/>
</clipPath>
</defs>
</svg>
