<svg width="200" height="200" viewBox="0 0 200 200" fill="none" xmlns="http://www.w3.org/2000/svg">
<path d="M99.7152 196.893C153.069 196.893 196.32 153.513 196.32 100.002C196.32 46.4902 153.069 3.1106 99.7152 3.1106C46.3617 3.1106 3.11014 46.4902 3.11014 100.002C3.11014 153.513 46.3617 196.893 99.7152 196.893Z" fill="#F0BF40"/>
<path d="M99.9996 3.1106C90.0812 3.1106 80.5137 4.60786 71.5031 7.377C110.445 19.5473 138.756 56.4083 138.756 100C138.756 143.592 110.445 180.453 71.5031 192.623C80.5137 195.392 90.0812 196.89 99.9996 196.89C153.51 196.89 196.889 153.511 196.889 100C196.889 46.4895 153.51 3.1106 99.9996 3.1106Z" fill="#FFB600"/>
<path d="M99.7152 196.893C153.069 196.893 196.32 153.513 196.32 100.002C196.32 46.4902 153.069 3.1106 99.7152 3.1106C46.3617 3.1106 3.11014 46.4902 3.11014 100.002C3.11014 153.513 46.3617 196.893 99.7152 196.893Z" fill="#F0BF40"/>
<path d="M99.9996 3.1106C90.0812 3.1106 80.5137 4.60786 71.5031 7.377C110.445 19.5473 138.756 56.4083 138.756 100C138.756 143.592 110.445 180.453 71.5031 192.623C80.5137 195.392 90.0812 196.89 99.9996 196.89C153.51 196.89 196.889 153.511 196.889 100C196.889 46.4895 153.51 3.1106 99.9996 3.1106Z" fill="#FFB600"/>
<path d="M87.0828 38.7555H74.1645V44.9762H87.0828V38.7555Z" fill="white"/>
<path d="M41.866 90.4297H16.0289V96.6504H41.866V90.4297Z" fill="white"/>
<path d="M70.9336 103.348H48.3273V109.569H70.9336V103.348Z" fill="white"/>
<path d="M93.5422 119.497H74.1645V125.718H93.5422V119.497Z" fill="white"/>
<path d="M170.711 29.2891C151.823 10.4016 126.711 0 99.9996 0C73.2887 0 48.177 10.4016 29.2891 29.2891C10.4012 48.1766 0 73.2891 0 99.9996C0 126.71 10.4016 151.823 29.2891 170.71C48.177 189.598 73.2891 200 99.9996 200C126.71 200 151.823 189.598 170.71 170.711C189.598 151.823 200 126.711 200 99.9996C200 73.2887 189.598 48.177 170.711 29.2891ZM191.289 121.591L121.591 191.289C117.346 192.284 113.011 192.987 108.614 193.386L193.386 108.614C192.987 113.012 192.284 117.345 191.289 121.591ZM109.443 26.325C107.543 24.5875 105.577 22.9223 103.552 21.3348L117.111 7.77578C120.092 8.32187 123.033 9.01094 125.929 9.83906L109.443 26.325ZM132.558 12.0078C135.157 12.968 137.714 14.0395 140.217 15.2297L119.037 36.4094C117.4 34.4281 115.686 32.5121 113.901 30.6645L132.558 12.0078ZM146.009 18.2363C148.296 19.5281 150.531 20.9238 152.713 22.4129L127.234 47.8914C125.873 45.6715 124.421 43.4953 122.877 41.368L146.009 18.2363ZM157.793 26.1313C159.807 27.7133 161.762 29.3879 163.66 31.1457L133.938 60.8672C132.873 58.368 131.701 55.9098 130.428 53.4965L157.793 26.1313ZM141.593 92.5711C141.355 89.3043 140.96 86.0687 140.411 82.8711L176.939 46.3438C178.451 48.502 179.863 50.7184 181.18 52.9836L141.593 92.5711ZM141.855 101.106L184.248 58.7133C185.464 61.1875 186.572 63.7105 187.561 66.282L141.059 112.784C141.547 108.936 141.813 105.039 141.855 101.106ZM139.092 123.549L189.804 72.8367C190.664 75.6945 191.39 78.5984 191.974 81.541L133.837 139.366C136.032 134.251 137.789 128.965 139.092 123.549ZM121.737 160.173L193.155 89.1402C193.544 92.5332 193.752 95.966 193.772 99.4289L99.4289 193.772C93.2645 193.736 87.1926 193.111 81.2785 191.918C97.1586 185.069 111.27 174.042 121.737 160.173ZM173.161 41.3234L138.882 75.6012C138.175 72.7684 137.342 69.9715 136.387 67.2168L168.088 35.5152C169.867 37.391 171.556 39.3305 173.161 41.3234ZM109.404 6.68437L98.4828 17.6055C96.316 16.1133 94.0926 14.7062 91.8187 13.3879L98.9738 6.2332C99.316 6.2293 99.6574 6.2207 100 6.2207C103.161 6.2207 106.298 6.37734 109.404 6.68437ZM81.2789 8.08125C84.0262 7.52773 86.8078 7.09961 89.6164 6.79219L86.0953 10.3133C84.5102 9.52656 82.9035 8.78203 81.2789 8.08125ZM31.9016 164.474H80.6227V158.253H26.4992C13.359 141.739 6.2207 121.419 6.2207 100C6.2207 79.957 12.4719 60.8773 24.0418 44.9766H67.7035V38.7555H28.9746C30.4766 37.0187 32.0477 35.3277 33.6879 33.6875C44.3051 23.0703 57.0211 15.3168 70.8992 10.8051C89.1664 16.7531 105.543 28.507 117.091 43.9906C124.654 54.1324 129.995 65.4758 132.947 77.5117H41.866V83.7324H134.246C135.171 89.0547 135.645 94.4898 135.645 100C135.645 100.04 135.644 100.08 135.644 100.12H112.918V106.34H135.432C135.117 111.108 134.449 115.808 133.431 120.412L133.38 120.463L133.413 120.495C130.577 133.272 125.071 145.307 117.092 156.007C105.543 171.492 89.166 183.248 70.8977 189.195C57.0203 184.683 44.3047 176.929 33.6875 166.312C33.0828 165.706 32.4883 165.093 31.9016 164.474ZM166.311 166.311C157.056 175.567 146.204 182.644 134.38 187.298L187.298 134.38C182.645 146.205 175.567 157.056 166.311 166.311Z" fill="#1D1D1B"/>
</svg>
