<svg width="218" height="218" viewBox="0 0 218 218" fill="none" xmlns="http://www.w3.org/2000/svg">
<path d="M108.586 58.3784C80.673 58.3784 57.9641 81.0874 57.9641 109C57.9641 136.913 80.673 159.622 108.586 159.622C136.499 159.622 159.208 136.913 159.208 109C159.208 81.0874 136.499 58.3784 108.586 58.3784Z" fill="#367C78"/>
<path opacity="0.1" d="M65.5928 109C65.5928 82.3707 86.2623 60.4779 112.4 58.5215C111.141 58.4274 109.868 58.3784 108.586 58.3784C80.6731 58.3784 57.9641 81.0874 57.9641 109C57.9641 136.913 80.6731 159.622 108.586 159.622C109.868 159.622 111.141 159.573 112.4 159.479C86.2618 157.523 65.5928 135.63 65.5928 109Z" fill="#231F20"/>
<path d="M176.821 101.397C176.742 100.688 176.652 99.9808 176.552 99.2774C176.469 98.6971 176.38 98.1193 176.283 97.5436C176.223 97.186 176.16 96.8283 176.095 96.4724C175.534 93.4408 174.772 90.4795 173.825 87.6008C173.718 87.2755 173.61 86.9519 173.499 86.6287C173.193 85.7444 172.871 84.8669 172.531 83.9987C172.511 83.9493 172.493 83.8986 172.474 83.8488C167.471 71.1823 158.8 60.3509 147.782 52.6621L147.746 52.6327C147.675 52.5833 147.601 52.5374 147.53 52.488C146.924 52.0699 146.315 51.6586 145.695 51.2592C145.669 51.2426 145.644 51.2247 145.618 51.2081C144.981 50.7985 144.334 50.4016 143.683 50.0129C143.536 49.9252 143.389 49.8383 143.242 49.7519C142.588 49.3674 141.928 48.9902 141.261 48.6278C141.244 48.6185 141.227 48.6104 141.21 48.6006C140.56 48.2476 139.901 47.9087 139.238 47.577C139.08 47.4974 138.922 47.4182 138.762 47.3399C138.089 47.009 137.41 46.6859 136.724 46.3763C136.645 46.3406 136.565 46.3069 136.485 46.2716C135.858 45.9918 135.226 45.7223 134.59 45.4609C134.427 45.394 134.266 45.3272 134.104 45.2621C133.409 44.9827 132.709 44.7132 132.003 44.4565C131.883 44.4126 131.761 44.3717 131.64 44.3283C131.014 44.1048 130.384 43.8902 129.75 43.6841C129.592 43.633 129.436 43.5806 129.279 43.5304C128.561 43.303 127.839 43.0872 127.111 42.8828C126.963 42.8415 126.814 42.8027 126.666 42.7623C126.024 42.5869 125.379 42.4204 124.729 42.2637C124.585 42.2288 124.443 42.1926 124.3 42.1585C123.559 41.9848 122.815 41.8239 122.066 41.6736C121.898 41.6404 121.729 41.6089 121.561 41.5769C120.889 41.4479 120.213 41.3278 119.534 41.2184C119.417 41.1993 119.299 41.1784 119.181 41.1597C118.418 41.0409 117.651 40.937 116.88 40.8442C116.7 40.822 116.518 40.802 116.336 40.7816C115.614 40.7002 114.89 40.6279 114.162 40.5695C114.087 40.5631 114.013 40.555 113.938 40.5495C113.153 40.4886 112.363 40.4448 111.571 40.4107C111.381 40.4022 111.191 40.3954 111.001 40.3886C110.198 40.3605 109.394 40.3413 108.585 40.3413C107.776 40.3413 106.972 40.3605 106.169 40.3886C105.979 40.3954 105.789 40.4018 105.6 40.4107C104.807 40.4448 104.018 40.4886 103.233 40.5495C103.158 40.555 103.083 40.5631 103.009 40.5695C102.281 40.6283 101.556 40.7002 100.834 40.7816C100.653 40.802 100.471 40.822 100.29 40.8442C99.519 40.937 98.7513 41.0409 97.9891 41.1597C97.8712 41.1784 97.7541 41.1993 97.6361 41.2184C96.957 41.3274 96.2817 41.4479 95.6094 41.5769C95.4412 41.6089 95.2726 41.6404 95.1045 41.6736C94.3555 41.8234 93.6104 41.9844 92.8704 42.1585C92.7269 42.1926 92.5843 42.2288 92.4412 42.2637C91.7919 42.4204 91.1464 42.5869 90.5039 42.7623C90.3557 42.8027 90.2063 42.8415 90.0585 42.8828C89.3309 43.0872 88.6087 43.3035 87.8909 43.5304C87.7329 43.5806 87.5767 43.633 87.42 43.6841C86.7856 43.8902 86.1554 44.1048 85.5295 44.3283C85.409 44.3717 85.2872 44.4126 85.1672 44.4565C84.4612 44.7136 83.7612 44.9827 83.0659 45.2621C82.9037 45.3272 82.7423 45.394 82.5805 45.4609C81.944 45.7223 81.3117 45.9914 80.685 46.2716C80.6053 46.3069 80.5249 46.3406 80.4457 46.3763C79.7597 46.6854 79.0811 47.0086 78.4075 47.3399C78.2487 47.4182 78.0898 47.4974 77.9314 47.577C77.2685 47.9087 76.6102 48.248 75.9601 48.6006C75.9435 48.61 75.926 48.6181 75.909 48.6278C75.2409 48.9906 74.5823 49.3683 73.9278 49.7519C73.7805 49.8383 73.6336 49.9248 73.4871 50.0129C72.8357 50.4016 72.1889 50.798 71.5516 51.2081C71.526 51.2247 71.5 51.2426 71.4745 51.2592C70.8558 51.6581 70.2453 52.0699 69.6402 52.488C69.5687 52.5374 69.4946 52.5833 69.4239 52.6327L69.3882 52.663C58.3707 60.3517 49.6996 71.1827 44.6959 83.8497C44.6763 83.8991 44.6584 83.9497 44.6388 83.9995C44.2982 84.8673 43.9767 85.7444 43.671 86.6296C43.5595 86.9528 43.4513 87.2768 43.3445 87.6017C42.3979 90.4799 41.6362 93.4412 41.075 96.4732C41.009 96.8292 40.9473 97.1868 40.8868 97.5445C40.7898 98.1201 40.6999 98.6979 40.6173 99.2783C40.5168 99.9821 40.427 100.688 40.3482 101.398C40.0719 103.895 39.9254 106.431 39.9254 109.001C39.9254 119.057 42.0986 128.615 45.9996 137.23C46.4586 138.244 46.9419 139.244 47.4477 140.231C47.701 140.724 47.9599 141.214 48.2239 141.7C48.7531 142.673 49.3054 143.632 49.8789 144.575C50.1659 145.047 50.4588 145.515 50.7569 145.98C62.9746 165.019 84.3301 177.658 108.583 177.658C132.837 177.658 154.192 165.018 166.41 145.98C166.708 145.515 167 145.047 167.288 144.575C167.862 143.632 168.414 142.673 168.943 141.7C169.208 141.214 169.467 140.724 169.72 140.231C170.225 139.244 170.708 138.244 171.168 137.23C175.069 128.615 177.242 119.057 177.242 109.001C177.244 106.43 177.097 103.895 176.821 101.397ZM108.586 159.622C99.863 159.622 91.6488 157.404 84.477 153.503C83.76 153.113 83.0527 152.706 82.357 152.282C67.7446 143.394 57.9645 127.318 57.9645 109C57.9645 90.6813 67.7442 74.6047 82.357 65.717C83.0527 65.2937 83.7595 64.8867 84.477 64.4967C91.6488 60.5957 99.8634 58.3782 108.586 58.3782C117.309 58.3782 125.523 60.5957 132.695 64.4967C133.412 64.8867 134.119 65.2937 134.814 65.717C149.427 74.6051 159.207 90.6813 159.207 109C159.207 127.318 149.427 143.395 134.814 152.282C134.119 152.706 133.412 153.113 132.695 153.503C125.523 157.404 117.309 159.622 108.586 159.622Z" fill="#59C2BB"/>
<g opacity="0.1">
<path opacity="0.1" d="M58.3881 145.98C58.0901 145.515 57.7976 145.047 57.5102 144.575C56.9362 143.632 56.3844 142.673 55.8552 141.7C55.5907 141.214 55.3314 140.724 55.079 140.231C54.5727 139.244 54.0903 138.244 53.6309 137.23C49.7299 128.615 47.5567 119.057 47.5567 109.001C47.5567 106.431 47.7036 103.895 47.9795 101.398C48.0583 100.688 48.1477 99.9816 48.2486 99.2783C48.3312 98.6979 48.4206 98.1201 48.5181 97.5445C48.5786 97.1868 48.6403 96.8292 48.7063 96.4732C49.2675 93.4417 50.0292 90.4804 50.9757 87.6017C51.0826 87.2764 51.1907 86.9528 51.3023 86.6296C51.608 85.7453 51.9295 84.8677 52.2701 83.9995C52.2897 83.9502 52.3075 83.8995 52.3271 83.8497C57.3309 71.1827 66.0015 60.3517 77.0194 52.663L77.0552 52.6327C77.1263 52.5833 77.1999 52.5374 77.2715 52.488C77.8765 52.0699 78.4867 51.6586 79.1057 51.2592C79.1313 51.2426 79.1573 51.2247 79.1828 51.2081C79.8202 50.7985 80.467 50.4016 81.1184 50.0129C81.2649 49.9252 81.4118 49.8383 81.5591 49.7519C82.2135 49.3674 82.8722 48.9902 83.5402 48.6278C83.5573 48.6185 83.5747 48.6104 83.5913 48.6006C84.2415 48.2476 84.9002 47.9087 85.5627 47.577C85.7211 47.4974 85.8799 47.4182 86.0387 47.3399C86.7123 47.009 87.391 46.6859 88.0769 46.3763C88.1561 46.3406 88.2366 46.3069 88.3162 46.2716C88.9434 45.9918 89.5753 45.7223 90.2118 45.4609C90.3736 45.394 90.5345 45.3272 90.6972 45.2621C91.3925 44.9827 92.0925 44.7132 92.7984 44.4565C92.9185 44.4126 93.0403 44.3717 93.1608 44.3283C93.7867 44.1048 94.4172 43.8902 95.0512 43.6841C95.2088 43.633 95.365 43.5806 95.5221 43.5304C96.2396 43.303 96.9621 43.0872 97.6898 42.8828C97.8375 42.8415 97.9866 42.8027 98.1351 42.7623C98.7768 42.5869 99.4231 42.4204 100.072 42.2637C100.216 42.2288 100.358 42.1926 100.502 42.1585C101.242 41.9848 101.987 41.8239 102.736 41.6736C102.903 41.6404 103.072 41.6089 103.241 41.5769C103.913 41.4479 104.588 41.3278 105.267 41.2184C105.385 41.1993 105.502 41.1784 105.62 41.1597C106.383 41.0409 107.151 40.937 107.921 40.8442C108.102 40.822 108.284 40.802 108.465 40.7816C109.187 40.7002 109.911 40.6279 110.64 40.5695C110.715 40.5631 110.789 40.555 110.864 40.5495C111.374 40.5099 111.888 40.4865 112.402 40.4592C112.126 40.4448 111.852 40.4231 111.574 40.4107C111.384 40.4022 111.194 40.3954 111.004 40.3886C110.202 40.3605 109.397 40.3413 108.588 40.3413C107.78 40.3413 106.975 40.3605 106.173 40.3886C105.982 40.3954 105.793 40.4018 105.603 40.4107C104.811 40.4448 104.022 40.4886 103.236 40.5495C103.161 40.555 103.087 40.5631 103.012 40.5695C102.284 40.6283 101.559 40.7002 100.838 40.7816C100.656 40.802 100.475 40.822 100.293 40.8442C99.5223 40.937 98.7547 41.0409 97.9925 41.1597C97.8746 41.1784 97.7575 41.1993 97.6395 41.2184C96.9604 41.3274 96.2851 41.4479 95.6128 41.5769C95.4446 41.6089 95.276 41.6404 95.1079 41.6736C94.3589 41.8234 93.6138 41.9844 92.8738 42.1585C92.7303 42.1926 92.5877 42.2288 92.4446 42.2637C91.7953 42.4204 91.1498 42.5869 90.5073 42.7623C90.3591 42.8027 90.2097 42.8415 90.0619 42.8828C89.3343 43.0872 88.6121 43.3035 87.8943 43.5304C87.7363 43.5806 87.5801 43.633 87.4234 43.6841C86.789 43.8902 86.1588 44.1048 85.5329 44.3283C85.4124 44.3717 85.2906 44.4126 85.1706 44.4565C84.4646 44.7136 83.7646 44.9827 83.0693 45.2621C82.9071 45.3272 82.7457 45.394 82.5839 45.4609C81.9474 45.7223 81.3151 45.9914 80.6884 46.2716C80.6087 46.3069 80.5283 46.3406 80.4491 46.3763C79.7632 46.6854 79.0845 47.0086 78.4109 47.3399C78.2521 47.4182 78.0932 47.4974 77.9348 47.577C77.2719 47.9087 76.6137 48.248 75.9635 48.6006C75.9469 48.61 75.9298 48.6181 75.9124 48.6278C75.2443 48.9906 74.5857 49.3683 73.9312 49.7519C73.7839 49.8383 73.637 49.9248 73.4906 50.0129C72.8391 50.4016 72.1923 50.798 71.555 51.2081C71.5294 51.2247 71.5034 51.2426 71.4779 51.2592C70.8592 51.6581 70.2487 52.0699 69.6436 52.488C69.5721 52.5374 69.498 52.5833 69.4273 52.6327L69.3916 52.663C58.3741 60.3517 49.703 71.1827 44.6993 83.8497C44.6797 83.8991 44.6618 83.9497 44.6422 83.9995C44.3016 84.8673 43.9801 85.7444 43.6744 86.6296C43.5629 86.9528 43.4547 87.2768 43.3478 87.6017C42.4013 90.4799 41.6396 93.4412 41.0784 96.4732C41.0124 96.8292 40.9507 97.1868 40.8902 97.5445C40.7932 98.1201 40.7033 98.6979 40.6207 99.2783C40.5202 99.9821 40.4304 100.688 40.3516 101.398C40.0753 103.895 39.9288 106.431 39.9288 109.001C39.9288 119.057 42.102 128.615 46.003 137.23C46.462 138.244 46.9453 139.244 47.4511 140.231C47.7044 140.724 47.9633 141.214 48.2273 141.7C48.7565 142.673 49.3088 143.632 49.8823 144.575C50.1693 145.047 50.4622 145.515 50.7603 145.98C62.978 165.019 84.3335 177.658 108.587 177.658C109.868 177.658 111.138 177.615 112.401 177.546C89.7345 176.298 69.96 164.013 58.3881 145.98Z" fill="#231F20"/>
</g>
<path d="M156.037 91.3657H122.053C120.078 91.3657 118.477 92.9662 118.477 94.9414C118.477 96.9166 120.078 98.5171 122.053 98.5171H158.114C157.595 96.0634 156.898 93.6747 156.037 91.3657Z" fill="#8ED0CC"/>
<path d="M99.0502 121.321H96.3213C94.3466 121.321 92.7456 119.72 92.7456 117.745C92.7456 115.77 94.3466 114.169 96.3213 114.169H99.0502C101.025 114.169 102.626 115.77 102.626 117.745C102.626 119.72 101.025 121.321 99.0502 121.321Z" fill="#8ED0CC"/>
<path d="M157.689 121.321C158.273 118.996 158.697 116.608 158.946 114.169H110.493C108.518 114.169 106.917 115.769 106.917 117.745C106.917 119.72 108.518 121.32 110.493 121.32H157.689V121.321Z" fill="#8ED0CC"/>
<path d="M175.15 86.1137C174.53 85.9915 173.916 86.0409 173.354 86.2248C173.402 86.3598 173.451 86.4931 173.499 86.6293C173.61 86.9525 173.718 87.2765 173.825 87.6014C174.456 89.5203 174.997 91.4789 175.459 93.4678C203.34 99.1251 210.848 106.437 210.848 109.921C210.848 113.576 203.474 119.654 182.693 124.759C163.052 129.583 136.881 132.24 109 132.24C81.1193 132.24 54.9482 129.583 35.3074 124.759C14.5255 119.655 7.15183 113.576 7.15183 109.921C7.15183 106.49 14.4863 99.2865 41.6703 93.6474C42.1408 91.5965 42.6968 89.5783 43.347 87.6014C43.4539 87.2761 43.562 86.9525 43.6736 86.6293C43.7136 86.5139 43.7562 86.3994 43.7966 86.2836C43.2955 86.155 42.7594 86.1307 42.2183 86.238C22.9581 90.0483 0 97.25 0 109.921C0 118.899 11.3049 126.228 33.6009 131.704C53.7837 136.661 80.5611 139.392 109 139.392C137.439 139.392 164.216 136.661 184.399 131.704C206.695 126.228 218 118.9 218 109.921C218 97.1444 194.698 89.9223 175.15 86.1137Z" fill="#90C8EC"/>
</svg>
