<svg version="1.2" xmlns="http://www.w3.org/2000/svg" viewBox="0 0 512 512" width="512" height="512">
	<title>planet1</title>
<path d="M256.001 44.1431C139.181 44.1431 44.1411 139.183 44.1411 256.003C44.1411 372.823 139.181 467.863 256.001 467.863C372.821 467.863 467.864 372.823 467.864 256.003C467.864 139.183 372.821 44.1431 256.001 44.1431Z" fill="#FBBF24"/>
<path opacity="0.1" d="M63.8501 256.003C63.8501 142.487 153.594 49.5471 265.856 44.3791C262.588 44.2281 259.305 44.1421 256.001 44.1421C139.181 44.1421 44.1411 139.182 44.1411 256.002C44.1411 372.822 139.181 467.862 256.001 467.862C259.305 467.862 262.588 467.776 265.856 467.625C153.593 462.46 63.8501 369.519 63.8501 256.003Z" fill="#231F20"/>
<path d="M441.416 432.339C442.648 431.044 443.866 429.735 445.07 428.414C445.331 428.127 445.592 427.839 445.851 427.552C447.08 426.195 448.296 424.829 449.496 423.446C449.498 423.444 449.499 423.442 449.502 423.439C450.699 422.058 451.876 420.66 453.044 419.252C453.294 418.95 453.543 418.65 453.792 418.347C454.926 416.97 456.046 415.58 457.152 414.178C457.34 413.939 457.525 413.698 457.713 413.46C458.717 412.175 459.71 410.88 460.692 409.575C460.876 409.329 461.063 409.087 461.246 408.841C462.313 407.413 463.363 405.973 464.398 404.521C464.63 404.197 464.86 403.871 465.091 403.546C466.14 402.066 467.175 400.578 468.193 399.075C473.201 391.671 477.817 383.984 482.044 376.059L482.203 375.798C482.42 375.389 482.623 374.97 482.839 374.559C483.581 373.144 484.31 371.721 485.027 370.291C485.381 369.583 485.737 368.876 486.085 368.165C486.851 366.602 487.595 365.028 488.329 363.448C488.588 362.893 488.854 362.342 489.106 361.785C490.081 359.645 491.031 357.49 491.949 355.32C492.093 354.976 492.228 354.629 492.372 354.285C493.133 352.462 493.876 350.63 494.594 348.787C494.874 348.068 495.145 347.344 495.418 346.621C495.99 345.116 496.55 343.607 497.092 342.088C497.374 341.303 497.652 340.515 497.925 339.727C498.46 338.188 498.976 336.641 499.482 335.089C499.717 334.369 499.957 333.651 500.185 332.929C500.834 330.874 501.458 328.808 502.056 326.732C502.116 326.526 502.18 326.325 502.239 326.12C502.891 323.835 503.506 321.535 504.094 319.224C504.267 318.542 504.429 317.851 504.597 317.165C505.001 315.521 505.396 313.874 505.768 312.218C505.955 311.391 506.132 310.563 506.31 309.732C506.647 308.161 506.969 306.585 507.276 305.004C507.436 304.186 507.597 303.368 507.747 302.547C508.075 300.769 508.379 298.984 508.67 297.193C508.768 296.594 508.877 295.998 508.969 295.397C509.339 293.013 509.677 290.621 509.98 288.215C510.047 287.681 510.1 287.143 510.164 286.608C510.389 284.727 510.599 282.844 510.782 280.951C510.864 280.114 510.933 279.275 511.006 278.437C511.148 276.806 511.276 275.172 511.388 273.532C511.448 272.651 511.505 271.769 511.556 270.886C511.654 269.188 511.73 267.487 511.795 265.781C511.824 265 511.862 264.222 511.884 263.439C511.956 260.969 512 258.493 512 256.006C512 114.845 397.159 0.00292969 256.001 0.00292969C114.843 0.00292969 0 114.845 0 256.003C0 258.491 0.045 260.966 0.116 263.436C0.138 264.218 0.176 264.996 0.205 265.778C0.27 267.484 0.346 269.186 0.444 270.883C0.494 271.767 0.552 272.648 0.612 273.529C0.724 275.169 0.852 276.803 0.994 278.434C1.068 279.273 1.137 280.112 1.219 280.947C1.402 282.844 1.612 284.733 1.839 286.616C1.903 287.147 1.955 287.681 2.021 288.211C2.325 290.616 2.662 293.012 3.032 295.397C3.125 295.997 3.233 296.593 3.331 297.192C3.621 298.983 3.925 300.768 4.254 302.545C4.405 303.367 4.566 304.187 4.726 305.007C5.033 306.586 5.355 308.16 5.69 309.73C5.868 310.561 6.046 311.391 6.234 312.219C6.606 313.874 6.999 315.523 7.404 317.166C7.572 317.852 7.734 318.541 7.907 319.225C8.496 321.535 9.11 323.836 9.762 326.121C9.821 326.327 9.885 326.528 9.945 326.733C10.543 328.81 11.167 330.875 11.816 332.93C12.044 333.652 12.284 334.37 12.519 335.09C13.024 336.643 13.541 338.189 14.076 339.728C14.35 340.517 14.628 341.303 14.909 342.089C15.452 343.608 16.013 345.119 16.585 346.625C16.859 347.345 17.128 348.067 17.407 348.784C18.127 350.628 18.87 352.462 19.631 354.286C19.774 354.629 19.909 354.976 20.053 355.319C20.971 357.489 21.921 359.644 22.896 361.784C23.148 362.341 23.415 362.892 23.673 363.447C24.407 365.028 25.151 366.6 25.917 368.164C26.266 368.876 26.621 369.583 26.975 370.29C27.692 371.72 28.422 373.144 29.163 374.558C29.379 374.969 29.582 375.388 29.799 375.797L29.958 376.058C34.181 383.98 38.796 391.663 43.802 399.063C44.821 400.571 45.861 402.062 46.911 403.546C47.141 403.871 47.371 404.197 47.604 404.521C48.641 405.972 49.689 407.413 50.756 408.841C50.939 409.088 51.126 409.33 51.31 409.575C52.292 410.88 53.285 412.174 54.289 413.46C54.477 413.699 54.662 413.94 54.85 414.178C55.955 415.581 57.076 416.969 58.21 418.347C58.459 418.65 58.708 418.95 58.958 419.252C60.126 420.659 61.303 422.058 62.5 423.439C62.502 423.441 62.503 423.443 62.506 423.446C63.705 424.829 64.922 426.195 66.151 427.552C66.411 427.839 66.67 428.127 66.932 428.414C68.136 429.735 69.354 431.043 70.586 432.339C70.788 432.551 70.991 432.761 71.195 432.972C72.334 434.161 73.486 435.34 74.648 436.507C74.854 436.714 75.056 436.92 75.262 437.127C76.53 438.391 77.811 439.641 79.105 440.879C79.381 441.143 79.66 441.407 79.937 441.67C82.598 444.194 85.312 446.662 88.078 449.071C88.366 449.322 88.653 449.573 88.943 449.823C90.3 450.995 91.669 452.154 93.051 453.298C93.271 453.48 93.493 453.659 93.715 453.839C94.995 454.891 96.286 455.932 97.588 456.96C97.813 457.138 98.035 457.316 98.26 457.494C99.672 458.602 101.098 459.695 102.534 460.772C102.838 461 103.144 461.227 103.448 461.453C106.4 463.651 109.401 465.786 112.449 467.858C112.76 468.068 113.07 468.28 113.382 468.489C114.877 469.495 116.382 470.49 117.899 471.466C118.138 471.62 118.38 471.771 118.621 471.923C120.026 472.821 121.439 473.705 122.862 474.575C123.104 474.722 123.346 474.873 123.588 475.02C125.131 475.957 126.685 476.874 128.249 477.78C128.577 477.97 128.907 478.158 129.238 478.346C132.446 480.182 135.697 481.952 138.99 483.651C139.33 483.825 139.667 484.002 140.008 484.175C141.621 484.998 143.243 485.807 144.876 486.598C145.133 486.722 145.393 486.844 145.651 486.968C147.161 487.692 148.679 488.402 150.204 489.097C150.468 489.218 150.732 489.34 150.996 489.46C152.649 490.207 154.315 490.933 155.988 491.647C156.342 491.798 156.698 491.948 157.054 492.096C160.485 493.54 163.956 494.911 167.46 496.207C167.823 496.342 168.187 496.477 168.552 496.609C170.268 497.236 171.99 497.844 173.724 498.435C174.002 498.529 174.283 498.62 174.562 498.714C176.162 499.251 177.767 499.774 179.381 500.281C179.664 500.369 179.945 500.462 180.229 500.549C181.979 501.093 183.741 501.616 185.507 502.123C185.886 502.231 186.263 502.336 186.643 502.444C190.267 503.465 193.923 504.409 197.608 505.271C197.997 505.363 198.384 505.453 198.773 505.542C200.576 505.955 202.384 506.352 204.201 506.727C204.497 506.788 204.792 506.844 205.089 506.905C206.763 507.245 208.445 507.567 210.132 507.873C210.432 507.928 210.73 507.985 211.03 508.038C212.863 508.364 214.701 508.668 216.546 508.954C216.947 509.017 217.349 509.076 217.75 509.136C221.536 509.706 225.348 510.192 229.184 510.594C229.591 510.636 229.995 510.679 230.403 510.72C232.278 510.907 234.158 511.075 236.046 511.222C236.358 511.245 236.673 511.267 236.987 511.289C238.719 511.416 240.455 511.527 242.199 511.621C242.516 511.639 242.833 511.658 243.153 511.673C245.051 511.768 246.955 511.838 248.863 511.891C249.28 511.902 249.697 511.911 250.114 511.92C252.074 511.965 254.038 511.995 256.007 511.995C257.977 511.995 259.94 511.965 261.9 511.92C262.317 511.911 262.734 511.901 263.151 511.891C265.059 511.839 266.963 511.768 268.861 511.673C269.179 511.657 269.497 511.638 269.815 511.621C271.559 511.527 273.295 511.417 275.027 511.289C275.341 511.267 275.656 511.245 275.968 511.222C277.855 511.076 279.736 510.907 281.611 510.72C282.018 510.679 282.423 510.636 282.83 510.594C286.667 510.193 290.479 509.706 294.264 509.136C294.665 509.076 295.067 509.016 295.468 508.954C297.312 508.667 299.151 508.364 300.984 508.038C301.284 507.984 301.582 507.926 301.882 507.873C303.569 507.566 305.25 507.243 306.924 506.905C307.221 506.845 307.517 506.789 307.813 506.727C309.63 506.352 311.439 505.956 313.241 505.542C313.63 505.453 314.017 505.362 314.406 505.271C318.092 504.409 321.747 503.465 325.371 502.444C325.751 502.337 326.128 502.232 326.507 502.123C328.273 501.616 330.033 501.093 331.785 500.549C332.069 500.462 332.35 500.369 332.633 500.281C334.246 499.774 335.852 499.251 337.452 498.714C337.731 498.62 338.012 498.529 338.29 498.435C340.024 497.845 341.746 497.235 343.462 496.609C343.826 496.477 344.19 496.342 344.553 496.207C348.058 494.911 351.528 493.541 354.959 492.096C355.314 491.946 355.671 491.797 356.025 491.647C357.698 490.933 359.363 490.207 361.017 489.46C361.281 489.34 361.545 489.217 361.809 489.097C363.334 488.402 364.853 487.692 366.362 486.968C366.621 486.844 366.88 486.722 367.137 486.598C368.77 485.807 370.392 484.998 372.005 484.175C372.346 484.002 372.683 483.825 373.023 483.651C376.316 481.952 379.567 480.183 382.775 478.346C383.106 478.157 383.435 477.97 383.764 477.78C385.328 476.874 386.883 475.957 388.425 475.02C388.668 474.873 388.91 474.722 389.151 474.575C390.573 473.705 391.987 472.821 393.392 471.923C393.632 471.77 393.875 471.619 394.112 471.466C395.629 470.49 397.132 469.497 398.627 468.491C398.941 468.28 399.251 468.068 399.564 467.855C402.611 465.784 405.61 463.648 408.563 461.452C408.867 461.225 409.173 460.998 409.477 460.771C410.912 459.692 412.34 458.601 413.751 457.493C413.975 457.317 414.198 457.138 414.423 456.959C415.724 455.931 417.014 454.89 418.296 453.838C418.516 453.658 418.738 453.479 418.96 453.297C420.342 452.153 421.711 450.993 423.068 449.822C423.358 449.572 423.645 449.322 423.933 449.07C426.7 446.661 429.413 444.193 432.074 441.669C432.351 441.407 432.63 441.142 432.906 440.878C434.199 439.64 435.482 438.389 436.749 437.126C436.956 436.919 437.158 436.713 437.363 436.506C438.525 435.339 439.675 434.159 440.816 432.971C441.01 432.761 441.213 432.551 441.416 432.339ZM234.369 466.767C127.67 455.898 44.139 365.522 44.139 256.002C44.139 146.482 127.67 56.1069 234.369 45.2379C241.481 44.5129 248.698 44.1419 255.999 44.1419C263.3 44.1419 270.517 44.5129 277.629 45.2379C384.329 56.1069 467.859 146.483 467.859 256.003C467.859 365.523 384.328 455.898 277.629 466.768C270.517 467.493 263.3 467.864 255.999 467.864C248.699 467.864 241.483 467.493 234.369 466.767Z" fill="#E7802C"/>
<g opacity="0.1">
<path opacity="0.1" d="M261.367 511.68C261.049 511.664 260.731 511.645 260.413 511.628C258.672 511.534 256.934 511.424 255.201 511.296C254.887 511.274 254.572 511.252 254.26 511.229C252.373 511.083 250.493 510.914 248.617 510.727C248.212 510.686 247.805 510.643 247.399 510.601C243.561 510.2 239.75 509.713 235.965 509.143C235.564 509.083 235.161 509.023 234.761 508.961C232.916 508.674 231.077 508.371 229.245 508.045C228.943 507.991 228.646 507.933 228.346 507.88C226.659 507.573 224.977 507.25 223.303 506.912C223.007 506.852 222.711 506.796 222.416 506.734C220.599 506.359 218.79 505.963 216.988 505.549C216.598 505.46 216.212 505.369 215.823 505.278C212.136 504.416 208.481 503.472 204.857 502.451C204.478 502.344 204.1 502.239 203.721 502.13C201.955 501.623 200.195 501.1 198.443 500.556C198.159 500.469 197.878 500.376 197.595 500.288C195.982 499.781 194.376 499.258 192.777 498.721C192.498 498.627 192.218 498.536 191.939 498.442C190.207 497.852 188.483 497.242 186.767 496.616C186.403 496.484 186.04 496.349 185.676 496.214C182.171 494.918 178.701 493.548 175.27 492.103C174.915 491.953 174.558 491.804 174.204 491.654C172.532 490.94 170.867 490.214 169.212 489.467C168.948 489.347 168.685 489.224 168.421 489.104C166.895 488.409 165.376 487.699 163.867 486.975C163.609 486.851 163.349 486.729 163.092 486.605C161.459 485.814 159.837 485.005 158.224 484.182C157.883 484.009 157.546 483.832 157.206 483.658C153.914 481.959 150.662 480.19 147.454 478.353C147.124 478.164 146.795 477.977 146.465 477.787C144.902 476.881 143.346 475.964 141.804 475.027C141.56 474.88 141.32 474.729 141.079 474.582C139.656 473.712 138.242 472.828 136.837 471.93C136.597 471.777 136.356 471.626 136.115 471.473C134.598 470.497 133.093 469.503 131.598 468.496C131.287 468.286 130.976 468.075 130.665 467.865C127.617 465.793 124.617 463.657 121.665 461.46C121.36 461.233 121.054 461.006 120.751 460.779C119.315 459.7 117.888 458.609 116.476 457.501C116.251 457.325 116.029 457.146 115.804 456.967C114.503 455.939 113.213 454.898 111.931 453.846C111.711 453.666 111.489 453.487 111.269 453.305C109.886 452.161 108.518 451.001 107.159 449.83C106.87 449.58 106.582 449.33 106.294 449.078C103.527 446.669 100.814 444.201 98.153 441.677C97.876 441.415 97.598 441.15 97.321 440.886C96.027 439.648 94.745 438.397 93.478 437.134C93.271 436.927 93.069 436.721 92.864 436.514C91.702 435.347 90.552 434.167 89.412 432.979C89.209 432.768 89.004 432.558 88.802 432.346C87.57 431.051 86.353 429.742 85.148 428.421C84.887 428.134 84.626 427.846 84.367 427.559C83.139 426.202 81.922 424.836 80.722 423.453C80.72 423.451 80.719 423.449 80.716 423.446C79.52 422.065 78.342 420.667 77.174 419.259C76.924 418.957 76.675 418.657 76.426 418.354C75.292 416.977 74.172 415.587 73.066 414.185C72.878 413.946 72.693 413.705 72.505 413.467C71.501 412.182 70.508 410.887 69.526 409.582C69.342 409.336 69.155 409.094 68.972 408.848C67.906 407.42 66.856 405.98 65.82 404.528C65.588 404.204 65.359 403.878 65.127 403.553C64.077 402.07 63.037 400.578 62.018 399.07C57.013 391.67 52.398 383.987 48.174 376.065L48.015 375.804C47.798 375.395 47.595 374.976 47.381 374.565C46.638 373.15 45.909 371.727 45.192 370.297C44.838 369.589 44.482 368.882 44.134 368.171C43.37 366.608 42.625 365.034 41.89 363.454C41.633 362.899 41.366 362.348 41.113 361.791C40.138 359.651 39.188 357.496 38.271 355.326C38.126 354.983 37.991 354.636 37.848 354.293C37.086 352.469 36.344 350.636 35.625 348.791C35.345 348.074 35.075 347.352 34.803 346.632C34.231 345.125 33.67 343.615 33.126 342.096C32.845 341.31 32.566 340.523 32.293 339.735C31.758 338.196 31.242 336.649 30.736 335.097C30.503 334.377 30.261 333.659 30.033 332.937C29.385 330.882 28.76 328.816 28.162 326.74C28.102 326.534 28.038 326.333 27.979 326.128C27.328 323.843 26.712 321.543 26.124 319.232C25.951 318.55 25.79 317.859 25.621 317.173C25.217 315.53 24.823 313.882 24.451 312.226C24.264 311.398 24.086 310.568 23.907 309.737C23.571 308.169 23.25 306.594 22.943 305.014C22.783 304.194 22.622 303.374 22.471 302.552C22.143 300.775 21.839 298.99 21.548 297.199C21.451 296.6 21.341 296.004 21.249 295.404C20.879 293.019 20.541 290.624 20.238 288.218C20.171 287.687 20.118 287.155 20.056 286.623C19.83 284.739 19.62 282.851 19.436 280.954C19.354 280.118 19.285 279.28 19.213 278.441C19.07 276.81 18.942 275.176 18.83 273.536C18.77 272.655 18.714 271.773 18.662 270.89C18.564 269.192 18.488 267.491 18.423 265.785C18.394 265.004 18.356 264.226 18.334 263.443C18.264 260.973 18.218 258.497 18.218 256.01C18.218 117.902 128.153 5.00688 265.107 0.188883C262.082 0.0768828 259.047 0.00488284 255.997 0.00488284C114.842 0.00288284 0 114.845 0 256.003C0 258.491 0.045 260.966 0.116 263.436C0.138 264.218 0.176 264.996 0.205 265.778C0.27 267.484 0.346 269.186 0.444 270.883C0.494 271.767 0.552 272.648 0.612 273.529C0.724 275.169 0.852 276.803 0.994 278.434C1.068 279.273 1.137 280.112 1.219 280.947C1.402 282.844 1.612 284.733 1.839 286.616C1.903 287.147 1.955 287.681 2.021 288.211C2.325 290.616 2.662 293.012 3.032 295.397C3.125 295.997 3.233 296.593 3.331 297.192C3.621 298.983 3.925 300.768 4.254 302.545C4.405 303.367 4.566 304.187 4.726 305.007C5.033 306.586 5.355 308.16 5.69 309.73C5.868 310.561 6.046 311.391 6.234 312.219C6.606 313.874 6.999 315.523 7.404 317.166C7.572 317.852 7.734 318.541 7.907 319.225C8.496 321.535 9.11 323.836 9.762 326.121C9.821 326.327 9.885 326.528 9.945 326.733C10.543 328.81 11.167 330.875 11.816 332.93C12.044 333.652 12.284 334.37 12.519 335.09C13.024 336.643 13.541 338.189 14.076 339.728C14.35 340.517 14.628 341.303 14.909 342.089C15.452 343.608 16.013 345.119 16.585 346.625C16.859 347.345 17.128 348.067 17.407 348.784C18.127 350.628 18.87 352.462 19.631 354.286C19.774 354.629 19.909 354.976 20.053 355.319C20.971 357.489 21.921 359.644 22.896 361.784C23.148 362.341 23.415 362.892 23.673 363.447C24.407 365.028 25.151 366.6 25.917 368.164C26.266 368.876 26.621 369.583 26.975 370.29C27.692 371.72 28.422 373.144 29.163 374.558C29.379 374.969 29.582 375.388 29.799 375.797L29.958 376.058C34.181 383.98 38.796 391.663 43.802 399.063C44.821 400.571 45.861 402.062 46.911 403.546C47.141 403.871 47.371 404.197 47.604 404.521C48.641 405.972 49.689 407.413 50.756 408.841C50.939 409.088 51.126 409.33 51.31 409.575C52.292 410.88 53.285 412.174 54.289 413.46C54.477 413.699 54.662 413.94 54.85 414.178C55.955 415.581 57.076 416.969 58.21 418.347C58.459 418.65 58.708 418.95 58.958 419.252C60.126 420.659 61.303 422.058 62.5 423.439C62.502 423.441 62.503 423.443 62.506 423.446C63.705 424.829 64.922 426.195 66.151 427.552C66.411 427.839 66.67 428.127 66.932 428.414C68.136 429.735 69.354 431.043 70.586 432.339C70.788 432.551 70.991 432.761 71.195 432.972C72.334 434.161 73.486 435.34 74.648 436.507C74.854 436.714 75.056 436.92 75.262 437.127C76.53 438.391 77.811 439.641 79.105 440.879C79.381 441.143 79.66 441.407 79.937 441.67C82.598 444.194 85.312 446.662 88.078 449.071C88.366 449.322 88.653 449.573 88.943 449.823C90.3 450.995 91.669 452.154 93.051 453.298C93.271 453.48 93.493 453.659 93.715 453.839C94.995 454.891 96.286 455.932 97.588 456.96C97.813 457.138 98.035 457.316 98.26 457.494C99.672 458.602 101.098 459.695 102.534 460.772C102.838 461 103.144 461.227 103.448 461.453C106.4 463.651 109.401 465.786 112.449 467.858C112.76 468.068 113.07 468.28 113.382 468.489C114.877 469.495 116.382 470.49 117.899 471.466C118.138 471.62 118.38 471.771 118.621 471.923C120.026 472.821 121.439 473.705 122.862 474.575C123.104 474.722 123.346 474.873 123.588 475.02C125.131 475.957 126.685 476.874 128.249 477.78C128.577 477.97 128.907 478.158 129.238 478.346C132.446 480.182 135.697 481.952 138.99 483.651C139.33 483.825 139.667 484.002 140.008 484.175C141.621 484.998 143.243 485.807 144.876 486.598C145.133 486.722 145.393 486.844 145.651 486.968C147.161 487.692 148.679 488.402 150.204 489.097C150.468 489.218 150.732 489.34 150.996 489.46C152.649 490.207 154.315 490.933 155.988 491.647C156.342 491.798 156.698 491.948 157.054 492.096C160.485 493.54 163.956 494.911 167.46 496.207C167.823 496.342 168.187 496.477 168.552 496.609C170.268 497.236 171.99 497.844 173.724 498.435C174.002 498.529 174.283 498.62 174.562 498.714C176.162 499.251 177.767 499.774 179.381 500.281C179.664 500.369 179.945 500.462 180.229 500.549C181.979 501.093 183.741 501.616 185.507 502.123C185.886 502.231 186.263 502.336 186.643 502.444C190.267 503.465 193.923 504.409 197.608 505.271C197.997 505.363 198.384 505.453 198.773 505.542C200.576 505.955 202.384 506.352 204.201 506.727C204.497 506.788 204.792 506.844 205.089 506.905C206.763 507.245 208.445 507.567 210.132 507.873C210.432 507.928 210.73 507.985 211.03 508.038C212.863 508.364 214.701 508.668 216.546 508.954C216.947 509.017 217.349 509.076 217.75 509.136C221.536 509.706 225.348 510.192 229.184 510.594C229.591 510.636 229.995 510.679 230.403 510.72C232.278 510.907 234.158 511.075 236.046 511.222C236.358 511.245 236.673 511.267 236.987 511.289C238.719 511.416 240.455 511.527 242.199 511.621C242.516 511.639 242.833 511.658 243.153 511.673C245.051 511.768 246.955 511.838 248.863 511.891C249.28 511.902 249.697 511.911 250.114 511.92C252.074 511.965 254.038 511.995 256.007 511.995C257.977 511.995 259.94 511.965 261.9 511.92C262.317 511.911 262.734 511.901 263.151 511.891C263.809 511.873 264.461 511.839 265.118 511.816C263.862 511.78 262.612 511.742 261.367 511.68Z" fill="#231F20"/>
</g>
<path d="M356.05 174.379H60.5021C58.2091 179.85 56.1461 185.442 54.3101 191.134H356.05C360.677 191.134 364.428 187.384 364.428 182.756C364.427 178.13 360.676 174.379 356.05 174.379Z" fill="#AD800C"/>
<path d="M467.849 257.133H197.736C193.108 257.133 189.358 260.883 189.358 265.511C189.358 270.139 193.108 273.889 197.736 273.889H467.099C467.565 268.36 467.819 262.772 467.849 257.133Z" fill="#AD800C"/>
<path d="M450.532 339.885H311.057C306.43 339.885 302.679 343.635 302.679 348.263C302.679 352.891 306.43 356.641 311.057 356.641H442.394C445.345 351.196 448.056 345.604 450.532 339.885Z" fill="#AD800C"/>
<path d="M282.734 356.64H265.711C261.084 356.64 257.333 352.89 257.333 348.262C257.333 343.634 261.084 339.884 265.711 339.884H282.734C287.361 339.884 291.112 343.634 291.112 348.262C291.112 352.89 287.361 356.64 282.734 356.64Z" fill="#AD800C"/>
	<style>
	</style>
	<use id="Background" href="#img1" x="0" y="6" />
</svg>