<svg width="409" height="402" viewBox="0 0 409 402" fill="none" xmlns="http://www.w3.org/2000/svg">
<g clip-path="url(#clip0_29_591)">
<path d="M152.998 401.996C294.382 401.996 408.996 287.382 408.996 145.998C408.996 4.61421 294.382 -110 152.998 -110C11.6142 -110 -103 4.61421 -103 145.998C-103 287.382 11.6142 401.996 152.998 401.996Z" fill="#59C2BB"/>
<path d="M152.999 401.998C152.999 315.212 152.999 -22.059 152.999 -109.999C221.378 -109.999 285.665 -83.371 334.017 -35.018C382.368 13.333 408.998 77.62 408.998 146C408.998 214.38 382.37 278.666 334.017 327.018C285.667 375.37 221.379 401.998 152.999 401.998Z" fill="#367C78"/>
<path d="M200.19 154.631C200.19 142.336 190.224 132.37 177.929 132.37H-102.636C-102.873 136.884 -102.998 141.428 -102.998 146.001C-102.998 156.458 -102.356 166.764 -101.137 176.891H177.93C190.224 176.892 200.19 166.926 200.19 154.631Z" fill="#8ED0CC"/>
<path d="M124.675 292.951H-56.632C-45.15 309.3 -31.802 324.241 -16.901 337.472H124.674C136.969 337.472 146.935 327.506 146.935 315.211C146.935 302.916 136.968 292.951 124.675 292.951Z" fill="#8ED0CC"/>
<path d="M95.088 2.33901C107.383 2.33901 117.349 -7.62698 117.349 -19.922C117.349 -32.217 107.383 -42.183 95.088 -42.183H-20.54C-34.96 -28.877 -47.852 -13.944 -58.912 2.33901H95.088Z" fill="#8ED0CC"/>
<path d="M241.047 89.616H402.753C399.288 74.203 394.435 59.317 388.328 45.095H241.047C228.752 45.095 218.786 55.061 218.786 67.356C218.787 79.65 228.753 89.616 241.047 89.616Z" fill="#56938F"/>
<path d="M398.227 219.647H262.744C250.449 219.647 240.483 229.613 240.483 241.908C240.483 254.203 250.449 264.169 262.744 264.169H380.136C387.496 250.049 393.574 235.158 398.227 219.647Z" fill="#56938F"/>
<path d="M177.929 132.37H152.999V176.891H177.929C190.224 176.891 200.19 166.925 200.19 154.63C200.19 142.336 190.224 132.37 177.929 132.37Z" fill="#56938F"/>
</g>
<defs>
<clipPath id="clip0_29_591">
<rect width="511.998" height="511.998" fill="white" transform="translate(-103 -110)"/>
</clipPath>
</defs>
</svg>
