<svg width="179" height="179" viewBox="0 0 179 179" fill="none" xmlns="http://www.w3.org/2000/svg">
<path d="M89.5 164.565C130.957 164.565 164.565 130.957 164.565 89.5002C164.565 48.0431 130.957 14.4355 89.5 14.4355C48.0429 14.4355 14.4354 48.0431 14.4354 89.5002C14.4354 130.957 48.0429 164.565 89.5 164.565Z" fill="#367C78"/>
<path d="M89.5 14.4355C130.957 14.4355 164.565 48.0431 164.565 89.5002C164.565 130.957 130.957 164.565 89.5 164.565" fill="#235956"/>
<path d="M73.4141 9.43262C70.1068 11.3593 66.7866 13.2668 63.4807 15.1959C58.9305 17.8509 54.4174 20.5747 50.0151 23.4698C51.5939 23.2268 53.2088 23.0967 54.8544 23.0967C72.3656 23.0967 86.6125 37.3433 86.6125 54.8549C86.6125 72.3665 72.366 86.6131 54.8544 86.6131C37.3428 86.6131 23.0962 72.3665 23.0962 54.8549C23.0962 53.7463 23.1546 52.651 23.2661 51.571C22.7984 52.3206 22.3306 53.0702 21.8715 53.8246C19.5393 57.6588 17.3214 61.5667 15.3338 65.5918C14.7881 66.6969 14.2871 67.8212 13.7568 68.9333C13.6777 69.0998 13.6169 69.2242 13.569 69.3221C13.5103 69.4808 13.4222 69.7095 13.296 70.0318C12.516 72.0193 11.8356 74.0369 11.248 76.0888C11.1759 76.3412 11.085 76.5807 10.998 76.8226C19.0698 92.883 35.6874 103.935 54.854 103.935C81.9169 103.935 103.935 81.9175 103.935 54.8546C103.935 34.3573 91.3015 16.7653 73.4141 9.43262Z" fill="#8ED0CC"/>
<path d="M127.032 164.565H109.71C109.71 153.421 100.644 144.355 89.5003 144.355C78.3569 144.355 69.2908 153.421 69.2908 164.565H51.9684C51.9684 143.869 68.8052 127.032 89.5007 127.032C110.196 127.032 127.032 143.869 127.032 164.565Z" fill="#8ED0CC"/>
<path d="M127.032 164.565H109.71C109.71 153.421 100.644 144.355 89.5004 144.355V127.033C110.195 127.032 127.032 143.869 127.032 164.565Z" fill="#5ED3CC"/>
<path d="M170.339 127.032C149.644 127.032 132.806 110.196 132.806 89.5001C132.806 68.8046 149.643 51.9678 170.339 51.9678V69.2902C159.195 69.2902 150.129 78.3563 150.129 89.4997C150.129 100.643 159.195 109.709 170.339 109.709V127.032Z" fill="#5ED3CC"/>
<path d="M54.8548 66.4032C61.2327 66.4032 66.403 61.2329 66.403 54.8549C66.403 48.477 61.2327 43.3066 54.8548 43.3066C48.4768 43.3066 43.3065 48.477 43.3065 54.8549C43.3065 61.2329 48.4768 66.4032 54.8548 66.4032Z" fill="#8ED0CC"/>
<path d="M89.5 179C40.1498 179 0 138.85 0 89.5C0 40.1498 40.1498 0 89.5 0C138.85 0 179 40.1498 179 89.5C179 138.85 138.85 179 89.5 179ZM89.5 17.3224C49.7015 17.3224 17.3224 49.7015 17.3224 89.5C17.3224 129.298 49.7015 161.678 89.5 161.678C129.298 161.678 161.678 129.298 161.678 89.5C161.678 49.7015 129.298 17.3224 89.5 17.3224Z" fill="#5ED3CC"/>
<path d="M89.5 179V161.678C129.298 161.678 161.678 129.299 161.678 89.5C161.678 49.7012 129.298 17.3224 89.5 17.3224V0C138.85 0 179 40.1498 179 89.5C179 138.85 138.85 179 89.5 179Z" fill="#59C2BB"/>
</svg>
