<svg width="512" height="512" viewBox="0 0 512 512" fill="none" xmlns="http://www.w3.org/2000/svg">
<g clip-path="url(#clip0_55_178)">
<path d="M405.952 201.859C400.28 182.859 511.999 0 511.999 0C511.999 0 247.687 156.359 234.64 150C213.39 139.641 239.828 91.125 239.828 91.125L51.828 249.609C49.062 251.984 46.359 254.484 43.734 257.109C-14.578 315.421 -14.578 409.953 43.734 468.265C102.046 526.577 196.578 526.577 254.89 468.265C261.218 461.937 271.828 448.077 271.828 448.077L447.999 213.328C447.999 213.328 411.171 219.359 405.952 201.859Z" fill="#8D81B1"/>
<path d="M149.219 469.22C208.126 469.22 255.879 421.467 255.879 362.56C255.879 303.653 208.126 255.9 149.219 255.9C90.3123 255.9 42.559 303.653 42.559 362.56C42.559 421.467 90.3123 469.22 149.219 469.22Z" fill="#D7AF48"/>
</g>
<defs>
<clipPath id="clip0_55_178">
<rect width="511.999" height="511.999" fill="white"/>
</clipPath>
</defs>
</svg>
