<svg width="512" height="512" viewBox="0 0 512 512" fill="none" xmlns="http://www.w3.org/2000/svg">
<path d="M451.316 269.856C453.571 261.954 454.171 257.002 454.171 257.002H57.8279C57.8879 258.205 57.9699 259.387 58.0529 260.571C57.9089 259.387 57.8279 258.2 57.8279 257.002C57.8279 366.446 146.553 455.174 256 455.174C365.447 455.174 454.171 366.447 454.171 257.002C454.171 261.385 453.185 265.677 451.316 269.856Z" fill="#8ED0CC"/>
<path d="M408.912 208.821C437.185 221.914 454.171 238.701 454.171 257.003C454.171 298.833 365.446 332.743 256 332.743C146.553 332.743 57.8279 298.832 57.8279 257.003C57.8279 215.171 146.553 181.259 256 181.259C304.621 181.259 349.152 187.952 383.63 199.058" fill="#59C2BB"/>
<path d="M256 280.222C321.609 280.222 374.795 268.707 374.795 254.502C374.795 240.297 321.609 228.782 256 228.782C190.391 228.782 137.205 240.297 137.205 254.502C137.205 268.707 190.391 280.222 256 280.222Z" fill="#3A5D74"/>
<path opacity="0.1" d="M155.359 254.504C155.359 240.961 203.71 229.863 265.079 228.859C262.082 228.809 259.055 228.785 256 228.785C190.39 228.785 137.201 240.301 137.201 254.505C137.201 268.707 190.39 280.225 256 280.225C259.055 280.225 262.083 280.2 265.079 280.151C203.71 279.146 155.359 268.045 155.359 254.504Z" fill="#231F20"/>
<path opacity="0.1" d="M265.162 332.66C159.968 330.83 76.1519 297.659 76.1519 257.004C76.1519 216.336 160.01 183.159 265.24 181.343C265.032 181.34 264.819 181.341 264.608 181.338C264.636 181.337 264.665 181.336 264.692 181.336C261.81 181.289 258.913 181.262 256 181.262C146.553 181.262 57.8279 215.174 57.8279 257.006C57.8279 366.45 146.553 455.178 256 455.178C258.891 455.178 261.764 455.103 264.623 454.98C170.377 450.943 93.1899 381.087 77.8549 290.216C110.055 315.399 177.722 332.746 256 332.746C259.072 332.743 262.125 332.713 265.162 332.66Z" fill="#231F20"/>
<path d="M256 511.999C187.619 511.999 123.333 485.371 74.981 437.019C26.628 388.667 0 324.381 0 256.001C0 187.621 26.628 123.334 74.982 74.982C123.333 26.629 187.619 0.000976562 256 0.000976562C324.379 0.000976562 388.667 26.629 437.019 74.983C485.372 123.334 512 187.62 512 256.001C512 324.382 485.372 388.667 437.018 437.018C388.667 485.371 324.379 511.999 256 511.999ZM256 16.17C123.755 16.17 16.168 123.759 16.168 256.002C16.168 388.245 123.756 495.831 256 495.831C388.244 495.831 495.832 388.244 495.832 256.002C495.832 123.757 388.245 16.17 256 16.17Z" fill="#61938F"/>
</svg>
