<svg width="512" height="512" viewBox="0 0 512 512" fill="none" xmlns="http://www.w3.org/2000/svg">
<path d="M256 34.05C133.616 34.05 34.051 133.616 34.051 256C34.051 378.384 133.616 477.95 256 477.95C378.384 477.95 477.95 378.384 477.95 256C477.95 133.616 378.384 34.05 256 34.05Z" fill="#59C2BB"/>
<path opacity="0.1" d="M60.356 256C60.356 138.033 152.87 41.281 269.153 34.451C264.8 34.194 260.417 34.05 256.001 34.05C133.616 34.05 34.051 133.616 34.051 256C34.051 378.384 133.616 477.95 256 477.95C260.417 477.95 264.799 477.805 269.152 477.549C152.869 470.719 60.356 373.967 60.356 256Z" fill="#231F20"/>
<path d="M439.546 434.285C392.999 482.194 327.915 512 256 512C114.84 512 0 397.159 0 256C0 114.842 114.84 0 256 0C397.158 0 512 114.842 512 256C512 315.773 491.41 370.828 456.947 414.44L439.546 434.285ZM256 42.955C138.527 42.955 42.956 138.527 42.956 256C42.956 373.473 138.527 469.045 256 469.045C373.473 469.045 469.045 373.473 469.045 256C469.045 138.527 373.473 42.955 256 42.955Z" fill="#8ED0CC"/>
<g opacity="0.1">
<path opacity="0.1" d="M17.809 256C17.809 117.822 127.854 4.883 264.905 0.171C261.947 0.07 258.982 0 256 0C114.84 0 0 114.842 0 256C0 397.16 114.84 512 256 512C258.982 512 261.947 511.929 264.903 511.829C127.854 507.117 17.809 394.179 17.809 256Z" fill="#231F20"/>
</g>
<path d="M95.032 395.415C98.813 399.775 102.777 403.97 106.894 408.009C152.689 383.99 203.58 371.421 256 371.421C308.421 371.421 359.312 383.989 405.106 408.009C409.223 403.97 413.188 399.775 416.969 395.416C367.734 368.717 312.714 354.725 256.001 354.725C199.286 354.726 144.267 368.718 95.032 395.415Z" fill="#578CAD"/>
<path d="M416.885 116.49C413.102 112.134 409.137 107.94 405.018 103.903C359.269 127.978 308.401 140.578 256 140.578C203.599 140.578 152.731 127.978 106.982 103.904C102.863 107.941 98.897 112.134 95.115 116.491C144.303 143.251 199.303 157.274 256 157.274C312.696 157.274 367.697 143.251 416.885 116.49Z" fill="#578CAD"/>
<path d="M246.225 204.069H49.368C47.989 209.554 46.828 215.123 45.885 220.765H246.225C250.835 220.765 254.573 217.029 254.573 212.417C254.573 207.805 250.835 204.069 246.225 204.069Z" fill="#578CAD"/>
<path d="M286.328 220.764H275.122C270.512 220.764 266.774 217.028 266.774 212.416C266.774 207.804 270.512 204.068 275.122 204.068H286.328C290.938 204.068 294.676 207.804 294.676 212.416C294.676 217.027 290.938 220.764 286.328 220.764Z" fill="#578CAD"/>
<path d="M466.176 290.872H151.412C146.802 290.872 143.064 294.61 143.064 299.22C143.064 303.831 146.802 307.568 151.412 307.568H462.721C464.09 302.082 465.242 296.514 466.176 290.872Z" fill="#578CAD"/>
</svg>
